%TF.GenerationSoftware,KiCad,Pcbnew,5.1.10*%
%TF.CreationDate,2021-06-27T23:00:14+02:00*%
%TF.ProjectId,main_v1,6d61696e-5f76-4312-9e6b-696361645f70,rev?*%
%TF.SameCoordinates,Original*%
%TF.FileFunction,Legend,Bot*%
%TF.FilePolarity,Positive*%
%FSLAX46Y46*%
G04 Gerber Fmt 4.6, Leading zero omitted, Abs format (unit mm)*
G04 Created by KiCad (PCBNEW 5.1.10) date 2021-06-27 23:00:14*
%MOMM*%
%LPD*%
G01*
G04 APERTURE LIST*
%ADD10C,0.120000*%
%ADD11C,0.150000*%
%ADD12C,0.010000*%
%ADD13R,3.250000X13.200000*%
%ADD14O,1.700000X1.700000*%
%ADD15R,1.700000X1.700000*%
%ADD16C,1.800000*%
%ADD17O,1.700000X2.000000*%
%ADD18O,1.700000X1.950000*%
%ADD19O,2.000000X1.700000*%
%ADD20R,0.900000X0.800000*%
%ADD21R,0.510000X0.700000*%
%ADD22R,1.500000X2.400000*%
%ADD23R,1.500000X5.080000*%
%ADD24C,3.200000*%
%ADD25R,10.800000X9.400000*%
%ADD26R,1.100000X4.600000*%
%ADD27C,3.800000*%
%ADD28R,3.800000X3.800000*%
%ADD29C,6.000000*%
%ADD30C,0.800000*%
%ADD31C,4.000000*%
%ADD32O,1.800000X1.070000*%
%ADD33R,1.800000X1.070000*%
%ADD34C,1.524000*%
%ADD35C,1.300000*%
%ADD36C,1.600000*%
%ADD37R,1.300000X1.300000*%
%ADD38R,1.600000X1.600000*%
G04 APERTURE END LIST*
D10*
%TO.C,U22*%
X209550000Y-80990000D02*
X211400000Y-80990000D01*
X209550000Y-80990000D02*
X208800000Y-80990000D01*
X209550000Y-84110000D02*
X210300000Y-84110000D01*
X209550000Y-84110000D02*
X208800000Y-84110000D01*
%TO.C,HS1*%
X184950000Y-142890000D02*
X184950000Y-128890000D01*
X157950000Y-142890000D02*
X165450000Y-142890000D01*
X157950000Y-128890000D02*
X157950000Y-142890000D01*
X177450000Y-142890000D02*
X184950000Y-142890000D01*
X157950000Y-128890000D02*
X165450000Y-128890000D01*
X177450000Y-128890000D02*
X184950000Y-128890000D01*
%TO.C,JP3*%
X229175000Y-155515000D02*
X229175000Y-156845000D01*
X230505000Y-155515000D02*
X229175000Y-155515000D01*
X231775000Y-155515000D02*
X231775000Y-158175000D01*
X231775000Y-158175000D02*
X234375000Y-158175000D01*
X231775000Y-155515000D02*
X234375000Y-155515000D01*
X234375000Y-155515000D02*
X234375000Y-158175000D01*
%TO.C,C22*%
X202536248Y-81815000D02*
X203058752Y-81815000D01*
X202536248Y-83285000D02*
X203058752Y-83285000D01*
%TO.C,R30*%
X186462936Y-137260000D02*
X186917064Y-137260000D01*
X186462936Y-135790000D02*
X186917064Y-135790000D01*
%TO.C,R29*%
X186917064Y-137695000D02*
X186462936Y-137695000D01*
X186917064Y-139165000D02*
X186462936Y-139165000D01*
%TO.C,U4*%
X229870000Y-151835000D02*
X226270000Y-151835000D01*
X229870000Y-151835000D02*
X232070000Y-151835000D01*
X229870000Y-146615000D02*
X227670000Y-146615000D01*
X229870000Y-146615000D02*
X232070000Y-146615000D01*
%TO.C,C20*%
X231281248Y-153770000D02*
X231803752Y-153770000D01*
X231281248Y-152300000D02*
X231803752Y-152300000D01*
%TO.C,R41*%
X219810000Y-128767064D02*
X219810000Y-128312936D01*
X218340000Y-128767064D02*
X218340000Y-128312936D01*
%TO.C,R40*%
X179805000Y-152897064D02*
X179805000Y-152442936D01*
X178335000Y-152897064D02*
X178335000Y-152442936D01*
%TO.C,R39*%
X178335000Y-148362936D02*
X178335000Y-148817064D01*
X179805000Y-148362936D02*
X179805000Y-148817064D01*
%TO.C,R20*%
X171985000Y-147727936D02*
X171985000Y-148182064D01*
X173455000Y-147727936D02*
X173455000Y-148182064D01*
%TO.C,R4*%
X171222936Y-145515000D02*
X171677064Y-145515000D01*
X171222936Y-144045000D02*
X171677064Y-144045000D01*
%TO.C,Q11*%
X175135000Y-148900000D02*
X175135000Y-147970000D01*
X175135000Y-145740000D02*
X175135000Y-146670000D01*
X175135000Y-145740000D02*
X177295000Y-145740000D01*
X175135000Y-148900000D02*
X176595000Y-148900000D01*
%TO.C,Q3*%
X169240000Y-145140000D02*
X169240000Y-146740000D01*
X166040000Y-146740000D02*
X166040000Y-144440000D01*
%TO.C,U30*%
X234315000Y-98720000D02*
X232815000Y-98720000D01*
X235815000Y-101940000D02*
X232815000Y-101940000D01*
%TO.C,U21*%
X201930000Y-152690000D02*
X200080000Y-152690000D01*
X201930000Y-152690000D02*
X202680000Y-152690000D01*
X201930000Y-149570000D02*
X201180000Y-149570000D01*
X201930000Y-149570000D02*
X202680000Y-149570000D01*
%TO.C,U19*%
X216402500Y-141260000D02*
X214552500Y-141260000D01*
X216402500Y-141260000D02*
X217152500Y-141260000D01*
X216402500Y-138140000D02*
X215652500Y-138140000D01*
X216402500Y-138140000D02*
X217152500Y-138140000D01*
%TO.C,U18*%
X202565000Y-141260000D02*
X200715000Y-141260000D01*
X202565000Y-141260000D02*
X203315000Y-141260000D01*
X202565000Y-138140000D02*
X201815000Y-138140000D01*
X202565000Y-138140000D02*
X203315000Y-138140000D01*
%TO.C,U17*%
X216535000Y-147935000D02*
X218485000Y-147935000D01*
X216535000Y-147935000D02*
X214585000Y-147935000D01*
X216535000Y-153055000D02*
X218485000Y-153055000D01*
X216535000Y-153055000D02*
X213085000Y-153055000D01*
%TO.C,R24*%
X191997064Y-145950000D02*
X191542936Y-145950000D01*
X191997064Y-147420000D02*
X191542936Y-147420000D01*
%TO.C,R22*%
X193775000Y-127862064D02*
X193775000Y-127407936D01*
X192305000Y-127862064D02*
X192305000Y-127407936D01*
%TO.C,R21*%
X191997064Y-148490000D02*
X191542936Y-148490000D01*
X191997064Y-149960000D02*
X191542936Y-149960000D01*
%TO.C,R17*%
X205782936Y-152500000D02*
X206237064Y-152500000D01*
X205782936Y-151030000D02*
X206237064Y-151030000D01*
%TO.C,R14*%
X220387936Y-141070000D02*
X220842064Y-141070000D01*
X220387936Y-139600000D02*
X220842064Y-139600000D01*
%TO.C,R13*%
X206417936Y-141070000D02*
X206872064Y-141070000D01*
X206417936Y-139600000D02*
X206872064Y-139600000D01*
%TO.C,R5*%
X194845000Y-127407936D02*
X194845000Y-127862064D01*
X196315000Y-127407936D02*
X196315000Y-127862064D01*
%TO.C,R2*%
X222350000Y-151087064D02*
X222350000Y-150632936D01*
X220880000Y-151087064D02*
X220880000Y-150632936D01*
%TO.C,Q7*%
X210945000Y-148915000D02*
X210945000Y-149845000D01*
X210945000Y-152075000D02*
X210945000Y-151145000D01*
X210945000Y-152075000D02*
X208785000Y-152075000D01*
X210945000Y-148915000D02*
X209485000Y-148915000D01*
%TO.C,Q5*%
X225550000Y-137485000D02*
X225550000Y-138415000D01*
X225550000Y-140645000D02*
X225550000Y-139715000D01*
X225550000Y-140645000D02*
X223390000Y-140645000D01*
X225550000Y-137485000D02*
X224090000Y-137485000D01*
%TO.C,Q4*%
X211580000Y-137485000D02*
X211580000Y-138415000D01*
X211580000Y-140645000D02*
X211580000Y-139715000D01*
X211580000Y-140645000D02*
X209420000Y-140645000D01*
X211580000Y-137485000D02*
X210120000Y-137485000D01*
%TO.C,C18*%
X215293752Y-145950000D02*
X214771248Y-145950000D01*
X215293752Y-147420000D02*
X214771248Y-147420000D01*
%TO.C,C2*%
X203806248Y-113765000D02*
X204328752Y-113765000D01*
X203806248Y-112295000D02*
X204328752Y-112295000D01*
%TO.C,C1*%
X234808752Y-102770000D02*
X234286248Y-102770000D01*
X234808752Y-104240000D02*
X234286248Y-104240000D01*
%TO.C,R36*%
X194717936Y-116940000D02*
X195172064Y-116940000D01*
X194717936Y-115470000D02*
X195172064Y-115470000D01*
%TO.C,R35*%
X195172064Y-118010000D02*
X194717936Y-118010000D01*
X195172064Y-119480000D02*
X194717936Y-119480000D01*
%TO.C,U29*%
X176650000Y-135435000D02*
X176650000Y-136935000D01*
X176650000Y-136935000D02*
X174840000Y-136935000D01*
X174840000Y-136935000D02*
X174840000Y-142060000D01*
X166250000Y-135435000D02*
X166250000Y-136935000D01*
X166250000Y-136935000D02*
X168060000Y-136935000D01*
X168060000Y-136935000D02*
X168060000Y-138035000D01*
%TO.C,R23*%
X179932064Y-107850000D02*
X179477936Y-107850000D01*
X179932064Y-109320000D02*
X179477936Y-109320000D01*
%TO.C,R19*%
X179932064Y-105310000D02*
X179477936Y-105310000D01*
X179932064Y-106780000D02*
X179477936Y-106780000D01*
%TO.C,R9*%
X218540000Y-119607064D02*
X218540000Y-119152936D01*
X217070000Y-119607064D02*
X217070000Y-119152936D01*
%TO.C,R6*%
X218482936Y-116940000D02*
X218937064Y-116940000D01*
X218482936Y-115470000D02*
X218937064Y-115470000D01*
%TO.C,Q8*%
X222375000Y-117800000D02*
X222375000Y-118730000D01*
X222375000Y-120960000D02*
X222375000Y-120030000D01*
X222375000Y-120960000D02*
X220215000Y-120960000D01*
X222375000Y-117800000D02*
X220915000Y-117800000D01*
%TO.C,C9*%
X178928752Y-81815000D02*
X178406248Y-81815000D01*
X178928752Y-83285000D02*
X178406248Y-83285000D01*
%TO.C,U22*%
D11*
X210788095Y-79602380D02*
X210788095Y-80411904D01*
X210740476Y-80507142D01*
X210692857Y-80554761D01*
X210597619Y-80602380D01*
X210407142Y-80602380D01*
X210311904Y-80554761D01*
X210264285Y-80507142D01*
X210216666Y-80411904D01*
X210216666Y-79602380D01*
X209788095Y-79697619D02*
X209740476Y-79650000D01*
X209645238Y-79602380D01*
X209407142Y-79602380D01*
X209311904Y-79650000D01*
X209264285Y-79697619D01*
X209216666Y-79792857D01*
X209216666Y-79888095D01*
X209264285Y-80030952D01*
X209835714Y-80602380D01*
X209216666Y-80602380D01*
X208835714Y-79697619D02*
X208788095Y-79650000D01*
X208692857Y-79602380D01*
X208454761Y-79602380D01*
X208359523Y-79650000D01*
X208311904Y-79697619D01*
X208264285Y-79792857D01*
X208264285Y-79888095D01*
X208311904Y-80030952D01*
X208883333Y-80602380D01*
X208264285Y-80602380D01*
%TO.C,HS1*%
X161188095Y-144342380D02*
X161188095Y-143342380D01*
X161188095Y-143818571D02*
X160616666Y-143818571D01*
X160616666Y-144342380D02*
X160616666Y-143342380D01*
X160188095Y-144294761D02*
X160045238Y-144342380D01*
X159807142Y-144342380D01*
X159711904Y-144294761D01*
X159664285Y-144247142D01*
X159616666Y-144151904D01*
X159616666Y-144056666D01*
X159664285Y-143961428D01*
X159711904Y-143913809D01*
X159807142Y-143866190D01*
X159997619Y-143818571D01*
X160092857Y-143770952D01*
X160140476Y-143723333D01*
X160188095Y-143628095D01*
X160188095Y-143532857D01*
X160140476Y-143437619D01*
X160092857Y-143390000D01*
X159997619Y-143342380D01*
X159759523Y-143342380D01*
X159616666Y-143390000D01*
X158664285Y-144342380D02*
X159235714Y-144342380D01*
X158950000Y-144342380D02*
X158950000Y-143342380D01*
X159045238Y-143485238D01*
X159140476Y-143580476D01*
X159235714Y-143628095D01*
%TO.C,JP3*%
X227627380Y-156011666D02*
X228341666Y-156011666D01*
X228484523Y-155964047D01*
X228579761Y-155868809D01*
X228627380Y-155725952D01*
X228627380Y-155630714D01*
X228627380Y-156487857D02*
X227627380Y-156487857D01*
X227627380Y-156868809D01*
X227675000Y-156964047D01*
X227722619Y-157011666D01*
X227817857Y-157059285D01*
X227960714Y-157059285D01*
X228055952Y-157011666D01*
X228103571Y-156964047D01*
X228151190Y-156868809D01*
X228151190Y-156487857D01*
X227627380Y-157392619D02*
X227627380Y-158011666D01*
X228008333Y-157678333D01*
X228008333Y-157821190D01*
X228055952Y-157916428D01*
X228103571Y-157964047D01*
X228198809Y-158011666D01*
X228436904Y-158011666D01*
X228532142Y-157964047D01*
X228579761Y-157916428D01*
X228627380Y-157821190D01*
X228627380Y-157535476D01*
X228579761Y-157440238D01*
X228532142Y-157392619D01*
%TO.C,C22*%
X203440357Y-84587142D02*
X203487976Y-84634761D01*
X203630833Y-84682380D01*
X203726071Y-84682380D01*
X203868928Y-84634761D01*
X203964166Y-84539523D01*
X204011785Y-84444285D01*
X204059404Y-84253809D01*
X204059404Y-84110952D01*
X204011785Y-83920476D01*
X203964166Y-83825238D01*
X203868928Y-83730000D01*
X203726071Y-83682380D01*
X203630833Y-83682380D01*
X203487976Y-83730000D01*
X203440357Y-83777619D01*
X203059404Y-83777619D02*
X203011785Y-83730000D01*
X202916547Y-83682380D01*
X202678452Y-83682380D01*
X202583214Y-83730000D01*
X202535595Y-83777619D01*
X202487976Y-83872857D01*
X202487976Y-83968095D01*
X202535595Y-84110952D01*
X203107023Y-84682380D01*
X202487976Y-84682380D01*
X202107023Y-83777619D02*
X202059404Y-83730000D01*
X201964166Y-83682380D01*
X201726071Y-83682380D01*
X201630833Y-83730000D01*
X201583214Y-83777619D01*
X201535595Y-83872857D01*
X201535595Y-83968095D01*
X201583214Y-84110952D01*
X202154642Y-84682380D01*
X201535595Y-84682380D01*
%TO.C,R30*%
X187332857Y-140787380D02*
X187666190Y-140311190D01*
X187904285Y-140787380D02*
X187904285Y-139787380D01*
X187523333Y-139787380D01*
X187428095Y-139835000D01*
X187380476Y-139882619D01*
X187332857Y-139977857D01*
X187332857Y-140120714D01*
X187380476Y-140215952D01*
X187428095Y-140263571D01*
X187523333Y-140311190D01*
X187904285Y-140311190D01*
X186999523Y-139787380D02*
X186380476Y-139787380D01*
X186713809Y-140168333D01*
X186570952Y-140168333D01*
X186475714Y-140215952D01*
X186428095Y-140263571D01*
X186380476Y-140358809D01*
X186380476Y-140596904D01*
X186428095Y-140692142D01*
X186475714Y-140739761D01*
X186570952Y-140787380D01*
X186856666Y-140787380D01*
X186951904Y-140739761D01*
X186999523Y-140692142D01*
X185761428Y-139787380D02*
X185666190Y-139787380D01*
X185570952Y-139835000D01*
X185523333Y-139882619D01*
X185475714Y-139977857D01*
X185428095Y-140168333D01*
X185428095Y-140406428D01*
X185475714Y-140596904D01*
X185523333Y-140692142D01*
X185570952Y-140739761D01*
X185666190Y-140787380D01*
X185761428Y-140787380D01*
X185856666Y-140739761D01*
X185904285Y-140692142D01*
X185951904Y-140596904D01*
X185999523Y-140406428D01*
X185999523Y-140168333D01*
X185951904Y-139977857D01*
X185904285Y-139882619D01*
X185856666Y-139835000D01*
X185761428Y-139787380D01*
%TO.C,R29*%
X187332857Y-135072380D02*
X187666190Y-134596190D01*
X187904285Y-135072380D02*
X187904285Y-134072380D01*
X187523333Y-134072380D01*
X187428095Y-134120000D01*
X187380476Y-134167619D01*
X187332857Y-134262857D01*
X187332857Y-134405714D01*
X187380476Y-134500952D01*
X187428095Y-134548571D01*
X187523333Y-134596190D01*
X187904285Y-134596190D01*
X186951904Y-134167619D02*
X186904285Y-134120000D01*
X186809047Y-134072380D01*
X186570952Y-134072380D01*
X186475714Y-134120000D01*
X186428095Y-134167619D01*
X186380476Y-134262857D01*
X186380476Y-134358095D01*
X186428095Y-134500952D01*
X186999523Y-135072380D01*
X186380476Y-135072380D01*
X185904285Y-135072380D02*
X185713809Y-135072380D01*
X185618571Y-135024761D01*
X185570952Y-134977142D01*
X185475714Y-134834285D01*
X185428095Y-134643809D01*
X185428095Y-134262857D01*
X185475714Y-134167619D01*
X185523333Y-134120000D01*
X185618571Y-134072380D01*
X185809047Y-134072380D01*
X185904285Y-134120000D01*
X185951904Y-134167619D01*
X185999523Y-134262857D01*
X185999523Y-134500952D01*
X185951904Y-134596190D01*
X185904285Y-134643809D01*
X185809047Y-134691428D01*
X185618571Y-134691428D01*
X185523333Y-134643809D01*
X185475714Y-134596190D01*
X185428095Y-134500952D01*
%TO.C,U4*%
X228726904Y-152127380D02*
X228726904Y-152936904D01*
X228679285Y-153032142D01*
X228631666Y-153079761D01*
X228536428Y-153127380D01*
X228345952Y-153127380D01*
X228250714Y-153079761D01*
X228203095Y-153032142D01*
X228155476Y-152936904D01*
X228155476Y-152127380D01*
X227250714Y-152460714D02*
X227250714Y-153127380D01*
X227488809Y-152079761D02*
X227726904Y-152794047D01*
X227107857Y-152794047D01*
%TO.C,C20*%
X232185357Y-155072142D02*
X232232976Y-155119761D01*
X232375833Y-155167380D01*
X232471071Y-155167380D01*
X232613928Y-155119761D01*
X232709166Y-155024523D01*
X232756785Y-154929285D01*
X232804404Y-154738809D01*
X232804404Y-154595952D01*
X232756785Y-154405476D01*
X232709166Y-154310238D01*
X232613928Y-154215000D01*
X232471071Y-154167380D01*
X232375833Y-154167380D01*
X232232976Y-154215000D01*
X232185357Y-154262619D01*
X231804404Y-154262619D02*
X231756785Y-154215000D01*
X231661547Y-154167380D01*
X231423452Y-154167380D01*
X231328214Y-154215000D01*
X231280595Y-154262619D01*
X231232976Y-154357857D01*
X231232976Y-154453095D01*
X231280595Y-154595952D01*
X231852023Y-155167380D01*
X231232976Y-155167380D01*
X230613928Y-154167380D02*
X230518690Y-154167380D01*
X230423452Y-154215000D01*
X230375833Y-154262619D01*
X230328214Y-154357857D01*
X230280595Y-154548333D01*
X230280595Y-154786428D01*
X230328214Y-154976904D01*
X230375833Y-155072142D01*
X230423452Y-155119761D01*
X230518690Y-155167380D01*
X230613928Y-155167380D01*
X230709166Y-155119761D01*
X230756785Y-155072142D01*
X230804404Y-154976904D01*
X230852023Y-154786428D01*
X230852023Y-154548333D01*
X230804404Y-154357857D01*
X230756785Y-154262619D01*
X230709166Y-154215000D01*
X230613928Y-154167380D01*
%TO.C,R41*%
X221177380Y-127897142D02*
X220701190Y-127563809D01*
X221177380Y-127325714D02*
X220177380Y-127325714D01*
X220177380Y-127706666D01*
X220225000Y-127801904D01*
X220272619Y-127849523D01*
X220367857Y-127897142D01*
X220510714Y-127897142D01*
X220605952Y-127849523D01*
X220653571Y-127801904D01*
X220701190Y-127706666D01*
X220701190Y-127325714D01*
X220510714Y-128754285D02*
X221177380Y-128754285D01*
X220129761Y-128516190D02*
X220844047Y-128278095D01*
X220844047Y-128897142D01*
X221177380Y-129801904D02*
X221177380Y-129230476D01*
X221177380Y-129516190D02*
X220177380Y-129516190D01*
X220320238Y-129420952D01*
X220415476Y-129325714D01*
X220463095Y-129230476D01*
%TO.C,R40*%
X181172380Y-152027142D02*
X180696190Y-151693809D01*
X181172380Y-151455714D02*
X180172380Y-151455714D01*
X180172380Y-151836666D01*
X180220000Y-151931904D01*
X180267619Y-151979523D01*
X180362857Y-152027142D01*
X180505714Y-152027142D01*
X180600952Y-151979523D01*
X180648571Y-151931904D01*
X180696190Y-151836666D01*
X180696190Y-151455714D01*
X180505714Y-152884285D02*
X181172380Y-152884285D01*
X180124761Y-152646190D02*
X180839047Y-152408095D01*
X180839047Y-153027142D01*
X180172380Y-153598571D02*
X180172380Y-153693809D01*
X180220000Y-153789047D01*
X180267619Y-153836666D01*
X180362857Y-153884285D01*
X180553333Y-153931904D01*
X180791428Y-153931904D01*
X180981904Y-153884285D01*
X181077142Y-153836666D01*
X181124761Y-153789047D01*
X181172380Y-153693809D01*
X181172380Y-153598571D01*
X181124761Y-153503333D01*
X181077142Y-153455714D01*
X180981904Y-153408095D01*
X180791428Y-153360476D01*
X180553333Y-153360476D01*
X180362857Y-153408095D01*
X180267619Y-153455714D01*
X180220000Y-153503333D01*
X180172380Y-153598571D01*
%TO.C,R39*%
X180347857Y-146502380D02*
X180681190Y-146026190D01*
X180919285Y-146502380D02*
X180919285Y-145502380D01*
X180538333Y-145502380D01*
X180443095Y-145550000D01*
X180395476Y-145597619D01*
X180347857Y-145692857D01*
X180347857Y-145835714D01*
X180395476Y-145930952D01*
X180443095Y-145978571D01*
X180538333Y-146026190D01*
X180919285Y-146026190D01*
X180014523Y-145502380D02*
X179395476Y-145502380D01*
X179728809Y-145883333D01*
X179585952Y-145883333D01*
X179490714Y-145930952D01*
X179443095Y-145978571D01*
X179395476Y-146073809D01*
X179395476Y-146311904D01*
X179443095Y-146407142D01*
X179490714Y-146454761D01*
X179585952Y-146502380D01*
X179871666Y-146502380D01*
X179966904Y-146454761D01*
X180014523Y-146407142D01*
X178919285Y-146502380D02*
X178728809Y-146502380D01*
X178633571Y-146454761D01*
X178585952Y-146407142D01*
X178490714Y-146264285D01*
X178443095Y-146073809D01*
X178443095Y-145692857D01*
X178490714Y-145597619D01*
X178538333Y-145550000D01*
X178633571Y-145502380D01*
X178824047Y-145502380D01*
X178919285Y-145550000D01*
X178966904Y-145597619D01*
X179014523Y-145692857D01*
X179014523Y-145930952D01*
X178966904Y-146026190D01*
X178919285Y-146073809D01*
X178824047Y-146121428D01*
X178633571Y-146121428D01*
X178538333Y-146073809D01*
X178490714Y-146026190D01*
X178443095Y-145930952D01*
%TO.C,R20*%
X173362857Y-150947380D02*
X173696190Y-150471190D01*
X173934285Y-150947380D02*
X173934285Y-149947380D01*
X173553333Y-149947380D01*
X173458095Y-149995000D01*
X173410476Y-150042619D01*
X173362857Y-150137857D01*
X173362857Y-150280714D01*
X173410476Y-150375952D01*
X173458095Y-150423571D01*
X173553333Y-150471190D01*
X173934285Y-150471190D01*
X172981904Y-150042619D02*
X172934285Y-149995000D01*
X172839047Y-149947380D01*
X172600952Y-149947380D01*
X172505714Y-149995000D01*
X172458095Y-150042619D01*
X172410476Y-150137857D01*
X172410476Y-150233095D01*
X172458095Y-150375952D01*
X173029523Y-150947380D01*
X172410476Y-150947380D01*
X171791428Y-149947380D02*
X171696190Y-149947380D01*
X171600952Y-149995000D01*
X171553333Y-150042619D01*
X171505714Y-150137857D01*
X171458095Y-150328333D01*
X171458095Y-150566428D01*
X171505714Y-150756904D01*
X171553333Y-150852142D01*
X171600952Y-150899761D01*
X171696190Y-150947380D01*
X171791428Y-150947380D01*
X171886666Y-150899761D01*
X171934285Y-150852142D01*
X171981904Y-150756904D01*
X172029523Y-150566428D01*
X172029523Y-150328333D01*
X171981904Y-150137857D01*
X171934285Y-150042619D01*
X171886666Y-149995000D01*
X171791428Y-149947380D01*
%TO.C,R4*%
X171616666Y-143327380D02*
X171950000Y-142851190D01*
X172188095Y-143327380D02*
X172188095Y-142327380D01*
X171807142Y-142327380D01*
X171711904Y-142375000D01*
X171664285Y-142422619D01*
X171616666Y-142517857D01*
X171616666Y-142660714D01*
X171664285Y-142755952D01*
X171711904Y-142803571D01*
X171807142Y-142851190D01*
X172188095Y-142851190D01*
X170759523Y-142660714D02*
X170759523Y-143327380D01*
X170997619Y-142279761D02*
X171235714Y-142994047D01*
X170616666Y-142994047D01*
%TO.C,Q11*%
X176466428Y-145367619D02*
X176561666Y-145320000D01*
X176656904Y-145224761D01*
X176799761Y-145081904D01*
X176895000Y-145034285D01*
X176990238Y-145034285D01*
X176942619Y-145272380D02*
X177037857Y-145224761D01*
X177133095Y-145129523D01*
X177180714Y-144939047D01*
X177180714Y-144605714D01*
X177133095Y-144415238D01*
X177037857Y-144320000D01*
X176942619Y-144272380D01*
X176752142Y-144272380D01*
X176656904Y-144320000D01*
X176561666Y-144415238D01*
X176514047Y-144605714D01*
X176514047Y-144939047D01*
X176561666Y-145129523D01*
X176656904Y-145224761D01*
X176752142Y-145272380D01*
X176942619Y-145272380D01*
X175561666Y-145272380D02*
X176133095Y-145272380D01*
X175847380Y-145272380D02*
X175847380Y-144272380D01*
X175942619Y-144415238D01*
X176037857Y-144510476D01*
X176133095Y-144558095D01*
X174609285Y-145272380D02*
X175180714Y-145272380D01*
X174895000Y-145272380D02*
X174895000Y-144272380D01*
X174990238Y-144415238D01*
X175085476Y-144510476D01*
X175180714Y-144558095D01*
%TO.C,Q3*%
X165737619Y-145844761D02*
X165690000Y-145749523D01*
X165594761Y-145654285D01*
X165451904Y-145511428D01*
X165404285Y-145416190D01*
X165404285Y-145320952D01*
X165642380Y-145368571D02*
X165594761Y-145273333D01*
X165499523Y-145178095D01*
X165309047Y-145130476D01*
X164975714Y-145130476D01*
X164785238Y-145178095D01*
X164690000Y-145273333D01*
X164642380Y-145368571D01*
X164642380Y-145559047D01*
X164690000Y-145654285D01*
X164785238Y-145749523D01*
X164975714Y-145797142D01*
X165309047Y-145797142D01*
X165499523Y-145749523D01*
X165594761Y-145654285D01*
X165642380Y-145559047D01*
X165642380Y-145368571D01*
X164642380Y-146130476D02*
X164642380Y-146749523D01*
X165023333Y-146416190D01*
X165023333Y-146559047D01*
X165070952Y-146654285D01*
X165118571Y-146701904D01*
X165213809Y-146749523D01*
X165451904Y-146749523D01*
X165547142Y-146701904D01*
X165594761Y-146654285D01*
X165642380Y-146559047D01*
X165642380Y-146273333D01*
X165594761Y-146178095D01*
X165547142Y-146130476D01*
%TO.C,U30*%
X235553095Y-97332380D02*
X235553095Y-98141904D01*
X235505476Y-98237142D01*
X235457857Y-98284761D01*
X235362619Y-98332380D01*
X235172142Y-98332380D01*
X235076904Y-98284761D01*
X235029285Y-98237142D01*
X234981666Y-98141904D01*
X234981666Y-97332380D01*
X234600714Y-97332380D02*
X233981666Y-97332380D01*
X234315000Y-97713333D01*
X234172142Y-97713333D01*
X234076904Y-97760952D01*
X234029285Y-97808571D01*
X233981666Y-97903809D01*
X233981666Y-98141904D01*
X234029285Y-98237142D01*
X234076904Y-98284761D01*
X234172142Y-98332380D01*
X234457857Y-98332380D01*
X234553095Y-98284761D01*
X234600714Y-98237142D01*
X233362619Y-97332380D02*
X233267380Y-97332380D01*
X233172142Y-97380000D01*
X233124523Y-97427619D01*
X233076904Y-97522857D01*
X233029285Y-97713333D01*
X233029285Y-97951428D01*
X233076904Y-98141904D01*
X233124523Y-98237142D01*
X233172142Y-98284761D01*
X233267380Y-98332380D01*
X233362619Y-98332380D01*
X233457857Y-98284761D01*
X233505476Y-98237142D01*
X233553095Y-98141904D01*
X233600714Y-97951428D01*
X233600714Y-97713333D01*
X233553095Y-97522857D01*
X233505476Y-97427619D01*
X233457857Y-97380000D01*
X233362619Y-97332380D01*
%TO.C,U21*%
X203168095Y-148042380D02*
X203168095Y-148851904D01*
X203120476Y-148947142D01*
X203072857Y-148994761D01*
X202977619Y-149042380D01*
X202787142Y-149042380D01*
X202691904Y-148994761D01*
X202644285Y-148947142D01*
X202596666Y-148851904D01*
X202596666Y-148042380D01*
X202168095Y-148137619D02*
X202120476Y-148090000D01*
X202025238Y-148042380D01*
X201787142Y-148042380D01*
X201691904Y-148090000D01*
X201644285Y-148137619D01*
X201596666Y-148232857D01*
X201596666Y-148328095D01*
X201644285Y-148470952D01*
X202215714Y-149042380D01*
X201596666Y-149042380D01*
X200644285Y-149042380D02*
X201215714Y-149042380D01*
X200930000Y-149042380D02*
X200930000Y-148042380D01*
X201025238Y-148185238D01*
X201120476Y-148280476D01*
X201215714Y-148328095D01*
%TO.C,U19*%
X217640595Y-141552380D02*
X217640595Y-142361904D01*
X217592976Y-142457142D01*
X217545357Y-142504761D01*
X217450119Y-142552380D01*
X217259642Y-142552380D01*
X217164404Y-142504761D01*
X217116785Y-142457142D01*
X217069166Y-142361904D01*
X217069166Y-141552380D01*
X216069166Y-142552380D02*
X216640595Y-142552380D01*
X216354880Y-142552380D02*
X216354880Y-141552380D01*
X216450119Y-141695238D01*
X216545357Y-141790476D01*
X216640595Y-141838095D01*
X215592976Y-142552380D02*
X215402500Y-142552380D01*
X215307261Y-142504761D01*
X215259642Y-142457142D01*
X215164404Y-142314285D01*
X215116785Y-142123809D01*
X215116785Y-141742857D01*
X215164404Y-141647619D01*
X215212023Y-141600000D01*
X215307261Y-141552380D01*
X215497738Y-141552380D01*
X215592976Y-141600000D01*
X215640595Y-141647619D01*
X215688214Y-141742857D01*
X215688214Y-141980952D01*
X215640595Y-142076190D01*
X215592976Y-142123809D01*
X215497738Y-142171428D01*
X215307261Y-142171428D01*
X215212023Y-142123809D01*
X215164404Y-142076190D01*
X215116785Y-141980952D01*
%TO.C,U18*%
X203803095Y-136612380D02*
X203803095Y-137421904D01*
X203755476Y-137517142D01*
X203707857Y-137564761D01*
X203612619Y-137612380D01*
X203422142Y-137612380D01*
X203326904Y-137564761D01*
X203279285Y-137517142D01*
X203231666Y-137421904D01*
X203231666Y-136612380D01*
X202231666Y-137612380D02*
X202803095Y-137612380D01*
X202517380Y-137612380D02*
X202517380Y-136612380D01*
X202612619Y-136755238D01*
X202707857Y-136850476D01*
X202803095Y-136898095D01*
X201660238Y-137040952D02*
X201755476Y-136993333D01*
X201803095Y-136945714D01*
X201850714Y-136850476D01*
X201850714Y-136802857D01*
X201803095Y-136707619D01*
X201755476Y-136660000D01*
X201660238Y-136612380D01*
X201469761Y-136612380D01*
X201374523Y-136660000D01*
X201326904Y-136707619D01*
X201279285Y-136802857D01*
X201279285Y-136850476D01*
X201326904Y-136945714D01*
X201374523Y-136993333D01*
X201469761Y-137040952D01*
X201660238Y-137040952D01*
X201755476Y-137088571D01*
X201803095Y-137136190D01*
X201850714Y-137231428D01*
X201850714Y-137421904D01*
X201803095Y-137517142D01*
X201755476Y-137564761D01*
X201660238Y-137612380D01*
X201469761Y-137612380D01*
X201374523Y-137564761D01*
X201326904Y-137517142D01*
X201279285Y-137421904D01*
X201279285Y-137231428D01*
X201326904Y-137136190D01*
X201374523Y-137088571D01*
X201469761Y-137040952D01*
%TO.C,U17*%
X216503095Y-153122380D02*
X216503095Y-153931904D01*
X216455476Y-154027142D01*
X216407857Y-154074761D01*
X216312619Y-154122380D01*
X216122142Y-154122380D01*
X216026904Y-154074761D01*
X215979285Y-154027142D01*
X215931666Y-153931904D01*
X215931666Y-153122380D01*
X214931666Y-154122380D02*
X215503095Y-154122380D01*
X215217380Y-154122380D02*
X215217380Y-153122380D01*
X215312619Y-153265238D01*
X215407857Y-153360476D01*
X215503095Y-153408095D01*
X214598333Y-153122380D02*
X213931666Y-153122380D01*
X214360238Y-154122380D01*
%TO.C,R24*%
X192412857Y-145487380D02*
X192746190Y-145011190D01*
X192984285Y-145487380D02*
X192984285Y-144487380D01*
X192603333Y-144487380D01*
X192508095Y-144535000D01*
X192460476Y-144582619D01*
X192412857Y-144677857D01*
X192412857Y-144820714D01*
X192460476Y-144915952D01*
X192508095Y-144963571D01*
X192603333Y-145011190D01*
X192984285Y-145011190D01*
X192031904Y-144582619D02*
X191984285Y-144535000D01*
X191889047Y-144487380D01*
X191650952Y-144487380D01*
X191555714Y-144535000D01*
X191508095Y-144582619D01*
X191460476Y-144677857D01*
X191460476Y-144773095D01*
X191508095Y-144915952D01*
X192079523Y-145487380D01*
X191460476Y-145487380D01*
X190603333Y-144820714D02*
X190603333Y-145487380D01*
X190841428Y-144439761D02*
X191079523Y-145154047D01*
X190460476Y-145154047D01*
%TO.C,R22*%
X196032380Y-130167142D02*
X195556190Y-129833809D01*
X196032380Y-129595714D02*
X195032380Y-129595714D01*
X195032380Y-129976666D01*
X195080000Y-130071904D01*
X195127619Y-130119523D01*
X195222857Y-130167142D01*
X195365714Y-130167142D01*
X195460952Y-130119523D01*
X195508571Y-130071904D01*
X195556190Y-129976666D01*
X195556190Y-129595714D01*
X195127619Y-130548095D02*
X195080000Y-130595714D01*
X195032380Y-130690952D01*
X195032380Y-130929047D01*
X195080000Y-131024285D01*
X195127619Y-131071904D01*
X195222857Y-131119523D01*
X195318095Y-131119523D01*
X195460952Y-131071904D01*
X196032380Y-130500476D01*
X196032380Y-131119523D01*
X195127619Y-131500476D02*
X195080000Y-131548095D01*
X195032380Y-131643333D01*
X195032380Y-131881428D01*
X195080000Y-131976666D01*
X195127619Y-132024285D01*
X195222857Y-132071904D01*
X195318095Y-132071904D01*
X195460952Y-132024285D01*
X196032380Y-131452857D01*
X196032380Y-132071904D01*
%TO.C,R21*%
X192412857Y-151582380D02*
X192746190Y-151106190D01*
X192984285Y-151582380D02*
X192984285Y-150582380D01*
X192603333Y-150582380D01*
X192508095Y-150630000D01*
X192460476Y-150677619D01*
X192412857Y-150772857D01*
X192412857Y-150915714D01*
X192460476Y-151010952D01*
X192508095Y-151058571D01*
X192603333Y-151106190D01*
X192984285Y-151106190D01*
X192031904Y-150677619D02*
X191984285Y-150630000D01*
X191889047Y-150582380D01*
X191650952Y-150582380D01*
X191555714Y-150630000D01*
X191508095Y-150677619D01*
X191460476Y-150772857D01*
X191460476Y-150868095D01*
X191508095Y-151010952D01*
X192079523Y-151582380D01*
X191460476Y-151582380D01*
X190508095Y-151582380D02*
X191079523Y-151582380D01*
X190793809Y-151582380D02*
X190793809Y-150582380D01*
X190889047Y-150725238D01*
X190984285Y-150820476D01*
X191079523Y-150868095D01*
%TO.C,R17*%
X206652857Y-150312380D02*
X206986190Y-149836190D01*
X207224285Y-150312380D02*
X207224285Y-149312380D01*
X206843333Y-149312380D01*
X206748095Y-149360000D01*
X206700476Y-149407619D01*
X206652857Y-149502857D01*
X206652857Y-149645714D01*
X206700476Y-149740952D01*
X206748095Y-149788571D01*
X206843333Y-149836190D01*
X207224285Y-149836190D01*
X205700476Y-150312380D02*
X206271904Y-150312380D01*
X205986190Y-150312380D02*
X205986190Y-149312380D01*
X206081428Y-149455238D01*
X206176666Y-149550476D01*
X206271904Y-149598095D01*
X205367142Y-149312380D02*
X204700476Y-149312380D01*
X205129047Y-150312380D01*
%TO.C,R14*%
X221257857Y-142437380D02*
X221591190Y-141961190D01*
X221829285Y-142437380D02*
X221829285Y-141437380D01*
X221448333Y-141437380D01*
X221353095Y-141485000D01*
X221305476Y-141532619D01*
X221257857Y-141627857D01*
X221257857Y-141770714D01*
X221305476Y-141865952D01*
X221353095Y-141913571D01*
X221448333Y-141961190D01*
X221829285Y-141961190D01*
X220305476Y-142437380D02*
X220876904Y-142437380D01*
X220591190Y-142437380D02*
X220591190Y-141437380D01*
X220686428Y-141580238D01*
X220781666Y-141675476D01*
X220876904Y-141723095D01*
X219448333Y-141770714D02*
X219448333Y-142437380D01*
X219686428Y-141389761D02*
X219924523Y-142104047D01*
X219305476Y-142104047D01*
%TO.C,R13*%
X207287857Y-138882380D02*
X207621190Y-138406190D01*
X207859285Y-138882380D02*
X207859285Y-137882380D01*
X207478333Y-137882380D01*
X207383095Y-137930000D01*
X207335476Y-137977619D01*
X207287857Y-138072857D01*
X207287857Y-138215714D01*
X207335476Y-138310952D01*
X207383095Y-138358571D01*
X207478333Y-138406190D01*
X207859285Y-138406190D01*
X206335476Y-138882380D02*
X206906904Y-138882380D01*
X206621190Y-138882380D02*
X206621190Y-137882380D01*
X206716428Y-138025238D01*
X206811666Y-138120476D01*
X206906904Y-138168095D01*
X206002142Y-137882380D02*
X205383095Y-137882380D01*
X205716428Y-138263333D01*
X205573571Y-138263333D01*
X205478333Y-138310952D01*
X205430714Y-138358571D01*
X205383095Y-138453809D01*
X205383095Y-138691904D01*
X205430714Y-138787142D01*
X205478333Y-138834761D01*
X205573571Y-138882380D01*
X205859285Y-138882380D01*
X205954523Y-138834761D01*
X206002142Y-138787142D01*
%TO.C,R5*%
X193492380Y-130643333D02*
X193016190Y-130310000D01*
X193492380Y-130071904D02*
X192492380Y-130071904D01*
X192492380Y-130452857D01*
X192540000Y-130548095D01*
X192587619Y-130595714D01*
X192682857Y-130643333D01*
X192825714Y-130643333D01*
X192920952Y-130595714D01*
X192968571Y-130548095D01*
X193016190Y-130452857D01*
X193016190Y-130071904D01*
X192492380Y-131548095D02*
X192492380Y-131071904D01*
X192968571Y-131024285D01*
X192920952Y-131071904D01*
X192873333Y-131167142D01*
X192873333Y-131405238D01*
X192920952Y-131500476D01*
X192968571Y-131548095D01*
X193063809Y-131595714D01*
X193301904Y-131595714D01*
X193397142Y-131548095D01*
X193444761Y-131500476D01*
X193492380Y-131405238D01*
X193492380Y-131167142D01*
X193444761Y-131071904D01*
X193397142Y-131024285D01*
%TO.C,R2*%
X223717380Y-150693333D02*
X223241190Y-150360000D01*
X223717380Y-150121904D02*
X222717380Y-150121904D01*
X222717380Y-150502857D01*
X222765000Y-150598095D01*
X222812619Y-150645714D01*
X222907857Y-150693333D01*
X223050714Y-150693333D01*
X223145952Y-150645714D01*
X223193571Y-150598095D01*
X223241190Y-150502857D01*
X223241190Y-150121904D01*
X222812619Y-151074285D02*
X222765000Y-151121904D01*
X222717380Y-151217142D01*
X222717380Y-151455238D01*
X222765000Y-151550476D01*
X222812619Y-151598095D01*
X222907857Y-151645714D01*
X223003095Y-151645714D01*
X223145952Y-151598095D01*
X223717380Y-151026666D01*
X223717380Y-151645714D01*
%TO.C,Q7*%
X210280238Y-148502619D02*
X210375476Y-148455000D01*
X210470714Y-148359761D01*
X210613571Y-148216904D01*
X210708809Y-148169285D01*
X210804047Y-148169285D01*
X210756428Y-148407380D02*
X210851666Y-148359761D01*
X210946904Y-148264523D01*
X210994523Y-148074047D01*
X210994523Y-147740714D01*
X210946904Y-147550238D01*
X210851666Y-147455000D01*
X210756428Y-147407380D01*
X210565952Y-147407380D01*
X210470714Y-147455000D01*
X210375476Y-147550238D01*
X210327857Y-147740714D01*
X210327857Y-148074047D01*
X210375476Y-148264523D01*
X210470714Y-148359761D01*
X210565952Y-148407380D01*
X210756428Y-148407380D01*
X209994523Y-147407380D02*
X209327857Y-147407380D01*
X209756428Y-148407380D01*
%TO.C,Q5*%
X224885238Y-142112619D02*
X224980476Y-142065000D01*
X225075714Y-141969761D01*
X225218571Y-141826904D01*
X225313809Y-141779285D01*
X225409047Y-141779285D01*
X225361428Y-142017380D02*
X225456666Y-141969761D01*
X225551904Y-141874523D01*
X225599523Y-141684047D01*
X225599523Y-141350714D01*
X225551904Y-141160238D01*
X225456666Y-141065000D01*
X225361428Y-141017380D01*
X225170952Y-141017380D01*
X225075714Y-141065000D01*
X224980476Y-141160238D01*
X224932857Y-141350714D01*
X224932857Y-141684047D01*
X224980476Y-141874523D01*
X225075714Y-141969761D01*
X225170952Y-142017380D01*
X225361428Y-142017380D01*
X224028095Y-141017380D02*
X224504285Y-141017380D01*
X224551904Y-141493571D01*
X224504285Y-141445952D01*
X224409047Y-141398333D01*
X224170952Y-141398333D01*
X224075714Y-141445952D01*
X224028095Y-141493571D01*
X223980476Y-141588809D01*
X223980476Y-141826904D01*
X224028095Y-141922142D01*
X224075714Y-141969761D01*
X224170952Y-142017380D01*
X224409047Y-142017380D01*
X224504285Y-141969761D01*
X224551904Y-141922142D01*
%TO.C,Q4*%
X210915238Y-137072619D02*
X211010476Y-137025000D01*
X211105714Y-136929761D01*
X211248571Y-136786904D01*
X211343809Y-136739285D01*
X211439047Y-136739285D01*
X211391428Y-136977380D02*
X211486666Y-136929761D01*
X211581904Y-136834523D01*
X211629523Y-136644047D01*
X211629523Y-136310714D01*
X211581904Y-136120238D01*
X211486666Y-136025000D01*
X211391428Y-135977380D01*
X211200952Y-135977380D01*
X211105714Y-136025000D01*
X211010476Y-136120238D01*
X210962857Y-136310714D01*
X210962857Y-136644047D01*
X211010476Y-136834523D01*
X211105714Y-136929761D01*
X211200952Y-136977380D01*
X211391428Y-136977380D01*
X210105714Y-136310714D02*
X210105714Y-136977380D01*
X210343809Y-135929761D02*
X210581904Y-136644047D01*
X209962857Y-136644047D01*
%TO.C,C18*%
X215675357Y-145362142D02*
X215722976Y-145409761D01*
X215865833Y-145457380D01*
X215961071Y-145457380D01*
X216103928Y-145409761D01*
X216199166Y-145314523D01*
X216246785Y-145219285D01*
X216294404Y-145028809D01*
X216294404Y-144885952D01*
X216246785Y-144695476D01*
X216199166Y-144600238D01*
X216103928Y-144505000D01*
X215961071Y-144457380D01*
X215865833Y-144457380D01*
X215722976Y-144505000D01*
X215675357Y-144552619D01*
X214722976Y-145457380D02*
X215294404Y-145457380D01*
X215008690Y-145457380D02*
X215008690Y-144457380D01*
X215103928Y-144600238D01*
X215199166Y-144695476D01*
X215294404Y-144743095D01*
X214151547Y-144885952D02*
X214246785Y-144838333D01*
X214294404Y-144790714D01*
X214342023Y-144695476D01*
X214342023Y-144647857D01*
X214294404Y-144552619D01*
X214246785Y-144505000D01*
X214151547Y-144457380D01*
X213961071Y-144457380D01*
X213865833Y-144505000D01*
X213818214Y-144552619D01*
X213770595Y-144647857D01*
X213770595Y-144695476D01*
X213818214Y-144790714D01*
X213865833Y-144838333D01*
X213961071Y-144885952D01*
X214151547Y-144885952D01*
X214246785Y-144933571D01*
X214294404Y-144981190D01*
X214342023Y-145076428D01*
X214342023Y-145266904D01*
X214294404Y-145362142D01*
X214246785Y-145409761D01*
X214151547Y-145457380D01*
X213961071Y-145457380D01*
X213865833Y-145409761D01*
X213818214Y-145362142D01*
X213770595Y-145266904D01*
X213770595Y-145076428D01*
X213818214Y-144981190D01*
X213865833Y-144933571D01*
X213961071Y-144885952D01*
%TO.C,C2*%
X204234166Y-115067142D02*
X204281785Y-115114761D01*
X204424642Y-115162380D01*
X204519880Y-115162380D01*
X204662738Y-115114761D01*
X204757976Y-115019523D01*
X204805595Y-114924285D01*
X204853214Y-114733809D01*
X204853214Y-114590952D01*
X204805595Y-114400476D01*
X204757976Y-114305238D01*
X204662738Y-114210000D01*
X204519880Y-114162380D01*
X204424642Y-114162380D01*
X204281785Y-114210000D01*
X204234166Y-114257619D01*
X203853214Y-114257619D02*
X203805595Y-114210000D01*
X203710357Y-114162380D01*
X203472261Y-114162380D01*
X203377023Y-114210000D01*
X203329404Y-114257619D01*
X203281785Y-114352857D01*
X203281785Y-114448095D01*
X203329404Y-114590952D01*
X203900833Y-115162380D01*
X203281785Y-115162380D01*
%TO.C,C1*%
X234714166Y-105767142D02*
X234761785Y-105814761D01*
X234904642Y-105862380D01*
X234999880Y-105862380D01*
X235142738Y-105814761D01*
X235237976Y-105719523D01*
X235285595Y-105624285D01*
X235333214Y-105433809D01*
X235333214Y-105290952D01*
X235285595Y-105100476D01*
X235237976Y-105005238D01*
X235142738Y-104910000D01*
X234999880Y-104862380D01*
X234904642Y-104862380D01*
X234761785Y-104910000D01*
X234714166Y-104957619D01*
X233761785Y-105862380D02*
X234333214Y-105862380D01*
X234047500Y-105862380D02*
X234047500Y-104862380D01*
X234142738Y-105005238D01*
X234237976Y-105100476D01*
X234333214Y-105148095D01*
%TO.C,R36*%
X195587857Y-121102380D02*
X195921190Y-120626190D01*
X196159285Y-121102380D02*
X196159285Y-120102380D01*
X195778333Y-120102380D01*
X195683095Y-120150000D01*
X195635476Y-120197619D01*
X195587857Y-120292857D01*
X195587857Y-120435714D01*
X195635476Y-120530952D01*
X195683095Y-120578571D01*
X195778333Y-120626190D01*
X196159285Y-120626190D01*
X195254523Y-120102380D02*
X194635476Y-120102380D01*
X194968809Y-120483333D01*
X194825952Y-120483333D01*
X194730714Y-120530952D01*
X194683095Y-120578571D01*
X194635476Y-120673809D01*
X194635476Y-120911904D01*
X194683095Y-121007142D01*
X194730714Y-121054761D01*
X194825952Y-121102380D01*
X195111666Y-121102380D01*
X195206904Y-121054761D01*
X195254523Y-121007142D01*
X193778333Y-120102380D02*
X193968809Y-120102380D01*
X194064047Y-120150000D01*
X194111666Y-120197619D01*
X194206904Y-120340476D01*
X194254523Y-120530952D01*
X194254523Y-120911904D01*
X194206904Y-121007142D01*
X194159285Y-121054761D01*
X194064047Y-121102380D01*
X193873571Y-121102380D01*
X193778333Y-121054761D01*
X193730714Y-121007142D01*
X193683095Y-120911904D01*
X193683095Y-120673809D01*
X193730714Y-120578571D01*
X193778333Y-120530952D01*
X193873571Y-120483333D01*
X194064047Y-120483333D01*
X194159285Y-120530952D01*
X194206904Y-120578571D01*
X194254523Y-120673809D01*
%TO.C,R35*%
X195587857Y-114752380D02*
X195921190Y-114276190D01*
X196159285Y-114752380D02*
X196159285Y-113752380D01*
X195778333Y-113752380D01*
X195683095Y-113800000D01*
X195635476Y-113847619D01*
X195587857Y-113942857D01*
X195587857Y-114085714D01*
X195635476Y-114180952D01*
X195683095Y-114228571D01*
X195778333Y-114276190D01*
X196159285Y-114276190D01*
X195254523Y-113752380D02*
X194635476Y-113752380D01*
X194968809Y-114133333D01*
X194825952Y-114133333D01*
X194730714Y-114180952D01*
X194683095Y-114228571D01*
X194635476Y-114323809D01*
X194635476Y-114561904D01*
X194683095Y-114657142D01*
X194730714Y-114704761D01*
X194825952Y-114752380D01*
X195111666Y-114752380D01*
X195206904Y-114704761D01*
X195254523Y-114657142D01*
X193730714Y-113752380D02*
X194206904Y-113752380D01*
X194254523Y-114228571D01*
X194206904Y-114180952D01*
X194111666Y-114133333D01*
X193873571Y-114133333D01*
X193778333Y-114180952D01*
X193730714Y-114228571D01*
X193683095Y-114323809D01*
X193683095Y-114561904D01*
X193730714Y-114657142D01*
X193778333Y-114704761D01*
X193873571Y-114752380D01*
X194111666Y-114752380D01*
X194206904Y-114704761D01*
X194254523Y-114657142D01*
%TO.C,U29*%
X172688095Y-138517380D02*
X172688095Y-139326904D01*
X172640476Y-139422142D01*
X172592857Y-139469761D01*
X172497619Y-139517380D01*
X172307142Y-139517380D01*
X172211904Y-139469761D01*
X172164285Y-139422142D01*
X172116666Y-139326904D01*
X172116666Y-138517380D01*
X171688095Y-138612619D02*
X171640476Y-138565000D01*
X171545238Y-138517380D01*
X171307142Y-138517380D01*
X171211904Y-138565000D01*
X171164285Y-138612619D01*
X171116666Y-138707857D01*
X171116666Y-138803095D01*
X171164285Y-138945952D01*
X171735714Y-139517380D01*
X171116666Y-139517380D01*
X170640476Y-139517380D02*
X170450000Y-139517380D01*
X170354761Y-139469761D01*
X170307142Y-139422142D01*
X170211904Y-139279285D01*
X170164285Y-139088809D01*
X170164285Y-138707857D01*
X170211904Y-138612619D01*
X170259523Y-138565000D01*
X170354761Y-138517380D01*
X170545238Y-138517380D01*
X170640476Y-138565000D01*
X170688095Y-138612619D01*
X170735714Y-138707857D01*
X170735714Y-138945952D01*
X170688095Y-139041190D01*
X170640476Y-139088809D01*
X170545238Y-139136428D01*
X170354761Y-139136428D01*
X170259523Y-139088809D01*
X170211904Y-139041190D01*
X170164285Y-138945952D01*
%TO.C,R23*%
X180347857Y-110942380D02*
X180681190Y-110466190D01*
X180919285Y-110942380D02*
X180919285Y-109942380D01*
X180538333Y-109942380D01*
X180443095Y-109990000D01*
X180395476Y-110037619D01*
X180347857Y-110132857D01*
X180347857Y-110275714D01*
X180395476Y-110370952D01*
X180443095Y-110418571D01*
X180538333Y-110466190D01*
X180919285Y-110466190D01*
X179966904Y-110037619D02*
X179919285Y-109990000D01*
X179824047Y-109942380D01*
X179585952Y-109942380D01*
X179490714Y-109990000D01*
X179443095Y-110037619D01*
X179395476Y-110132857D01*
X179395476Y-110228095D01*
X179443095Y-110370952D01*
X180014523Y-110942380D01*
X179395476Y-110942380D01*
X179062142Y-109942380D02*
X178443095Y-109942380D01*
X178776428Y-110323333D01*
X178633571Y-110323333D01*
X178538333Y-110370952D01*
X178490714Y-110418571D01*
X178443095Y-110513809D01*
X178443095Y-110751904D01*
X178490714Y-110847142D01*
X178538333Y-110894761D01*
X178633571Y-110942380D01*
X178919285Y-110942380D01*
X179014523Y-110894761D01*
X179062142Y-110847142D01*
%TO.C,R19*%
X180347857Y-104847380D02*
X180681190Y-104371190D01*
X180919285Y-104847380D02*
X180919285Y-103847380D01*
X180538333Y-103847380D01*
X180443095Y-103895000D01*
X180395476Y-103942619D01*
X180347857Y-104037857D01*
X180347857Y-104180714D01*
X180395476Y-104275952D01*
X180443095Y-104323571D01*
X180538333Y-104371190D01*
X180919285Y-104371190D01*
X179395476Y-104847380D02*
X179966904Y-104847380D01*
X179681190Y-104847380D02*
X179681190Y-103847380D01*
X179776428Y-103990238D01*
X179871666Y-104085476D01*
X179966904Y-104133095D01*
X178919285Y-104847380D02*
X178728809Y-104847380D01*
X178633571Y-104799761D01*
X178585952Y-104752142D01*
X178490714Y-104609285D01*
X178443095Y-104418809D01*
X178443095Y-104037857D01*
X178490714Y-103942619D01*
X178538333Y-103895000D01*
X178633571Y-103847380D01*
X178824047Y-103847380D01*
X178919285Y-103895000D01*
X178966904Y-103942619D01*
X179014523Y-104037857D01*
X179014523Y-104275952D01*
X178966904Y-104371190D01*
X178919285Y-104418809D01*
X178824047Y-104466428D01*
X178633571Y-104466428D01*
X178538333Y-104418809D01*
X178490714Y-104371190D01*
X178443095Y-104275952D01*
%TO.C,R9*%
X216352380Y-119213333D02*
X215876190Y-118880000D01*
X216352380Y-118641904D02*
X215352380Y-118641904D01*
X215352380Y-119022857D01*
X215400000Y-119118095D01*
X215447619Y-119165714D01*
X215542857Y-119213333D01*
X215685714Y-119213333D01*
X215780952Y-119165714D01*
X215828571Y-119118095D01*
X215876190Y-119022857D01*
X215876190Y-118641904D01*
X216352380Y-119689523D02*
X216352380Y-119880000D01*
X216304761Y-119975238D01*
X216257142Y-120022857D01*
X216114285Y-120118095D01*
X215923809Y-120165714D01*
X215542857Y-120165714D01*
X215447619Y-120118095D01*
X215400000Y-120070476D01*
X215352380Y-119975238D01*
X215352380Y-119784761D01*
X215400000Y-119689523D01*
X215447619Y-119641904D01*
X215542857Y-119594285D01*
X215780952Y-119594285D01*
X215876190Y-119641904D01*
X215923809Y-119689523D01*
X215971428Y-119784761D01*
X215971428Y-119975238D01*
X215923809Y-120070476D01*
X215876190Y-120118095D01*
X215780952Y-120165714D01*
%TO.C,R6*%
X218876666Y-114752380D02*
X219210000Y-114276190D01*
X219448095Y-114752380D02*
X219448095Y-113752380D01*
X219067142Y-113752380D01*
X218971904Y-113800000D01*
X218924285Y-113847619D01*
X218876666Y-113942857D01*
X218876666Y-114085714D01*
X218924285Y-114180952D01*
X218971904Y-114228571D01*
X219067142Y-114276190D01*
X219448095Y-114276190D01*
X218019523Y-113752380D02*
X218210000Y-113752380D01*
X218305238Y-113800000D01*
X218352857Y-113847619D01*
X218448095Y-113990476D01*
X218495714Y-114180952D01*
X218495714Y-114561904D01*
X218448095Y-114657142D01*
X218400476Y-114704761D01*
X218305238Y-114752380D01*
X218114761Y-114752380D01*
X218019523Y-114704761D01*
X217971904Y-114657142D01*
X217924285Y-114561904D01*
X217924285Y-114323809D01*
X217971904Y-114228571D01*
X218019523Y-114180952D01*
X218114761Y-114133333D01*
X218305238Y-114133333D01*
X218400476Y-114180952D01*
X218448095Y-114228571D01*
X218495714Y-114323809D01*
%TO.C,Q8*%
X221710238Y-122427619D02*
X221805476Y-122380000D01*
X221900714Y-122284761D01*
X222043571Y-122141904D01*
X222138809Y-122094285D01*
X222234047Y-122094285D01*
X222186428Y-122332380D02*
X222281666Y-122284761D01*
X222376904Y-122189523D01*
X222424523Y-121999047D01*
X222424523Y-121665714D01*
X222376904Y-121475238D01*
X222281666Y-121380000D01*
X222186428Y-121332380D01*
X221995952Y-121332380D01*
X221900714Y-121380000D01*
X221805476Y-121475238D01*
X221757857Y-121665714D01*
X221757857Y-121999047D01*
X221805476Y-122189523D01*
X221900714Y-122284761D01*
X221995952Y-122332380D01*
X222186428Y-122332380D01*
X221186428Y-121760952D02*
X221281666Y-121713333D01*
X221329285Y-121665714D01*
X221376904Y-121570476D01*
X221376904Y-121522857D01*
X221329285Y-121427619D01*
X221281666Y-121380000D01*
X221186428Y-121332380D01*
X220995952Y-121332380D01*
X220900714Y-121380000D01*
X220853095Y-121427619D01*
X220805476Y-121522857D01*
X220805476Y-121570476D01*
X220853095Y-121665714D01*
X220900714Y-121713333D01*
X220995952Y-121760952D01*
X221186428Y-121760952D01*
X221281666Y-121808571D01*
X221329285Y-121856190D01*
X221376904Y-121951428D01*
X221376904Y-122141904D01*
X221329285Y-122237142D01*
X221281666Y-122284761D01*
X221186428Y-122332380D01*
X220995952Y-122332380D01*
X220900714Y-122284761D01*
X220853095Y-122237142D01*
X220805476Y-122141904D01*
X220805476Y-121951428D01*
X220853095Y-121856190D01*
X220900714Y-121808571D01*
X220995952Y-121760952D01*
%TO.C,C9*%
X178834166Y-81227142D02*
X178881785Y-81274761D01*
X179024642Y-81322380D01*
X179119880Y-81322380D01*
X179262738Y-81274761D01*
X179357976Y-81179523D01*
X179405595Y-81084285D01*
X179453214Y-80893809D01*
X179453214Y-80750952D01*
X179405595Y-80560476D01*
X179357976Y-80465238D01*
X179262738Y-80370000D01*
X179119880Y-80322380D01*
X179024642Y-80322380D01*
X178881785Y-80370000D01*
X178834166Y-80417619D01*
X178357976Y-81322380D02*
X178167500Y-81322380D01*
X178072261Y-81274761D01*
X178024642Y-81227142D01*
X177929404Y-81084285D01*
X177881785Y-80893809D01*
X177881785Y-80512857D01*
X177929404Y-80417619D01*
X177977023Y-80370000D01*
X178072261Y-80322380D01*
X178262738Y-80322380D01*
X178357976Y-80370000D01*
X178405595Y-80417619D01*
X178453214Y-80512857D01*
X178453214Y-80750952D01*
X178405595Y-80846190D01*
X178357976Y-80893809D01*
X178262738Y-80941428D01*
X178072261Y-80941428D01*
X177977023Y-80893809D01*
X177929404Y-80846190D01*
X177881785Y-80750952D01*
%TD*%
%LPC*%
D12*
%TO.C,U26*%
G36*
X156159200Y-112928400D02*
G01*
X158800800Y-112928400D01*
X158800800Y-116941600D01*
X156159200Y-116941600D01*
X156159200Y-112928400D01*
G37*
X156159200Y-112928400D02*
X158800800Y-112928400D01*
X158800800Y-116941600D01*
X156159200Y-116941600D01*
X156159200Y-112928400D01*
%TO.C,U25*%
G36*
X156159200Y-104038400D02*
G01*
X158800800Y-104038400D01*
X158800800Y-108051600D01*
X156159200Y-108051600D01*
X156159200Y-104038400D01*
G37*
X156159200Y-104038400D02*
X158800800Y-104038400D01*
X158800800Y-108051600D01*
X156159200Y-108051600D01*
X156159200Y-104038400D01*
%TO.C,U14*%
G36*
X156159200Y-95148400D02*
G01*
X158800800Y-95148400D01*
X158800800Y-99161600D01*
X156159200Y-99161600D01*
X156159200Y-95148400D01*
G37*
X156159200Y-95148400D02*
X158800800Y-95148400D01*
X158800800Y-99161600D01*
X156159200Y-99161600D01*
X156159200Y-95148400D01*
%TO.C,U13*%
G36*
X156159200Y-86258400D02*
G01*
X158800800Y-86258400D01*
X158800800Y-90271600D01*
X156159200Y-90271600D01*
X156159200Y-86258400D01*
G37*
X156159200Y-86258400D02*
X158800800Y-86258400D01*
X158800800Y-90271600D01*
X156159200Y-90271600D01*
X156159200Y-86258400D01*
%TO.C,U12*%
G36*
X156159200Y-77368400D02*
G01*
X158800800Y-77368400D01*
X158800800Y-81381600D01*
X156159200Y-81381600D01*
X156159200Y-77368400D01*
G37*
X156159200Y-77368400D02*
X158800800Y-77368400D01*
X158800800Y-81381600D01*
X156159200Y-81381600D01*
X156159200Y-77368400D01*
%TO.C,U11*%
G36*
X156159200Y-68478400D02*
G01*
X158800800Y-68478400D01*
X158800800Y-72491600D01*
X156159200Y-72491600D01*
X156159200Y-68478400D01*
G37*
X156159200Y-68478400D02*
X158800800Y-68478400D01*
X158800800Y-72491600D01*
X156159200Y-72491600D01*
X156159200Y-68478400D01*
%TD*%
%TO.C,U22*%
G36*
G01*
X209125000Y-81475000D02*
X209125000Y-81725000D01*
G75*
G02*
X209000000Y-81850000I-125000J0D01*
G01*
X207825000Y-81850000D01*
G75*
G02*
X207700000Y-81725000I0J125000D01*
G01*
X207700000Y-81475000D01*
G75*
G02*
X207825000Y-81350000I125000J0D01*
G01*
X209000000Y-81350000D01*
G75*
G02*
X209125000Y-81475000I0J-125000D01*
G01*
G37*
G36*
G01*
X209125000Y-83375000D02*
X209125000Y-83625000D01*
G75*
G02*
X209000000Y-83750000I-125000J0D01*
G01*
X207825000Y-83750000D01*
G75*
G02*
X207700000Y-83625000I0J125000D01*
G01*
X207700000Y-83375000D01*
G75*
G02*
X207825000Y-83250000I125000J0D01*
G01*
X209000000Y-83250000D01*
G75*
G02*
X209125000Y-83375000I0J-125000D01*
G01*
G37*
G36*
G01*
X211400000Y-83375000D02*
X211400000Y-83625000D01*
G75*
G02*
X211275000Y-83750000I-125000J0D01*
G01*
X210100000Y-83750000D01*
G75*
G02*
X209975000Y-83625000I0J125000D01*
G01*
X209975000Y-83375000D01*
G75*
G02*
X210100000Y-83250000I125000J0D01*
G01*
X211275000Y-83250000D01*
G75*
G02*
X211400000Y-83375000I0J-125000D01*
G01*
G37*
G36*
G01*
X211400000Y-82425000D02*
X211400000Y-82675000D01*
G75*
G02*
X211275000Y-82800000I-125000J0D01*
G01*
X210100000Y-82800000D01*
G75*
G02*
X209975000Y-82675000I0J125000D01*
G01*
X209975000Y-82425000D01*
G75*
G02*
X210100000Y-82300000I125000J0D01*
G01*
X211275000Y-82300000D01*
G75*
G02*
X211400000Y-82425000I0J-125000D01*
G01*
G37*
G36*
G01*
X211400000Y-81475000D02*
X211400000Y-81725000D01*
G75*
G02*
X211275000Y-81850000I-125000J0D01*
G01*
X210100000Y-81850000D01*
G75*
G02*
X209975000Y-81725000I0J125000D01*
G01*
X209975000Y-81475000D01*
G75*
G02*
X210100000Y-81350000I125000J0D01*
G01*
X211275000Y-81350000D01*
G75*
G02*
X211400000Y-81475000I0J-125000D01*
G01*
G37*
%TD*%
D13*
%TO.C,HS1*%
X163750000Y-135890000D03*
X179150000Y-135890000D03*
%TD*%
D14*
%TO.C,JP3*%
X233045000Y-156845000D03*
D15*
X230505000Y-156845000D03*
%TD*%
%TO.C,C22*%
G36*
G01*
X203247500Y-83025000D02*
X203247500Y-82075000D01*
G75*
G02*
X203497500Y-81825000I250000J0D01*
G01*
X204172500Y-81825000D01*
G75*
G02*
X204422500Y-82075000I0J-250000D01*
G01*
X204422500Y-83025000D01*
G75*
G02*
X204172500Y-83275000I-250000J0D01*
G01*
X203497500Y-83275000D01*
G75*
G02*
X203247500Y-83025000I0J250000D01*
G01*
G37*
G36*
G01*
X201172500Y-83025000D02*
X201172500Y-82075000D01*
G75*
G02*
X201422500Y-81825000I250000J0D01*
G01*
X202097500Y-81825000D01*
G75*
G02*
X202347500Y-82075000I0J-250000D01*
G01*
X202347500Y-83025000D01*
G75*
G02*
X202097500Y-83275000I-250000J0D01*
G01*
X201422500Y-83275000D01*
G75*
G02*
X201172500Y-83025000I0J250000D01*
G01*
G37*
%TD*%
D16*
%TO.C,U6*%
X240030000Y-97790000D03*
X240030000Y-100330000D03*
X240030000Y-102870000D03*
X240030000Y-105410000D03*
X222250000Y-105410000D03*
X222250000Y-97790000D03*
X222250000Y-100330000D03*
X222250000Y-102870000D03*
%TD*%
%TO.C,R30*%
G36*
G01*
X187090000Y-136975001D02*
X187090000Y-136074999D01*
G75*
G02*
X187339999Y-135825000I249999J0D01*
G01*
X188040001Y-135825000D01*
G75*
G02*
X188290000Y-136074999I0J-249999D01*
G01*
X188290000Y-136975001D01*
G75*
G02*
X188040001Y-137225000I-249999J0D01*
G01*
X187339999Y-137225000D01*
G75*
G02*
X187090000Y-136975001I0J249999D01*
G01*
G37*
G36*
G01*
X185090000Y-136975001D02*
X185090000Y-136074999D01*
G75*
G02*
X185339999Y-135825000I249999J0D01*
G01*
X186040001Y-135825000D01*
G75*
G02*
X186290000Y-136074999I0J-249999D01*
G01*
X186290000Y-136975001D01*
G75*
G02*
X186040001Y-137225000I-249999J0D01*
G01*
X185339999Y-137225000D01*
G75*
G02*
X185090000Y-136975001I0J249999D01*
G01*
G37*
%TD*%
%TO.C,R29*%
G36*
G01*
X186290000Y-137979999D02*
X186290000Y-138880001D01*
G75*
G02*
X186040001Y-139130000I-249999J0D01*
G01*
X185339999Y-139130000D01*
G75*
G02*
X185090000Y-138880001I0J249999D01*
G01*
X185090000Y-137979999D01*
G75*
G02*
X185339999Y-137730000I249999J0D01*
G01*
X186040001Y-137730000D01*
G75*
G02*
X186290000Y-137979999I0J-249999D01*
G01*
G37*
G36*
G01*
X188290000Y-137979999D02*
X188290000Y-138880001D01*
G75*
G02*
X188040001Y-139130000I-249999J0D01*
G01*
X187339999Y-139130000D01*
G75*
G02*
X187090000Y-138880001I0J249999D01*
G01*
X187090000Y-137979999D01*
G75*
G02*
X187339999Y-137730000I249999J0D01*
G01*
X188040001Y-137730000D01*
G75*
G02*
X188290000Y-137979999I0J-249999D01*
G01*
G37*
%TD*%
%TO.C,U4*%
G36*
G01*
X226270000Y-151275000D02*
X226270000Y-151075000D01*
G75*
G02*
X226370000Y-150975000I100000J0D01*
G01*
X227645000Y-150975000D01*
G75*
G02*
X227745000Y-151075000I0J-100000D01*
G01*
X227745000Y-151275000D01*
G75*
G02*
X227645000Y-151375000I-100000J0D01*
G01*
X226370000Y-151375000D01*
G75*
G02*
X226270000Y-151275000I0J100000D01*
G01*
G37*
G36*
G01*
X226270000Y-150625000D02*
X226270000Y-150425000D01*
G75*
G02*
X226370000Y-150325000I100000J0D01*
G01*
X227645000Y-150325000D01*
G75*
G02*
X227745000Y-150425000I0J-100000D01*
G01*
X227745000Y-150625000D01*
G75*
G02*
X227645000Y-150725000I-100000J0D01*
G01*
X226370000Y-150725000D01*
G75*
G02*
X226270000Y-150625000I0J100000D01*
G01*
G37*
G36*
G01*
X226270000Y-149975000D02*
X226270000Y-149775000D01*
G75*
G02*
X226370000Y-149675000I100000J0D01*
G01*
X227645000Y-149675000D01*
G75*
G02*
X227745000Y-149775000I0J-100000D01*
G01*
X227745000Y-149975000D01*
G75*
G02*
X227645000Y-150075000I-100000J0D01*
G01*
X226370000Y-150075000D01*
G75*
G02*
X226270000Y-149975000I0J100000D01*
G01*
G37*
G36*
G01*
X226270000Y-149325000D02*
X226270000Y-149125000D01*
G75*
G02*
X226370000Y-149025000I100000J0D01*
G01*
X227645000Y-149025000D01*
G75*
G02*
X227745000Y-149125000I0J-100000D01*
G01*
X227745000Y-149325000D01*
G75*
G02*
X227645000Y-149425000I-100000J0D01*
G01*
X226370000Y-149425000D01*
G75*
G02*
X226270000Y-149325000I0J100000D01*
G01*
G37*
G36*
G01*
X226270000Y-148675000D02*
X226270000Y-148475000D01*
G75*
G02*
X226370000Y-148375000I100000J0D01*
G01*
X227645000Y-148375000D01*
G75*
G02*
X227745000Y-148475000I0J-100000D01*
G01*
X227745000Y-148675000D01*
G75*
G02*
X227645000Y-148775000I-100000J0D01*
G01*
X226370000Y-148775000D01*
G75*
G02*
X226270000Y-148675000I0J100000D01*
G01*
G37*
G36*
G01*
X226270000Y-148025000D02*
X226270000Y-147825000D01*
G75*
G02*
X226370000Y-147725000I100000J0D01*
G01*
X227645000Y-147725000D01*
G75*
G02*
X227745000Y-147825000I0J-100000D01*
G01*
X227745000Y-148025000D01*
G75*
G02*
X227645000Y-148125000I-100000J0D01*
G01*
X226370000Y-148125000D01*
G75*
G02*
X226270000Y-148025000I0J100000D01*
G01*
G37*
G36*
G01*
X226270000Y-147375000D02*
X226270000Y-147175000D01*
G75*
G02*
X226370000Y-147075000I100000J0D01*
G01*
X227645000Y-147075000D01*
G75*
G02*
X227745000Y-147175000I0J-100000D01*
G01*
X227745000Y-147375000D01*
G75*
G02*
X227645000Y-147475000I-100000J0D01*
G01*
X226370000Y-147475000D01*
G75*
G02*
X226270000Y-147375000I0J100000D01*
G01*
G37*
G36*
G01*
X231995000Y-147375000D02*
X231995000Y-147175000D01*
G75*
G02*
X232095000Y-147075000I100000J0D01*
G01*
X233370000Y-147075000D01*
G75*
G02*
X233470000Y-147175000I0J-100000D01*
G01*
X233470000Y-147375000D01*
G75*
G02*
X233370000Y-147475000I-100000J0D01*
G01*
X232095000Y-147475000D01*
G75*
G02*
X231995000Y-147375000I0J100000D01*
G01*
G37*
G36*
G01*
X231995000Y-148025000D02*
X231995000Y-147825000D01*
G75*
G02*
X232095000Y-147725000I100000J0D01*
G01*
X233370000Y-147725000D01*
G75*
G02*
X233470000Y-147825000I0J-100000D01*
G01*
X233470000Y-148025000D01*
G75*
G02*
X233370000Y-148125000I-100000J0D01*
G01*
X232095000Y-148125000D01*
G75*
G02*
X231995000Y-148025000I0J100000D01*
G01*
G37*
G36*
G01*
X231995000Y-148675000D02*
X231995000Y-148475000D01*
G75*
G02*
X232095000Y-148375000I100000J0D01*
G01*
X233370000Y-148375000D01*
G75*
G02*
X233470000Y-148475000I0J-100000D01*
G01*
X233470000Y-148675000D01*
G75*
G02*
X233370000Y-148775000I-100000J0D01*
G01*
X232095000Y-148775000D01*
G75*
G02*
X231995000Y-148675000I0J100000D01*
G01*
G37*
G36*
G01*
X231995000Y-149325000D02*
X231995000Y-149125000D01*
G75*
G02*
X232095000Y-149025000I100000J0D01*
G01*
X233370000Y-149025000D01*
G75*
G02*
X233470000Y-149125000I0J-100000D01*
G01*
X233470000Y-149325000D01*
G75*
G02*
X233370000Y-149425000I-100000J0D01*
G01*
X232095000Y-149425000D01*
G75*
G02*
X231995000Y-149325000I0J100000D01*
G01*
G37*
G36*
G01*
X231995000Y-149975000D02*
X231995000Y-149775000D01*
G75*
G02*
X232095000Y-149675000I100000J0D01*
G01*
X233370000Y-149675000D01*
G75*
G02*
X233470000Y-149775000I0J-100000D01*
G01*
X233470000Y-149975000D01*
G75*
G02*
X233370000Y-150075000I-100000J0D01*
G01*
X232095000Y-150075000D01*
G75*
G02*
X231995000Y-149975000I0J100000D01*
G01*
G37*
G36*
G01*
X231995000Y-150625000D02*
X231995000Y-150425000D01*
G75*
G02*
X232095000Y-150325000I100000J0D01*
G01*
X233370000Y-150325000D01*
G75*
G02*
X233470000Y-150425000I0J-100000D01*
G01*
X233470000Y-150625000D01*
G75*
G02*
X233370000Y-150725000I-100000J0D01*
G01*
X232095000Y-150725000D01*
G75*
G02*
X231995000Y-150625000I0J100000D01*
G01*
G37*
G36*
G01*
X231995000Y-151275000D02*
X231995000Y-151075000D01*
G75*
G02*
X232095000Y-150975000I100000J0D01*
G01*
X233370000Y-150975000D01*
G75*
G02*
X233470000Y-151075000I0J-100000D01*
G01*
X233470000Y-151275000D01*
G75*
G02*
X233370000Y-151375000I-100000J0D01*
G01*
X232095000Y-151375000D01*
G75*
G02*
X231995000Y-151275000I0J100000D01*
G01*
G37*
%TD*%
%TO.C,C20*%
G36*
G01*
X231992500Y-153510000D02*
X231992500Y-152560000D01*
G75*
G02*
X232242500Y-152310000I250000J0D01*
G01*
X232917500Y-152310000D01*
G75*
G02*
X233167500Y-152560000I0J-250000D01*
G01*
X233167500Y-153510000D01*
G75*
G02*
X232917500Y-153760000I-250000J0D01*
G01*
X232242500Y-153760000D01*
G75*
G02*
X231992500Y-153510000I0J250000D01*
G01*
G37*
G36*
G01*
X229917500Y-153510000D02*
X229917500Y-152560000D01*
G75*
G02*
X230167500Y-152310000I250000J0D01*
G01*
X230842500Y-152310000D01*
G75*
G02*
X231092500Y-152560000I0J-250000D01*
G01*
X231092500Y-153510000D01*
G75*
G02*
X230842500Y-153760000I-250000J0D01*
G01*
X230167500Y-153760000D01*
G75*
G02*
X229917500Y-153510000I0J250000D01*
G01*
G37*
%TD*%
%TO.C,R41*%
G36*
G01*
X219525001Y-128140000D02*
X218624999Y-128140000D01*
G75*
G02*
X218375000Y-127890001I0J249999D01*
G01*
X218375000Y-127189999D01*
G75*
G02*
X218624999Y-126940000I249999J0D01*
G01*
X219525001Y-126940000D01*
G75*
G02*
X219775000Y-127189999I0J-249999D01*
G01*
X219775000Y-127890001D01*
G75*
G02*
X219525001Y-128140000I-249999J0D01*
G01*
G37*
G36*
G01*
X219525001Y-130140000D02*
X218624999Y-130140000D01*
G75*
G02*
X218375000Y-129890001I0J249999D01*
G01*
X218375000Y-129189999D01*
G75*
G02*
X218624999Y-128940000I249999J0D01*
G01*
X219525001Y-128940000D01*
G75*
G02*
X219775000Y-129189999I0J-249999D01*
G01*
X219775000Y-129890001D01*
G75*
G02*
X219525001Y-130140000I-249999J0D01*
G01*
G37*
%TD*%
D17*
%TO.C,JP2*%
X221575000Y-131445000D03*
G36*
G01*
X218225000Y-132195000D02*
X218225000Y-130695000D01*
G75*
G02*
X218475000Y-130445000I250000J0D01*
G01*
X219675000Y-130445000D01*
G75*
G02*
X219925000Y-130695000I0J-250000D01*
G01*
X219925000Y-132195000D01*
G75*
G02*
X219675000Y-132445000I-250000J0D01*
G01*
X218475000Y-132445000D01*
G75*
G02*
X218225000Y-132195000I0J250000D01*
G01*
G37*
%TD*%
%TO.C,J5*%
G36*
G01*
X203620000Y-132170000D02*
X203620000Y-130720000D01*
G75*
G02*
X203870000Y-130470000I250000J0D01*
G01*
X205070000Y-130470000D01*
G75*
G02*
X205320000Y-130720000I0J-250000D01*
G01*
X205320000Y-132170000D01*
G75*
G02*
X205070000Y-132420000I-250000J0D01*
G01*
X203870000Y-132420000D01*
G75*
G02*
X203620000Y-132170000I0J250000D01*
G01*
G37*
D18*
X206970000Y-131445000D03*
X209470000Y-131445000D03*
X211970000Y-131445000D03*
%TD*%
D19*
%TO.C,JP1*%
X176530000Y-151170000D03*
G36*
G01*
X177280000Y-154520000D02*
X175780000Y-154520000D01*
G75*
G02*
X175530000Y-154270000I0J250000D01*
G01*
X175530000Y-153070000D01*
G75*
G02*
X175780000Y-152820000I250000J0D01*
G01*
X177280000Y-152820000D01*
G75*
G02*
X177530000Y-153070000I0J-250000D01*
G01*
X177530000Y-154270000D01*
G75*
G02*
X177280000Y-154520000I-250000J0D01*
G01*
G37*
%TD*%
%TO.C,R40*%
G36*
G01*
X179520001Y-152270000D02*
X178619999Y-152270000D01*
G75*
G02*
X178370000Y-152020001I0J249999D01*
G01*
X178370000Y-151319999D01*
G75*
G02*
X178619999Y-151070000I249999J0D01*
G01*
X179520001Y-151070000D01*
G75*
G02*
X179770000Y-151319999I0J-249999D01*
G01*
X179770000Y-152020001D01*
G75*
G02*
X179520001Y-152270000I-249999J0D01*
G01*
G37*
G36*
G01*
X179520001Y-154270000D02*
X178619999Y-154270000D01*
G75*
G02*
X178370000Y-154020001I0J249999D01*
G01*
X178370000Y-153319999D01*
G75*
G02*
X178619999Y-153070000I249999J0D01*
G01*
X179520001Y-153070000D01*
G75*
G02*
X179770000Y-153319999I0J-249999D01*
G01*
X179770000Y-154020001D01*
G75*
G02*
X179520001Y-154270000I-249999J0D01*
G01*
G37*
%TD*%
%TO.C,R39*%
G36*
G01*
X178619999Y-148990000D02*
X179520001Y-148990000D01*
G75*
G02*
X179770000Y-149239999I0J-249999D01*
G01*
X179770000Y-149940001D01*
G75*
G02*
X179520001Y-150190000I-249999J0D01*
G01*
X178619999Y-150190000D01*
G75*
G02*
X178370000Y-149940001I0J249999D01*
G01*
X178370000Y-149239999D01*
G75*
G02*
X178619999Y-148990000I249999J0D01*
G01*
G37*
G36*
G01*
X178619999Y-146990000D02*
X179520001Y-146990000D01*
G75*
G02*
X179770000Y-147239999I0J-249999D01*
G01*
X179770000Y-147940001D01*
G75*
G02*
X179520001Y-148190000I-249999J0D01*
G01*
X178619999Y-148190000D01*
G75*
G02*
X178370000Y-147940001I0J249999D01*
G01*
X178370000Y-147239999D01*
G75*
G02*
X178619999Y-146990000I249999J0D01*
G01*
G37*
%TD*%
%TO.C,R20*%
G36*
G01*
X172269999Y-148355000D02*
X173170001Y-148355000D01*
G75*
G02*
X173420000Y-148604999I0J-249999D01*
G01*
X173420000Y-149305001D01*
G75*
G02*
X173170001Y-149555000I-249999J0D01*
G01*
X172269999Y-149555000D01*
G75*
G02*
X172020000Y-149305001I0J249999D01*
G01*
X172020000Y-148604999D01*
G75*
G02*
X172269999Y-148355000I249999J0D01*
G01*
G37*
G36*
G01*
X172269999Y-146355000D02*
X173170001Y-146355000D01*
G75*
G02*
X173420000Y-146604999I0J-249999D01*
G01*
X173420000Y-147305001D01*
G75*
G02*
X173170001Y-147555000I-249999J0D01*
G01*
X172269999Y-147555000D01*
G75*
G02*
X172020000Y-147305001I0J249999D01*
G01*
X172020000Y-146604999D01*
G75*
G02*
X172269999Y-146355000I249999J0D01*
G01*
G37*
%TD*%
%TO.C,R4*%
G36*
G01*
X171850000Y-145230001D02*
X171850000Y-144329999D01*
G75*
G02*
X172099999Y-144080000I249999J0D01*
G01*
X172800001Y-144080000D01*
G75*
G02*
X173050000Y-144329999I0J-249999D01*
G01*
X173050000Y-145230001D01*
G75*
G02*
X172800001Y-145480000I-249999J0D01*
G01*
X172099999Y-145480000D01*
G75*
G02*
X171850000Y-145230001I0J249999D01*
G01*
G37*
G36*
G01*
X169850000Y-145230001D02*
X169850000Y-144329999D01*
G75*
G02*
X170099999Y-144080000I249999J0D01*
G01*
X170800001Y-144080000D01*
G75*
G02*
X171050000Y-144329999I0J-249999D01*
G01*
X171050000Y-145230001D01*
G75*
G02*
X170800001Y-145480000I-249999J0D01*
G01*
X170099999Y-145480000D01*
G75*
G02*
X169850000Y-145230001I0J249999D01*
G01*
G37*
%TD*%
D20*
%TO.C,Q11*%
X174895000Y-147320000D03*
X176895000Y-148270000D03*
X176895000Y-146370000D03*
%TD*%
D21*
%TO.C,Q3*%
X166690000Y-147100000D03*
X167640000Y-147100000D03*
X168590000Y-147100000D03*
X168590000Y-144780000D03*
X167640000Y-144780000D03*
X166690000Y-144780000D03*
%TD*%
D16*
%TO.C,U35*%
X218440000Y-105410000D03*
X218440000Y-100330000D03*
X218440000Y-97790000D03*
X218440000Y-102870000D03*
X201930000Y-102870000D03*
X201930000Y-97790000D03*
X201930000Y-105410000D03*
X201930000Y-100330000D03*
%TD*%
D22*
%TO.C,U30*%
X234315000Y-100330000D03*
G36*
G01*
X233265000Y-99230000D02*
X233265000Y-99430000D01*
G75*
G02*
X233165000Y-99530000I-100000J0D01*
G01*
X232565000Y-99530000D01*
G75*
G02*
X232465000Y-99430000I0J100000D01*
G01*
X232465000Y-99230000D01*
G75*
G02*
X232565000Y-99130000I100000J0D01*
G01*
X233165000Y-99130000D01*
G75*
G02*
X233265000Y-99230000I0J-100000D01*
G01*
G37*
G36*
G01*
X233265000Y-100230000D02*
X233265000Y-100430000D01*
G75*
G02*
X233165000Y-100530000I-100000J0D01*
G01*
X232565000Y-100530000D01*
G75*
G02*
X232465000Y-100430000I0J100000D01*
G01*
X232465000Y-100230000D01*
G75*
G02*
X232565000Y-100130000I100000J0D01*
G01*
X233165000Y-100130000D01*
G75*
G02*
X233265000Y-100230000I0J-100000D01*
G01*
G37*
G36*
G01*
X233265000Y-101230000D02*
X233265000Y-101430000D01*
G75*
G02*
X233165000Y-101530000I-100000J0D01*
G01*
X232565000Y-101530000D01*
G75*
G02*
X232465000Y-101430000I0J100000D01*
G01*
X232465000Y-101230000D01*
G75*
G02*
X232565000Y-101130000I100000J0D01*
G01*
X233165000Y-101130000D01*
G75*
G02*
X233265000Y-101230000I0J-100000D01*
G01*
G37*
G36*
G01*
X236165000Y-101230000D02*
X236165000Y-101430000D01*
G75*
G02*
X236065000Y-101530000I-100000J0D01*
G01*
X235465000Y-101530000D01*
G75*
G02*
X235365000Y-101430000I0J100000D01*
G01*
X235365000Y-101230000D01*
G75*
G02*
X235465000Y-101130000I100000J0D01*
G01*
X236065000Y-101130000D01*
G75*
G02*
X236165000Y-101230000I0J-100000D01*
G01*
G37*
G36*
G01*
X236165000Y-100230000D02*
X236165000Y-100430000D01*
G75*
G02*
X236065000Y-100530000I-100000J0D01*
G01*
X235465000Y-100530000D01*
G75*
G02*
X235365000Y-100430000I0J100000D01*
G01*
X235365000Y-100230000D01*
G75*
G02*
X235465000Y-100130000I100000J0D01*
G01*
X236065000Y-100130000D01*
G75*
G02*
X236165000Y-100230000I0J-100000D01*
G01*
G37*
G36*
G01*
X236165000Y-99230000D02*
X236165000Y-99430000D01*
G75*
G02*
X236065000Y-99530000I-100000J0D01*
G01*
X235465000Y-99530000D01*
G75*
G02*
X235365000Y-99430000I0J100000D01*
G01*
X235365000Y-99230000D01*
G75*
G02*
X235465000Y-99130000I100000J0D01*
G01*
X236065000Y-99130000D01*
G75*
G02*
X236165000Y-99230000I0J-100000D01*
G01*
G37*
%TD*%
%TO.C,U21*%
G36*
G01*
X202355000Y-152205000D02*
X202355000Y-151955000D01*
G75*
G02*
X202480000Y-151830000I125000J0D01*
G01*
X203655000Y-151830000D01*
G75*
G02*
X203780000Y-151955000I0J-125000D01*
G01*
X203780000Y-152205000D01*
G75*
G02*
X203655000Y-152330000I-125000J0D01*
G01*
X202480000Y-152330000D01*
G75*
G02*
X202355000Y-152205000I0J125000D01*
G01*
G37*
G36*
G01*
X202355000Y-150305000D02*
X202355000Y-150055000D01*
G75*
G02*
X202480000Y-149930000I125000J0D01*
G01*
X203655000Y-149930000D01*
G75*
G02*
X203780000Y-150055000I0J-125000D01*
G01*
X203780000Y-150305000D01*
G75*
G02*
X203655000Y-150430000I-125000J0D01*
G01*
X202480000Y-150430000D01*
G75*
G02*
X202355000Y-150305000I0J125000D01*
G01*
G37*
G36*
G01*
X200080000Y-150305000D02*
X200080000Y-150055000D01*
G75*
G02*
X200205000Y-149930000I125000J0D01*
G01*
X201380000Y-149930000D01*
G75*
G02*
X201505000Y-150055000I0J-125000D01*
G01*
X201505000Y-150305000D01*
G75*
G02*
X201380000Y-150430000I-125000J0D01*
G01*
X200205000Y-150430000D01*
G75*
G02*
X200080000Y-150305000I0J125000D01*
G01*
G37*
G36*
G01*
X200080000Y-151255000D02*
X200080000Y-151005000D01*
G75*
G02*
X200205000Y-150880000I125000J0D01*
G01*
X201380000Y-150880000D01*
G75*
G02*
X201505000Y-151005000I0J-125000D01*
G01*
X201505000Y-151255000D01*
G75*
G02*
X201380000Y-151380000I-125000J0D01*
G01*
X200205000Y-151380000D01*
G75*
G02*
X200080000Y-151255000I0J125000D01*
G01*
G37*
G36*
G01*
X200080000Y-152205000D02*
X200080000Y-151955000D01*
G75*
G02*
X200205000Y-151830000I125000J0D01*
G01*
X201380000Y-151830000D01*
G75*
G02*
X201505000Y-151955000I0J-125000D01*
G01*
X201505000Y-152205000D01*
G75*
G02*
X201380000Y-152330000I-125000J0D01*
G01*
X200205000Y-152330000D01*
G75*
G02*
X200080000Y-152205000I0J125000D01*
G01*
G37*
%TD*%
%TO.C,U19*%
G36*
G01*
X216827500Y-140775000D02*
X216827500Y-140525000D01*
G75*
G02*
X216952500Y-140400000I125000J0D01*
G01*
X218127500Y-140400000D01*
G75*
G02*
X218252500Y-140525000I0J-125000D01*
G01*
X218252500Y-140775000D01*
G75*
G02*
X218127500Y-140900000I-125000J0D01*
G01*
X216952500Y-140900000D01*
G75*
G02*
X216827500Y-140775000I0J125000D01*
G01*
G37*
G36*
G01*
X216827500Y-138875000D02*
X216827500Y-138625000D01*
G75*
G02*
X216952500Y-138500000I125000J0D01*
G01*
X218127500Y-138500000D01*
G75*
G02*
X218252500Y-138625000I0J-125000D01*
G01*
X218252500Y-138875000D01*
G75*
G02*
X218127500Y-139000000I-125000J0D01*
G01*
X216952500Y-139000000D01*
G75*
G02*
X216827500Y-138875000I0J125000D01*
G01*
G37*
G36*
G01*
X214552500Y-138875000D02*
X214552500Y-138625000D01*
G75*
G02*
X214677500Y-138500000I125000J0D01*
G01*
X215852500Y-138500000D01*
G75*
G02*
X215977500Y-138625000I0J-125000D01*
G01*
X215977500Y-138875000D01*
G75*
G02*
X215852500Y-139000000I-125000J0D01*
G01*
X214677500Y-139000000D01*
G75*
G02*
X214552500Y-138875000I0J125000D01*
G01*
G37*
G36*
G01*
X214552500Y-139825000D02*
X214552500Y-139575000D01*
G75*
G02*
X214677500Y-139450000I125000J0D01*
G01*
X215852500Y-139450000D01*
G75*
G02*
X215977500Y-139575000I0J-125000D01*
G01*
X215977500Y-139825000D01*
G75*
G02*
X215852500Y-139950000I-125000J0D01*
G01*
X214677500Y-139950000D01*
G75*
G02*
X214552500Y-139825000I0J125000D01*
G01*
G37*
G36*
G01*
X214552500Y-140775000D02*
X214552500Y-140525000D01*
G75*
G02*
X214677500Y-140400000I125000J0D01*
G01*
X215852500Y-140400000D01*
G75*
G02*
X215977500Y-140525000I0J-125000D01*
G01*
X215977500Y-140775000D01*
G75*
G02*
X215852500Y-140900000I-125000J0D01*
G01*
X214677500Y-140900000D01*
G75*
G02*
X214552500Y-140775000I0J125000D01*
G01*
G37*
%TD*%
%TO.C,U18*%
G36*
G01*
X202990000Y-140775000D02*
X202990000Y-140525000D01*
G75*
G02*
X203115000Y-140400000I125000J0D01*
G01*
X204290000Y-140400000D01*
G75*
G02*
X204415000Y-140525000I0J-125000D01*
G01*
X204415000Y-140775000D01*
G75*
G02*
X204290000Y-140900000I-125000J0D01*
G01*
X203115000Y-140900000D01*
G75*
G02*
X202990000Y-140775000I0J125000D01*
G01*
G37*
G36*
G01*
X202990000Y-138875000D02*
X202990000Y-138625000D01*
G75*
G02*
X203115000Y-138500000I125000J0D01*
G01*
X204290000Y-138500000D01*
G75*
G02*
X204415000Y-138625000I0J-125000D01*
G01*
X204415000Y-138875000D01*
G75*
G02*
X204290000Y-139000000I-125000J0D01*
G01*
X203115000Y-139000000D01*
G75*
G02*
X202990000Y-138875000I0J125000D01*
G01*
G37*
G36*
G01*
X200715000Y-138875000D02*
X200715000Y-138625000D01*
G75*
G02*
X200840000Y-138500000I125000J0D01*
G01*
X202015000Y-138500000D01*
G75*
G02*
X202140000Y-138625000I0J-125000D01*
G01*
X202140000Y-138875000D01*
G75*
G02*
X202015000Y-139000000I-125000J0D01*
G01*
X200840000Y-139000000D01*
G75*
G02*
X200715000Y-138875000I0J125000D01*
G01*
G37*
G36*
G01*
X200715000Y-139825000D02*
X200715000Y-139575000D01*
G75*
G02*
X200840000Y-139450000I125000J0D01*
G01*
X202015000Y-139450000D01*
G75*
G02*
X202140000Y-139575000I0J-125000D01*
G01*
X202140000Y-139825000D01*
G75*
G02*
X202015000Y-139950000I-125000J0D01*
G01*
X200840000Y-139950000D01*
G75*
G02*
X200715000Y-139825000I0J125000D01*
G01*
G37*
G36*
G01*
X200715000Y-140775000D02*
X200715000Y-140525000D01*
G75*
G02*
X200840000Y-140400000I125000J0D01*
G01*
X202015000Y-140400000D01*
G75*
G02*
X202140000Y-140525000I0J-125000D01*
G01*
X202140000Y-140775000D01*
G75*
G02*
X202015000Y-140900000I-125000J0D01*
G01*
X200840000Y-140900000D01*
G75*
G02*
X200715000Y-140775000I0J125000D01*
G01*
G37*
%TD*%
%TO.C,U17*%
G36*
G01*
X218035000Y-152550000D02*
X218035000Y-152250000D01*
G75*
G02*
X218185000Y-152100000I150000J0D01*
G01*
X219835000Y-152100000D01*
G75*
G02*
X219985000Y-152250000I0J-150000D01*
G01*
X219985000Y-152550000D01*
G75*
G02*
X219835000Y-152700000I-150000J0D01*
G01*
X218185000Y-152700000D01*
G75*
G02*
X218035000Y-152550000I0J150000D01*
G01*
G37*
G36*
G01*
X218035000Y-151280000D02*
X218035000Y-150980000D01*
G75*
G02*
X218185000Y-150830000I150000J0D01*
G01*
X219835000Y-150830000D01*
G75*
G02*
X219985000Y-150980000I0J-150000D01*
G01*
X219985000Y-151280000D01*
G75*
G02*
X219835000Y-151430000I-150000J0D01*
G01*
X218185000Y-151430000D01*
G75*
G02*
X218035000Y-151280000I0J150000D01*
G01*
G37*
G36*
G01*
X218035000Y-150010000D02*
X218035000Y-149710000D01*
G75*
G02*
X218185000Y-149560000I150000J0D01*
G01*
X219835000Y-149560000D01*
G75*
G02*
X219985000Y-149710000I0J-150000D01*
G01*
X219985000Y-150010000D01*
G75*
G02*
X219835000Y-150160000I-150000J0D01*
G01*
X218185000Y-150160000D01*
G75*
G02*
X218035000Y-150010000I0J150000D01*
G01*
G37*
G36*
G01*
X218035000Y-148740000D02*
X218035000Y-148440000D01*
G75*
G02*
X218185000Y-148290000I150000J0D01*
G01*
X219835000Y-148290000D01*
G75*
G02*
X219985000Y-148440000I0J-150000D01*
G01*
X219985000Y-148740000D01*
G75*
G02*
X219835000Y-148890000I-150000J0D01*
G01*
X218185000Y-148890000D01*
G75*
G02*
X218035000Y-148740000I0J150000D01*
G01*
G37*
G36*
G01*
X213085000Y-148740000D02*
X213085000Y-148440000D01*
G75*
G02*
X213235000Y-148290000I150000J0D01*
G01*
X214885000Y-148290000D01*
G75*
G02*
X215035000Y-148440000I0J-150000D01*
G01*
X215035000Y-148740000D01*
G75*
G02*
X214885000Y-148890000I-150000J0D01*
G01*
X213235000Y-148890000D01*
G75*
G02*
X213085000Y-148740000I0J150000D01*
G01*
G37*
G36*
G01*
X213085000Y-150010000D02*
X213085000Y-149710000D01*
G75*
G02*
X213235000Y-149560000I150000J0D01*
G01*
X214885000Y-149560000D01*
G75*
G02*
X215035000Y-149710000I0J-150000D01*
G01*
X215035000Y-150010000D01*
G75*
G02*
X214885000Y-150160000I-150000J0D01*
G01*
X213235000Y-150160000D01*
G75*
G02*
X213085000Y-150010000I0J150000D01*
G01*
G37*
G36*
G01*
X213085000Y-151280000D02*
X213085000Y-150980000D01*
G75*
G02*
X213235000Y-150830000I150000J0D01*
G01*
X214885000Y-150830000D01*
G75*
G02*
X215035000Y-150980000I0J-150000D01*
G01*
X215035000Y-151280000D01*
G75*
G02*
X214885000Y-151430000I-150000J0D01*
G01*
X213235000Y-151430000D01*
G75*
G02*
X213085000Y-151280000I0J150000D01*
G01*
G37*
G36*
G01*
X213085000Y-152550000D02*
X213085000Y-152250000D01*
G75*
G02*
X213235000Y-152100000I150000J0D01*
G01*
X214885000Y-152100000D01*
G75*
G02*
X215035000Y-152250000I0J-150000D01*
G01*
X215035000Y-152550000D01*
G75*
G02*
X214885000Y-152700000I-150000J0D01*
G01*
X213235000Y-152700000D01*
G75*
G02*
X213085000Y-152550000I0J150000D01*
G01*
G37*
%TD*%
%TO.C,R24*%
G36*
G01*
X191370000Y-146234999D02*
X191370000Y-147135001D01*
G75*
G02*
X191120001Y-147385000I-249999J0D01*
G01*
X190419999Y-147385000D01*
G75*
G02*
X190170000Y-147135001I0J249999D01*
G01*
X190170000Y-146234999D01*
G75*
G02*
X190419999Y-145985000I249999J0D01*
G01*
X191120001Y-145985000D01*
G75*
G02*
X191370000Y-146234999I0J-249999D01*
G01*
G37*
G36*
G01*
X193370000Y-146234999D02*
X193370000Y-147135001D01*
G75*
G02*
X193120001Y-147385000I-249999J0D01*
G01*
X192419999Y-147385000D01*
G75*
G02*
X192170000Y-147135001I0J249999D01*
G01*
X192170000Y-146234999D01*
G75*
G02*
X192419999Y-145985000I249999J0D01*
G01*
X193120001Y-145985000D01*
G75*
G02*
X193370000Y-146234999I0J-249999D01*
G01*
G37*
%TD*%
%TO.C,R22*%
G36*
G01*
X193490001Y-127235000D02*
X192589999Y-127235000D01*
G75*
G02*
X192340000Y-126985001I0J249999D01*
G01*
X192340000Y-126284999D01*
G75*
G02*
X192589999Y-126035000I249999J0D01*
G01*
X193490001Y-126035000D01*
G75*
G02*
X193740000Y-126284999I0J-249999D01*
G01*
X193740000Y-126985001D01*
G75*
G02*
X193490001Y-127235000I-249999J0D01*
G01*
G37*
G36*
G01*
X193490001Y-129235000D02*
X192589999Y-129235000D01*
G75*
G02*
X192340000Y-128985001I0J249999D01*
G01*
X192340000Y-128284999D01*
G75*
G02*
X192589999Y-128035000I249999J0D01*
G01*
X193490001Y-128035000D01*
G75*
G02*
X193740000Y-128284999I0J-249999D01*
G01*
X193740000Y-128985001D01*
G75*
G02*
X193490001Y-129235000I-249999J0D01*
G01*
G37*
%TD*%
%TO.C,R21*%
G36*
G01*
X191370000Y-148774999D02*
X191370000Y-149675001D01*
G75*
G02*
X191120001Y-149925000I-249999J0D01*
G01*
X190419999Y-149925000D01*
G75*
G02*
X190170000Y-149675001I0J249999D01*
G01*
X190170000Y-148774999D01*
G75*
G02*
X190419999Y-148525000I249999J0D01*
G01*
X191120001Y-148525000D01*
G75*
G02*
X191370000Y-148774999I0J-249999D01*
G01*
G37*
G36*
G01*
X193370000Y-148774999D02*
X193370000Y-149675001D01*
G75*
G02*
X193120001Y-149925000I-249999J0D01*
G01*
X192419999Y-149925000D01*
G75*
G02*
X192170000Y-149675001I0J249999D01*
G01*
X192170000Y-148774999D01*
G75*
G02*
X192419999Y-148525000I249999J0D01*
G01*
X193120001Y-148525000D01*
G75*
G02*
X193370000Y-148774999I0J-249999D01*
G01*
G37*
%TD*%
%TO.C,R17*%
G36*
G01*
X206410000Y-152215001D02*
X206410000Y-151314999D01*
G75*
G02*
X206659999Y-151065000I249999J0D01*
G01*
X207360001Y-151065000D01*
G75*
G02*
X207610000Y-151314999I0J-249999D01*
G01*
X207610000Y-152215001D01*
G75*
G02*
X207360001Y-152465000I-249999J0D01*
G01*
X206659999Y-152465000D01*
G75*
G02*
X206410000Y-152215001I0J249999D01*
G01*
G37*
G36*
G01*
X204410000Y-152215001D02*
X204410000Y-151314999D01*
G75*
G02*
X204659999Y-151065000I249999J0D01*
G01*
X205360001Y-151065000D01*
G75*
G02*
X205610000Y-151314999I0J-249999D01*
G01*
X205610000Y-152215001D01*
G75*
G02*
X205360001Y-152465000I-249999J0D01*
G01*
X204659999Y-152465000D01*
G75*
G02*
X204410000Y-152215001I0J249999D01*
G01*
G37*
%TD*%
%TO.C,R14*%
G36*
G01*
X221015000Y-140785001D02*
X221015000Y-139884999D01*
G75*
G02*
X221264999Y-139635000I249999J0D01*
G01*
X221965001Y-139635000D01*
G75*
G02*
X222215000Y-139884999I0J-249999D01*
G01*
X222215000Y-140785001D01*
G75*
G02*
X221965001Y-141035000I-249999J0D01*
G01*
X221264999Y-141035000D01*
G75*
G02*
X221015000Y-140785001I0J249999D01*
G01*
G37*
G36*
G01*
X219015000Y-140785001D02*
X219015000Y-139884999D01*
G75*
G02*
X219264999Y-139635000I249999J0D01*
G01*
X219965001Y-139635000D01*
G75*
G02*
X220215000Y-139884999I0J-249999D01*
G01*
X220215000Y-140785001D01*
G75*
G02*
X219965001Y-141035000I-249999J0D01*
G01*
X219264999Y-141035000D01*
G75*
G02*
X219015000Y-140785001I0J249999D01*
G01*
G37*
%TD*%
%TO.C,R13*%
G36*
G01*
X207045000Y-140785001D02*
X207045000Y-139884999D01*
G75*
G02*
X207294999Y-139635000I249999J0D01*
G01*
X207995001Y-139635000D01*
G75*
G02*
X208245000Y-139884999I0J-249999D01*
G01*
X208245000Y-140785001D01*
G75*
G02*
X207995001Y-141035000I-249999J0D01*
G01*
X207294999Y-141035000D01*
G75*
G02*
X207045000Y-140785001I0J249999D01*
G01*
G37*
G36*
G01*
X205045000Y-140785001D02*
X205045000Y-139884999D01*
G75*
G02*
X205294999Y-139635000I249999J0D01*
G01*
X205995001Y-139635000D01*
G75*
G02*
X206245000Y-139884999I0J-249999D01*
G01*
X206245000Y-140785001D01*
G75*
G02*
X205995001Y-141035000I-249999J0D01*
G01*
X205294999Y-141035000D01*
G75*
G02*
X205045000Y-140785001I0J249999D01*
G01*
G37*
%TD*%
%TO.C,R5*%
G36*
G01*
X195129999Y-128035000D02*
X196030001Y-128035000D01*
G75*
G02*
X196280000Y-128284999I0J-249999D01*
G01*
X196280000Y-128985001D01*
G75*
G02*
X196030001Y-129235000I-249999J0D01*
G01*
X195129999Y-129235000D01*
G75*
G02*
X194880000Y-128985001I0J249999D01*
G01*
X194880000Y-128284999D01*
G75*
G02*
X195129999Y-128035000I249999J0D01*
G01*
G37*
G36*
G01*
X195129999Y-126035000D02*
X196030001Y-126035000D01*
G75*
G02*
X196280000Y-126284999I0J-249999D01*
G01*
X196280000Y-126985001D01*
G75*
G02*
X196030001Y-127235000I-249999J0D01*
G01*
X195129999Y-127235000D01*
G75*
G02*
X194880000Y-126985001I0J249999D01*
G01*
X194880000Y-126284999D01*
G75*
G02*
X195129999Y-126035000I249999J0D01*
G01*
G37*
%TD*%
%TO.C,R2*%
G36*
G01*
X222065001Y-150460000D02*
X221164999Y-150460000D01*
G75*
G02*
X220915000Y-150210001I0J249999D01*
G01*
X220915000Y-149509999D01*
G75*
G02*
X221164999Y-149260000I249999J0D01*
G01*
X222065001Y-149260000D01*
G75*
G02*
X222315000Y-149509999I0J-249999D01*
G01*
X222315000Y-150210001D01*
G75*
G02*
X222065001Y-150460000I-249999J0D01*
G01*
G37*
G36*
G01*
X222065001Y-152460000D02*
X221164999Y-152460000D01*
G75*
G02*
X220915000Y-152210001I0J249999D01*
G01*
X220915000Y-151509999D01*
G75*
G02*
X221164999Y-151260000I249999J0D01*
G01*
X222065001Y-151260000D01*
G75*
G02*
X222315000Y-151509999I0J-249999D01*
G01*
X222315000Y-152210001D01*
G75*
G02*
X222065001Y-152460000I-249999J0D01*
G01*
G37*
%TD*%
D20*
%TO.C,Q7*%
X211185000Y-150495000D03*
X209185000Y-149545000D03*
X209185000Y-151445000D03*
%TD*%
%TO.C,Q5*%
X225790000Y-139065000D03*
X223790000Y-138115000D03*
X223790000Y-140015000D03*
%TD*%
%TO.C,Q4*%
X211820000Y-139065000D03*
X209820000Y-138115000D03*
X209820000Y-140015000D03*
%TD*%
D23*
%TO.C,J9*%
X229684000Y-61468000D03*
X238184000Y-61468000D03*
%TD*%
D18*
%TO.C,J8*%
X225940000Y-142875000D03*
X223440000Y-142875000D03*
X220940000Y-142875000D03*
G36*
G01*
X217590000Y-143600000D02*
X217590000Y-142150000D01*
G75*
G02*
X217840000Y-141900000I250000J0D01*
G01*
X219040000Y-141900000D01*
G75*
G02*
X219290000Y-142150000I0J-250000D01*
G01*
X219290000Y-143600000D01*
G75*
G02*
X219040000Y-143850000I-250000J0D01*
G01*
X217840000Y-143850000D01*
G75*
G02*
X217590000Y-143600000I0J250000D01*
G01*
G37*
%TD*%
%TO.C,J7*%
X211970000Y-142875000D03*
X209470000Y-142875000D03*
X206970000Y-142875000D03*
G36*
G01*
X203620000Y-143600000D02*
X203620000Y-142150000D01*
G75*
G02*
X203870000Y-141900000I250000J0D01*
G01*
X205070000Y-141900000D01*
G75*
G02*
X205320000Y-142150000I0J-250000D01*
G01*
X205320000Y-143600000D01*
G75*
G02*
X205070000Y-143850000I-250000J0D01*
G01*
X203870000Y-143850000D01*
G75*
G02*
X203620000Y-143600000I0J250000D01*
G01*
G37*
%TD*%
%TO.C,J3*%
X226020000Y-154305000D03*
X223520000Y-154305000D03*
X221020000Y-154305000D03*
G36*
G01*
X217670000Y-155030000D02*
X217670000Y-153580000D01*
G75*
G02*
X217920000Y-153330000I250000J0D01*
G01*
X219120000Y-153330000D01*
G75*
G02*
X219370000Y-153580000I0J-250000D01*
G01*
X219370000Y-155030000D01*
G75*
G02*
X219120000Y-155280000I-250000J0D01*
G01*
X217920000Y-155280000D01*
G75*
G02*
X217670000Y-155030000I0J250000D01*
G01*
G37*
%TD*%
%TO.C,J2*%
X211970000Y-154305000D03*
X209470000Y-154305000D03*
X206970000Y-154305000D03*
G36*
G01*
X203620000Y-155030000D02*
X203620000Y-153580000D01*
G75*
G02*
X203870000Y-153330000I250000J0D01*
G01*
X205070000Y-153330000D01*
G75*
G02*
X205320000Y-153580000I0J-250000D01*
G01*
X205320000Y-155030000D01*
G75*
G02*
X205070000Y-155280000I-250000J0D01*
G01*
X203870000Y-155280000D01*
G75*
G02*
X203620000Y-155030000I0J250000D01*
G01*
G37*
%TD*%
D24*
%TO.C,H4*%
X238125000Y-86360000D03*
%TD*%
%TO.C,H2*%
X222631000Y-61595000D03*
%TD*%
%TO.C,C18*%
G36*
G01*
X214582500Y-146210000D02*
X214582500Y-147160000D01*
G75*
G02*
X214332500Y-147410000I-250000J0D01*
G01*
X213657500Y-147410000D01*
G75*
G02*
X213407500Y-147160000I0J250000D01*
G01*
X213407500Y-146210000D01*
G75*
G02*
X213657500Y-145960000I250000J0D01*
G01*
X214332500Y-145960000D01*
G75*
G02*
X214582500Y-146210000I0J-250000D01*
G01*
G37*
G36*
G01*
X216657500Y-146210000D02*
X216657500Y-147160000D01*
G75*
G02*
X216407500Y-147410000I-250000J0D01*
G01*
X215732500Y-147410000D01*
G75*
G02*
X215482500Y-147160000I0J250000D01*
G01*
X215482500Y-146210000D01*
G75*
G02*
X215732500Y-145960000I250000J0D01*
G01*
X216407500Y-145960000D01*
G75*
G02*
X216657500Y-146210000I0J-250000D01*
G01*
G37*
%TD*%
%TO.C,C2*%
G36*
G01*
X204517500Y-113505000D02*
X204517500Y-112555000D01*
G75*
G02*
X204767500Y-112305000I250000J0D01*
G01*
X205442500Y-112305000D01*
G75*
G02*
X205692500Y-112555000I0J-250000D01*
G01*
X205692500Y-113505000D01*
G75*
G02*
X205442500Y-113755000I-250000J0D01*
G01*
X204767500Y-113755000D01*
G75*
G02*
X204517500Y-113505000I0J250000D01*
G01*
G37*
G36*
G01*
X202442500Y-113505000D02*
X202442500Y-112555000D01*
G75*
G02*
X202692500Y-112305000I250000J0D01*
G01*
X203367500Y-112305000D01*
G75*
G02*
X203617500Y-112555000I0J-250000D01*
G01*
X203617500Y-113505000D01*
G75*
G02*
X203367500Y-113755000I-250000J0D01*
G01*
X202692500Y-113755000D01*
G75*
G02*
X202442500Y-113505000I0J250000D01*
G01*
G37*
%TD*%
%TO.C,C1*%
G36*
G01*
X234097500Y-103030000D02*
X234097500Y-103980000D01*
G75*
G02*
X233847500Y-104230000I-250000J0D01*
G01*
X233172500Y-104230000D01*
G75*
G02*
X232922500Y-103980000I0J250000D01*
G01*
X232922500Y-103030000D01*
G75*
G02*
X233172500Y-102780000I250000J0D01*
G01*
X233847500Y-102780000D01*
G75*
G02*
X234097500Y-103030000I0J-250000D01*
G01*
G37*
G36*
G01*
X236172500Y-103030000D02*
X236172500Y-103980000D01*
G75*
G02*
X235922500Y-104230000I-250000J0D01*
G01*
X235247500Y-104230000D01*
G75*
G02*
X234997500Y-103980000I0J250000D01*
G01*
X234997500Y-103030000D01*
G75*
G02*
X235247500Y-102780000I250000J0D01*
G01*
X235922500Y-102780000D01*
G75*
G02*
X236172500Y-103030000I0J-250000D01*
G01*
G37*
%TD*%
%TO.C,R36*%
G36*
G01*
X195345000Y-116655001D02*
X195345000Y-115754999D01*
G75*
G02*
X195594999Y-115505000I249999J0D01*
G01*
X196295001Y-115505000D01*
G75*
G02*
X196545000Y-115754999I0J-249999D01*
G01*
X196545000Y-116655001D01*
G75*
G02*
X196295001Y-116905000I-249999J0D01*
G01*
X195594999Y-116905000D01*
G75*
G02*
X195345000Y-116655001I0J249999D01*
G01*
G37*
G36*
G01*
X193345000Y-116655001D02*
X193345000Y-115754999D01*
G75*
G02*
X193594999Y-115505000I249999J0D01*
G01*
X194295001Y-115505000D01*
G75*
G02*
X194545000Y-115754999I0J-249999D01*
G01*
X194545000Y-116655001D01*
G75*
G02*
X194295001Y-116905000I-249999J0D01*
G01*
X193594999Y-116905000D01*
G75*
G02*
X193345000Y-116655001I0J249999D01*
G01*
G37*
%TD*%
%TO.C,R35*%
G36*
G01*
X194545000Y-118294999D02*
X194545000Y-119195001D01*
G75*
G02*
X194295001Y-119445000I-249999J0D01*
G01*
X193594999Y-119445000D01*
G75*
G02*
X193345000Y-119195001I0J249999D01*
G01*
X193345000Y-118294999D01*
G75*
G02*
X193594999Y-118045000I249999J0D01*
G01*
X194295001Y-118045000D01*
G75*
G02*
X194545000Y-118294999I0J-249999D01*
G01*
G37*
G36*
G01*
X196545000Y-118294999D02*
X196545000Y-119195001D01*
G75*
G02*
X196295001Y-119445000I-249999J0D01*
G01*
X195594999Y-119445000D01*
G75*
G02*
X195345000Y-119195001I0J249999D01*
G01*
X195345000Y-118294999D01*
G75*
G02*
X195594999Y-118045000I249999J0D01*
G01*
X196295001Y-118045000D01*
G75*
G02*
X196545000Y-118294999I0J-249999D01*
G01*
G37*
%TD*%
D16*
%TO.C,U33*%
X175895000Y-90805000D03*
X175895000Y-93345000D03*
X175895000Y-95885000D03*
X175895000Y-98425000D03*
X175895000Y-100965000D03*
X175895000Y-103505000D03*
X175895000Y-106045000D03*
X175895000Y-108585000D03*
%TD*%
%TO.C,U24*%
X146050000Y-113665000D03*
X146050000Y-116205000D03*
%TD*%
%TO.C,U23*%
X146050000Y-104775000D03*
X146050000Y-107315000D03*
%TD*%
%TO.C,U10*%
X146050000Y-95885000D03*
X146050000Y-98425000D03*
%TD*%
%TO.C,U9*%
X146050000Y-86995000D03*
X146050000Y-89535000D03*
%TD*%
%TO.C,U8*%
X146050000Y-78105000D03*
X146050000Y-80645000D03*
%TD*%
%TO.C,U7*%
X146050000Y-69215000D03*
X146050000Y-71755000D03*
%TD*%
D24*
%TO.C,H5*%
X147320000Y-62230000D03*
%TD*%
%TO.C,H1*%
X144780000Y-154940000D03*
%TD*%
D25*
%TO.C,U29*%
X171450000Y-130610000D03*
D26*
X168910000Y-139760000D03*
X173990000Y-139760000D03*
%TD*%
D27*
%TO.C,U28*%
X169545000Y-149860000D03*
D28*
X169545000Y-154860000D03*
%TD*%
%TO.C,U27*%
G36*
G01*
X163655000Y-150900000D02*
X163655000Y-153900000D01*
G75*
G02*
X162155000Y-155400000I-1500000J0D01*
G01*
X159155000Y-155400000D01*
G75*
G02*
X157655000Y-153900000I0J1500000D01*
G01*
X157655000Y-150900000D01*
G75*
G02*
X159155000Y-149400000I1500000J0D01*
G01*
X162155000Y-149400000D01*
G75*
G02*
X163655000Y-150900000I0J-1500000D01*
G01*
G37*
D29*
X153455000Y-152400000D03*
%TD*%
D30*
%TO.C,U26*%
X156641800Y-113563400D03*
X157480000Y-113563400D03*
X158318200Y-113563400D03*
X156641800Y-115036600D03*
X157480000Y-115036600D03*
X158318200Y-115036600D03*
X157480000Y-116459000D03*
X156641800Y-116459000D03*
X158318200Y-116459000D03*
%TD*%
%TO.C,U25*%
X156641800Y-104673400D03*
X157480000Y-104673400D03*
X158318200Y-104673400D03*
X156641800Y-106146600D03*
X157480000Y-106146600D03*
X158318200Y-106146600D03*
X157480000Y-107569000D03*
X156641800Y-107569000D03*
X158318200Y-107569000D03*
%TD*%
%TO.C,U14*%
X156641800Y-95783400D03*
X157480000Y-95783400D03*
X158318200Y-95783400D03*
X156641800Y-97256600D03*
X157480000Y-97256600D03*
X158318200Y-97256600D03*
X157480000Y-98679000D03*
X156641800Y-98679000D03*
X158318200Y-98679000D03*
%TD*%
%TO.C,U13*%
X156641800Y-86893400D03*
X157480000Y-86893400D03*
X158318200Y-86893400D03*
X156641800Y-88366600D03*
X157480000Y-88366600D03*
X158318200Y-88366600D03*
X157480000Y-89789000D03*
X156641800Y-89789000D03*
X158318200Y-89789000D03*
%TD*%
%TO.C,U12*%
X156641800Y-78003400D03*
X157480000Y-78003400D03*
X158318200Y-78003400D03*
X156641800Y-79476600D03*
X157480000Y-79476600D03*
X158318200Y-79476600D03*
X157480000Y-80899000D03*
X156641800Y-80899000D03*
X158318200Y-80899000D03*
%TD*%
%TO.C,U11*%
X156641800Y-69113400D03*
X157480000Y-69113400D03*
X158318200Y-69113400D03*
X156641800Y-70586600D03*
X157480000Y-70586600D03*
X158318200Y-70586600D03*
X157480000Y-72009000D03*
X156641800Y-72009000D03*
X158318200Y-72009000D03*
%TD*%
D31*
%TO.C,U3*%
X144780000Y-139780000D03*
D28*
X144780000Y-144780000D03*
%TD*%
D31*
%TO.C,U2*%
X144780000Y-125810000D03*
D28*
X144780000Y-130810000D03*
%TD*%
D14*
%TO.C,SW1*%
X161925000Y-127635000D03*
D15*
X164465000Y-127635000D03*
%TD*%
%TO.C,R23*%
G36*
G01*
X179305000Y-108134999D02*
X179305000Y-109035001D01*
G75*
G02*
X179055001Y-109285000I-249999J0D01*
G01*
X178354999Y-109285000D01*
G75*
G02*
X178105000Y-109035001I0J249999D01*
G01*
X178105000Y-108134999D01*
G75*
G02*
X178354999Y-107885000I249999J0D01*
G01*
X179055001Y-107885000D01*
G75*
G02*
X179305000Y-108134999I0J-249999D01*
G01*
G37*
G36*
G01*
X181305000Y-108134999D02*
X181305000Y-109035001D01*
G75*
G02*
X181055001Y-109285000I-249999J0D01*
G01*
X180354999Y-109285000D01*
G75*
G02*
X180105000Y-109035001I0J249999D01*
G01*
X180105000Y-108134999D01*
G75*
G02*
X180354999Y-107885000I249999J0D01*
G01*
X181055001Y-107885000D01*
G75*
G02*
X181305000Y-108134999I0J-249999D01*
G01*
G37*
%TD*%
%TO.C,R19*%
G36*
G01*
X179305000Y-105594999D02*
X179305000Y-106495001D01*
G75*
G02*
X179055001Y-106745000I-249999J0D01*
G01*
X178354999Y-106745000D01*
G75*
G02*
X178105000Y-106495001I0J249999D01*
G01*
X178105000Y-105594999D01*
G75*
G02*
X178354999Y-105345000I249999J0D01*
G01*
X179055001Y-105345000D01*
G75*
G02*
X179305000Y-105594999I0J-249999D01*
G01*
G37*
G36*
G01*
X181305000Y-105594999D02*
X181305000Y-106495001D01*
G75*
G02*
X181055001Y-106745000I-249999J0D01*
G01*
X180354999Y-106745000D01*
G75*
G02*
X180105000Y-106495001I0J249999D01*
G01*
X180105000Y-105594999D01*
G75*
G02*
X180354999Y-105345000I249999J0D01*
G01*
X181055001Y-105345000D01*
G75*
G02*
X181305000Y-105594999I0J-249999D01*
G01*
G37*
%TD*%
%TO.C,R9*%
G36*
G01*
X218255001Y-118980000D02*
X217354999Y-118980000D01*
G75*
G02*
X217105000Y-118730001I0J249999D01*
G01*
X217105000Y-118029999D01*
G75*
G02*
X217354999Y-117780000I249999J0D01*
G01*
X218255001Y-117780000D01*
G75*
G02*
X218505000Y-118029999I0J-249999D01*
G01*
X218505000Y-118730001D01*
G75*
G02*
X218255001Y-118980000I-249999J0D01*
G01*
G37*
G36*
G01*
X218255001Y-120980000D02*
X217354999Y-120980000D01*
G75*
G02*
X217105000Y-120730001I0J249999D01*
G01*
X217105000Y-120029999D01*
G75*
G02*
X217354999Y-119780000I249999J0D01*
G01*
X218255001Y-119780000D01*
G75*
G02*
X218505000Y-120029999I0J-249999D01*
G01*
X218505000Y-120730001D01*
G75*
G02*
X218255001Y-120980000I-249999J0D01*
G01*
G37*
%TD*%
%TO.C,R6*%
G36*
G01*
X219110000Y-116655001D02*
X219110000Y-115754999D01*
G75*
G02*
X219359999Y-115505000I249999J0D01*
G01*
X220060001Y-115505000D01*
G75*
G02*
X220310000Y-115754999I0J-249999D01*
G01*
X220310000Y-116655001D01*
G75*
G02*
X220060001Y-116905000I-249999J0D01*
G01*
X219359999Y-116905000D01*
G75*
G02*
X219110000Y-116655001I0J249999D01*
G01*
G37*
G36*
G01*
X217110000Y-116655001D02*
X217110000Y-115754999D01*
G75*
G02*
X217359999Y-115505000I249999J0D01*
G01*
X218060001Y-115505000D01*
G75*
G02*
X218310000Y-115754999I0J-249999D01*
G01*
X218310000Y-116655001D01*
G75*
G02*
X218060001Y-116905000I-249999J0D01*
G01*
X217359999Y-116905000D01*
G75*
G02*
X217110000Y-116655001I0J249999D01*
G01*
G37*
%TD*%
D20*
%TO.C,Q8*%
X222615000Y-119380000D03*
X220615000Y-118430000D03*
X220615000Y-120330000D03*
%TD*%
D32*
%TO.C,D9*%
X184150000Y-81280000D03*
X184150000Y-82550000D03*
X184150000Y-83820000D03*
D33*
X184150000Y-85090000D03*
%TD*%
D32*
%TO.C,D2*%
X196850000Y-81280000D03*
X196850000Y-82550000D03*
X196850000Y-83820000D03*
D33*
X196850000Y-85090000D03*
%TD*%
%TO.C,C9*%
G36*
G01*
X178217500Y-82075000D02*
X178217500Y-83025000D01*
G75*
G02*
X177967500Y-83275000I-250000J0D01*
G01*
X177292500Y-83275000D01*
G75*
G02*
X177042500Y-83025000I0J250000D01*
G01*
X177042500Y-82075000D01*
G75*
G02*
X177292500Y-81825000I250000J0D01*
G01*
X177967500Y-81825000D01*
G75*
G02*
X178217500Y-82075000I0J-250000D01*
G01*
G37*
G36*
G01*
X180292500Y-82075000D02*
X180292500Y-83025000D01*
G75*
G02*
X180042500Y-83275000I-250000J0D01*
G01*
X179367500Y-83275000D01*
G75*
G02*
X179117500Y-83025000I0J250000D01*
G01*
X179117500Y-82075000D01*
G75*
G02*
X179367500Y-81825000I250000J0D01*
G01*
X180042500Y-81825000D01*
G75*
G02*
X180292500Y-82075000I0J-250000D01*
G01*
G37*
%TD*%
D34*
%TO.C,BZ1*%
X226060000Y-116880000D03*
X226060000Y-121880000D03*
%TD*%
D35*
%TO.C,U1*%
X189230000Y-156115000D03*
X191770000Y-156115000D03*
D36*
X185420000Y-111125000D03*
X187960000Y-111125000D03*
X190500000Y-111125000D03*
X193040000Y-111125000D03*
X195580000Y-111125000D03*
D35*
X189318400Y-143875000D03*
X189318400Y-141875000D03*
X187318400Y-141875000D03*
X187318400Y-143875000D03*
X185318400Y-141875000D03*
D37*
X185318400Y-143875000D03*
D36*
X198120000Y-116205000D03*
X198120000Y-113665000D03*
X198120000Y-111125000D03*
X198120000Y-108585000D03*
X198120000Y-118745000D03*
X198120000Y-121285000D03*
X198120000Y-123825000D03*
X198120000Y-106045000D03*
X198120000Y-103505000D03*
X198120000Y-100965000D03*
X198120000Y-98425000D03*
X182880000Y-98425000D03*
X182880000Y-100965000D03*
X182880000Y-103505000D03*
X182880000Y-106045000D03*
X182880000Y-108585000D03*
X182880000Y-111125000D03*
X182880000Y-113665000D03*
X182880000Y-116205000D03*
X182880000Y-118745000D03*
X182880000Y-121285000D03*
X198120000Y-126365000D03*
X198120000Y-128905000D03*
X198120000Y-131445000D03*
X198120000Y-133985000D03*
X198120000Y-136525000D03*
X198120000Y-139065000D03*
X198120000Y-141605000D03*
X198120000Y-144145000D03*
X198120000Y-146685000D03*
X198120000Y-149225000D03*
X198120000Y-151765000D03*
X198120000Y-154305000D03*
D38*
X198120000Y-156845000D03*
D36*
X182880000Y-123825000D03*
X182880000Y-126365000D03*
X182880000Y-128905000D03*
X182880000Y-131445000D03*
X182880000Y-133985000D03*
X182880000Y-136525000D03*
X182880000Y-139065000D03*
X182880000Y-141605000D03*
X182880000Y-144145000D03*
X182880000Y-146685000D03*
X182880000Y-149225000D03*
X182880000Y-151765000D03*
X182880000Y-154305000D03*
X182880000Y-156845000D03*
D38*
X195069200Y-150545800D03*
D36*
X195069200Y-148005800D03*
X195069200Y-145465800D03*
X195069200Y-142925800D03*
X195069200Y-140385800D03*
X185420000Y-154305000D03*
%TD*%
M02*
