%TF.GenerationSoftware,KiCad,Pcbnew,5.1.10*%
%TF.CreationDate,2021-06-27T23:00:14+02:00*%
%TF.ProjectId,main_v1,6d61696e-5f76-4312-9e6b-696361645f70,rev?*%
%TF.SameCoordinates,Original*%
%TF.FileFunction,Paste,Top*%
%TF.FilePolarity,Positive*%
%FSLAX46Y46*%
G04 Gerber Fmt 4.6, Leading zero omitted, Abs format (unit mm)*
G04 Created by KiCad (PCBNEW 5.1.10) date 2021-06-27 23:00:14*
%MOMM*%
%LPD*%
G01*
G04 APERTURE LIST*
%ADD10R,1.000000X1.000000*%
%ADD11R,0.900000X0.800000*%
%ADD12R,0.800000X0.900000*%
%ADD13R,1.000000X2.000000*%
%ADD14R,1.500000X5.080000*%
%ADD15R,0.510000X0.700000*%
%ADD16R,2.650000X1.850000*%
%ADD17R,1.310000X0.450000*%
G04 APERTURE END LIST*
%TO.C,JP4*%
G36*
G01*
X159565000Y-127965000D02*
X156665000Y-127965000D01*
G75*
G02*
X156415000Y-127715000I0J250000D01*
G01*
X156415000Y-126915000D01*
G75*
G02*
X156665000Y-126665000I250000J0D01*
G01*
X159565000Y-126665000D01*
G75*
G02*
X159815000Y-126915000I0J-250000D01*
G01*
X159815000Y-127715000D01*
G75*
G02*
X159565000Y-127965000I-250000J0D01*
G01*
G37*
G36*
G01*
X159565000Y-132415000D02*
X156665000Y-132415000D01*
G75*
G02*
X156415000Y-132165000I0J250000D01*
G01*
X156415000Y-131365000D01*
G75*
G02*
X156665000Y-131115000I250000J0D01*
G01*
X159565000Y-131115000D01*
G75*
G02*
X159815000Y-131365000I0J-250000D01*
G01*
X159815000Y-132165000D01*
G75*
G02*
X159565000Y-132415000I-250000J0D01*
G01*
G37*
%TD*%
D10*
%TO.C,D13*%
X174625000Y-143530000D03*
X174625000Y-146030000D03*
%TD*%
%TO.C,D11*%
X187325000Y-154325000D03*
X187325000Y-156825000D03*
%TD*%
%TO.C,R16*%
G36*
G01*
X177511000Y-120707999D02*
X177511000Y-121608001D01*
G75*
G02*
X177261001Y-121858000I-249999J0D01*
G01*
X176560999Y-121858000D01*
G75*
G02*
X176311000Y-121608001I0J249999D01*
G01*
X176311000Y-120707999D01*
G75*
G02*
X176560999Y-120458000I249999J0D01*
G01*
X177261001Y-120458000D01*
G75*
G02*
X177511000Y-120707999I0J-249999D01*
G01*
G37*
G36*
G01*
X179511000Y-120707999D02*
X179511000Y-121608001D01*
G75*
G02*
X179261001Y-121858000I-249999J0D01*
G01*
X178560999Y-121858000D01*
G75*
G02*
X178311000Y-121608001I0J249999D01*
G01*
X178311000Y-120707999D01*
G75*
G02*
X178560999Y-120458000I249999J0D01*
G01*
X179261001Y-120458000D01*
G75*
G02*
X179511000Y-120707999I0J-249999D01*
G01*
G37*
%TD*%
%TO.C,U20*%
G36*
G01*
X227140000Y-135200000D02*
X226890000Y-135200000D01*
G75*
G02*
X226765000Y-135075000I0J125000D01*
G01*
X226765000Y-133900000D01*
G75*
G02*
X226890000Y-133775000I125000J0D01*
G01*
X227140000Y-133775000D01*
G75*
G02*
X227265000Y-133900000I0J-125000D01*
G01*
X227265000Y-135075000D01*
G75*
G02*
X227140000Y-135200000I-125000J0D01*
G01*
G37*
G36*
G01*
X228090000Y-135200000D02*
X227840000Y-135200000D01*
G75*
G02*
X227715000Y-135075000I0J125000D01*
G01*
X227715000Y-133900000D01*
G75*
G02*
X227840000Y-133775000I125000J0D01*
G01*
X228090000Y-133775000D01*
G75*
G02*
X228215000Y-133900000I0J-125000D01*
G01*
X228215000Y-135075000D01*
G75*
G02*
X228090000Y-135200000I-125000J0D01*
G01*
G37*
G36*
G01*
X229040000Y-135200000D02*
X228790000Y-135200000D01*
G75*
G02*
X228665000Y-135075000I0J125000D01*
G01*
X228665000Y-133900000D01*
G75*
G02*
X228790000Y-133775000I125000J0D01*
G01*
X229040000Y-133775000D01*
G75*
G02*
X229165000Y-133900000I0J-125000D01*
G01*
X229165000Y-135075000D01*
G75*
G02*
X229040000Y-135200000I-125000J0D01*
G01*
G37*
G36*
G01*
X229040000Y-132925000D02*
X228790000Y-132925000D01*
G75*
G02*
X228665000Y-132800000I0J125000D01*
G01*
X228665000Y-131625000D01*
G75*
G02*
X228790000Y-131500000I125000J0D01*
G01*
X229040000Y-131500000D01*
G75*
G02*
X229165000Y-131625000I0J-125000D01*
G01*
X229165000Y-132800000D01*
G75*
G02*
X229040000Y-132925000I-125000J0D01*
G01*
G37*
G36*
G01*
X227140000Y-132925000D02*
X226890000Y-132925000D01*
G75*
G02*
X226765000Y-132800000I0J125000D01*
G01*
X226765000Y-131625000D01*
G75*
G02*
X226890000Y-131500000I125000J0D01*
G01*
X227140000Y-131500000D01*
G75*
G02*
X227265000Y-131625000I0J-125000D01*
G01*
X227265000Y-132800000D01*
G75*
G02*
X227140000Y-132925000I-125000J0D01*
G01*
G37*
%TD*%
%TO.C,U5*%
G36*
G01*
X224845000Y-125540000D02*
X224845000Y-125290000D01*
G75*
G02*
X224970000Y-125165000I125000J0D01*
G01*
X226145000Y-125165000D01*
G75*
G02*
X226270000Y-125290000I0J-125000D01*
G01*
X226270000Y-125540000D01*
G75*
G02*
X226145000Y-125665000I-125000J0D01*
G01*
X224970000Y-125665000D01*
G75*
G02*
X224845000Y-125540000I0J125000D01*
G01*
G37*
G36*
G01*
X224845000Y-126490000D02*
X224845000Y-126240000D01*
G75*
G02*
X224970000Y-126115000I125000J0D01*
G01*
X226145000Y-126115000D01*
G75*
G02*
X226270000Y-126240000I0J-125000D01*
G01*
X226270000Y-126490000D01*
G75*
G02*
X226145000Y-126615000I-125000J0D01*
G01*
X224970000Y-126615000D01*
G75*
G02*
X224845000Y-126490000I0J125000D01*
G01*
G37*
G36*
G01*
X224845000Y-127440000D02*
X224845000Y-127190000D01*
G75*
G02*
X224970000Y-127065000I125000J0D01*
G01*
X226145000Y-127065000D01*
G75*
G02*
X226270000Y-127190000I0J-125000D01*
G01*
X226270000Y-127440000D01*
G75*
G02*
X226145000Y-127565000I-125000J0D01*
G01*
X224970000Y-127565000D01*
G75*
G02*
X224845000Y-127440000I0J125000D01*
G01*
G37*
G36*
G01*
X227120000Y-127440000D02*
X227120000Y-127190000D01*
G75*
G02*
X227245000Y-127065000I125000J0D01*
G01*
X228420000Y-127065000D01*
G75*
G02*
X228545000Y-127190000I0J-125000D01*
G01*
X228545000Y-127440000D01*
G75*
G02*
X228420000Y-127565000I-125000J0D01*
G01*
X227245000Y-127565000D01*
G75*
G02*
X227120000Y-127440000I0J125000D01*
G01*
G37*
G36*
G01*
X227120000Y-125540000D02*
X227120000Y-125290000D01*
G75*
G02*
X227245000Y-125165000I125000J0D01*
G01*
X228420000Y-125165000D01*
G75*
G02*
X228545000Y-125290000I0J-125000D01*
G01*
X228545000Y-125540000D01*
G75*
G02*
X228420000Y-125665000I-125000J0D01*
G01*
X227245000Y-125665000D01*
G75*
G02*
X227120000Y-125540000I0J125000D01*
G01*
G37*
%TD*%
%TO.C,R15*%
G36*
G01*
X231324999Y-134655000D02*
X232225001Y-134655000D01*
G75*
G02*
X232475000Y-134904999I0J-249999D01*
G01*
X232475000Y-135605001D01*
G75*
G02*
X232225001Y-135855000I-249999J0D01*
G01*
X231324999Y-135855000D01*
G75*
G02*
X231075000Y-135605001I0J249999D01*
G01*
X231075000Y-134904999D01*
G75*
G02*
X231324999Y-134655000I249999J0D01*
G01*
G37*
G36*
G01*
X231324999Y-132655000D02*
X232225001Y-132655000D01*
G75*
G02*
X232475000Y-132904999I0J-249999D01*
G01*
X232475000Y-133605001D01*
G75*
G02*
X232225001Y-133855000I-249999J0D01*
G01*
X231324999Y-133855000D01*
G75*
G02*
X231075000Y-133605001I0J249999D01*
G01*
X231075000Y-132904999D01*
G75*
G02*
X231324999Y-132655000I249999J0D01*
G01*
G37*
%TD*%
%TO.C,R3*%
G36*
G01*
X231540000Y-128720001D02*
X231540000Y-127819999D01*
G75*
G02*
X231789999Y-127570000I249999J0D01*
G01*
X232490001Y-127570000D01*
G75*
G02*
X232740000Y-127819999I0J-249999D01*
G01*
X232740000Y-128720001D01*
G75*
G02*
X232490001Y-128970000I-249999J0D01*
G01*
X231789999Y-128970000D01*
G75*
G02*
X231540000Y-128720001I0J249999D01*
G01*
G37*
G36*
G01*
X229540000Y-128720001D02*
X229540000Y-127819999D01*
G75*
G02*
X229789999Y-127570000I249999J0D01*
G01*
X230490001Y-127570000D01*
G75*
G02*
X230740000Y-127819999I0J-249999D01*
G01*
X230740000Y-128720001D01*
G75*
G02*
X230490001Y-128970000I-249999J0D01*
G01*
X229789999Y-128970000D01*
G75*
G02*
X229540000Y-128720001I0J249999D01*
G01*
G37*
%TD*%
D11*
%TO.C,Q6*%
X233410000Y-138430000D03*
X231410000Y-139380000D03*
X231410000Y-137480000D03*
%TD*%
D12*
%TO.C,Q2*%
X232410000Y-124095000D03*
X233360000Y-126095000D03*
X231460000Y-126095000D03*
%TD*%
%TO.C,J6*%
G36*
G01*
X234840000Y-130560000D02*
X236240000Y-130560000D01*
G75*
G02*
X236390000Y-130710000I0J-150000D01*
G01*
X236390000Y-131010000D01*
G75*
G02*
X236240000Y-131160000I-150000J0D01*
G01*
X234840000Y-131160000D01*
G75*
G02*
X234690000Y-131010000I0J150000D01*
G01*
X234690000Y-130710000D01*
G75*
G02*
X234840000Y-130560000I150000J0D01*
G01*
G37*
G36*
G01*
X234840000Y-131810000D02*
X236240000Y-131810000D01*
G75*
G02*
X236390000Y-131960000I0J-150000D01*
G01*
X236390000Y-132260000D01*
G75*
G02*
X236240000Y-132410000I-150000J0D01*
G01*
X234840000Y-132410000D01*
G75*
G02*
X234690000Y-132260000I0J150000D01*
G01*
X234690000Y-131960000D01*
G75*
G02*
X234840000Y-131810000I150000J0D01*
G01*
G37*
G36*
G01*
X234840000Y-133060000D02*
X236240000Y-133060000D01*
G75*
G02*
X236390000Y-133210000I0J-150000D01*
G01*
X236390000Y-133510000D01*
G75*
G02*
X236240000Y-133660000I-150000J0D01*
G01*
X234840000Y-133660000D01*
G75*
G02*
X234690000Y-133510000I0J150000D01*
G01*
X234690000Y-133210000D01*
G75*
G02*
X234840000Y-133060000I150000J0D01*
G01*
G37*
G36*
G01*
X234840000Y-134310000D02*
X236240000Y-134310000D01*
G75*
G02*
X236390000Y-134460000I0J-150000D01*
G01*
X236390000Y-134760000D01*
G75*
G02*
X236240000Y-134910000I-150000J0D01*
G01*
X234840000Y-134910000D01*
G75*
G02*
X234690000Y-134760000I0J150000D01*
G01*
X234690000Y-134460000D01*
G75*
G02*
X234840000Y-134310000I150000J0D01*
G01*
G37*
G36*
G01*
X234840000Y-135560000D02*
X236240000Y-135560000D01*
G75*
G02*
X236390000Y-135710000I0J-150000D01*
G01*
X236390000Y-136010000D01*
G75*
G02*
X236240000Y-136160000I-150000J0D01*
G01*
X234840000Y-136160000D01*
G75*
G02*
X234690000Y-136010000I0J150000D01*
G01*
X234690000Y-135710000D01*
G75*
G02*
X234840000Y-135560000I150000J0D01*
G01*
G37*
G36*
G01*
X234840000Y-136810000D02*
X236240000Y-136810000D01*
G75*
G02*
X236390000Y-136960000I0J-150000D01*
G01*
X236390000Y-137260000D01*
G75*
G02*
X236240000Y-137410000I-150000J0D01*
G01*
X234840000Y-137410000D01*
G75*
G02*
X234690000Y-137260000I0J150000D01*
G01*
X234690000Y-136960000D01*
G75*
G02*
X234840000Y-136810000I150000J0D01*
G01*
G37*
G36*
G01*
X237740000Y-128510000D02*
X240040000Y-128510000D01*
G75*
G02*
X240290000Y-128760000I0J-250000D01*
G01*
X240290000Y-129260000D01*
G75*
G02*
X240040000Y-129510000I-250000J0D01*
G01*
X237740000Y-129510000D01*
G75*
G02*
X237490000Y-129260000I0J250000D01*
G01*
X237490000Y-128760000D01*
G75*
G02*
X237740000Y-128510000I250000J0D01*
G01*
G37*
G36*
G01*
X237740000Y-138460000D02*
X240040000Y-138460000D01*
G75*
G02*
X240290000Y-138710000I0J-250000D01*
G01*
X240290000Y-139210000D01*
G75*
G02*
X240040000Y-139460000I-250000J0D01*
G01*
X237740000Y-139460000D01*
G75*
G02*
X237490000Y-139210000I0J250000D01*
G01*
X237490000Y-138710000D01*
G75*
G02*
X237740000Y-138460000I250000J0D01*
G01*
G37*
%TD*%
%TO.C,J4*%
G36*
G01*
X234840000Y-117225000D02*
X236240000Y-117225000D01*
G75*
G02*
X236390000Y-117375000I0J-150000D01*
G01*
X236390000Y-117675000D01*
G75*
G02*
X236240000Y-117825000I-150000J0D01*
G01*
X234840000Y-117825000D01*
G75*
G02*
X234690000Y-117675000I0J150000D01*
G01*
X234690000Y-117375000D01*
G75*
G02*
X234840000Y-117225000I150000J0D01*
G01*
G37*
G36*
G01*
X234840000Y-118475000D02*
X236240000Y-118475000D01*
G75*
G02*
X236390000Y-118625000I0J-150000D01*
G01*
X236390000Y-118925000D01*
G75*
G02*
X236240000Y-119075000I-150000J0D01*
G01*
X234840000Y-119075000D01*
G75*
G02*
X234690000Y-118925000I0J150000D01*
G01*
X234690000Y-118625000D01*
G75*
G02*
X234840000Y-118475000I150000J0D01*
G01*
G37*
G36*
G01*
X234840000Y-119725000D02*
X236240000Y-119725000D01*
G75*
G02*
X236390000Y-119875000I0J-150000D01*
G01*
X236390000Y-120175000D01*
G75*
G02*
X236240000Y-120325000I-150000J0D01*
G01*
X234840000Y-120325000D01*
G75*
G02*
X234690000Y-120175000I0J150000D01*
G01*
X234690000Y-119875000D01*
G75*
G02*
X234840000Y-119725000I150000J0D01*
G01*
G37*
G36*
G01*
X234840000Y-120975000D02*
X236240000Y-120975000D01*
G75*
G02*
X236390000Y-121125000I0J-150000D01*
G01*
X236390000Y-121425000D01*
G75*
G02*
X236240000Y-121575000I-150000J0D01*
G01*
X234840000Y-121575000D01*
G75*
G02*
X234690000Y-121425000I0J150000D01*
G01*
X234690000Y-121125000D01*
G75*
G02*
X234840000Y-120975000I150000J0D01*
G01*
G37*
G36*
G01*
X234840000Y-122225000D02*
X236240000Y-122225000D01*
G75*
G02*
X236390000Y-122375000I0J-150000D01*
G01*
X236390000Y-122675000D01*
G75*
G02*
X236240000Y-122825000I-150000J0D01*
G01*
X234840000Y-122825000D01*
G75*
G02*
X234690000Y-122675000I0J150000D01*
G01*
X234690000Y-122375000D01*
G75*
G02*
X234840000Y-122225000I150000J0D01*
G01*
G37*
G36*
G01*
X234840000Y-123475000D02*
X236240000Y-123475000D01*
G75*
G02*
X236390000Y-123625000I0J-150000D01*
G01*
X236390000Y-123925000D01*
G75*
G02*
X236240000Y-124075000I-150000J0D01*
G01*
X234840000Y-124075000D01*
G75*
G02*
X234690000Y-123925000I0J150000D01*
G01*
X234690000Y-123625000D01*
G75*
G02*
X234840000Y-123475000I150000J0D01*
G01*
G37*
G36*
G01*
X237740000Y-115175000D02*
X240040000Y-115175000D01*
G75*
G02*
X240290000Y-115425000I0J-250000D01*
G01*
X240290000Y-115925000D01*
G75*
G02*
X240040000Y-116175000I-250000J0D01*
G01*
X237740000Y-116175000D01*
G75*
G02*
X237490000Y-115925000I0J250000D01*
G01*
X237490000Y-115425000D01*
G75*
G02*
X237740000Y-115175000I250000J0D01*
G01*
G37*
G36*
G01*
X237740000Y-125125000D02*
X240040000Y-125125000D01*
G75*
G02*
X240290000Y-125375000I0J-250000D01*
G01*
X240290000Y-125875000D01*
G75*
G02*
X240040000Y-126125000I-250000J0D01*
G01*
X237740000Y-126125000D01*
G75*
G02*
X237490000Y-125875000I0J250000D01*
G01*
X237490000Y-125375000D01*
G75*
G02*
X237740000Y-125125000I250000J0D01*
G01*
G37*
%TD*%
%TO.C,J10*%
G36*
G01*
X236115000Y-155470000D02*
X234865000Y-155470000D01*
G75*
G02*
X234715000Y-155320000I0J150000D01*
G01*
X234715000Y-155020000D01*
G75*
G02*
X234865000Y-154870000I150000J0D01*
G01*
X236115000Y-154870000D01*
G75*
G02*
X236265000Y-155020000I0J-150000D01*
G01*
X236265000Y-155320000D01*
G75*
G02*
X236115000Y-155470000I-150000J0D01*
G01*
G37*
G36*
G01*
X236115000Y-154470000D02*
X234865000Y-154470000D01*
G75*
G02*
X234715000Y-154320000I0J150000D01*
G01*
X234715000Y-154020000D01*
G75*
G02*
X234865000Y-153870000I150000J0D01*
G01*
X236115000Y-153870000D01*
G75*
G02*
X236265000Y-154020000I0J-150000D01*
G01*
X236265000Y-154320000D01*
G75*
G02*
X236115000Y-154470000I-150000J0D01*
G01*
G37*
G36*
G01*
X236115000Y-153470000D02*
X234865000Y-153470000D01*
G75*
G02*
X234715000Y-153320000I0J150000D01*
G01*
X234715000Y-153020000D01*
G75*
G02*
X234865000Y-152870000I150000J0D01*
G01*
X236115000Y-152870000D01*
G75*
G02*
X236265000Y-153020000I0J-150000D01*
G01*
X236265000Y-153320000D01*
G75*
G02*
X236115000Y-153470000I-150000J0D01*
G01*
G37*
G36*
G01*
X236115000Y-152470000D02*
X234865000Y-152470000D01*
G75*
G02*
X234715000Y-152320000I0J150000D01*
G01*
X234715000Y-152020000D01*
G75*
G02*
X234865000Y-151870000I150000J0D01*
G01*
X236115000Y-151870000D01*
G75*
G02*
X236265000Y-152020000I0J-150000D01*
G01*
X236265000Y-152320000D01*
G75*
G02*
X236115000Y-152470000I-150000J0D01*
G01*
G37*
G36*
G01*
X240015001Y-157070000D02*
X238714999Y-157070000D01*
G75*
G02*
X238465000Y-156820001I0J249999D01*
G01*
X238465000Y-156119999D01*
G75*
G02*
X238714999Y-155870000I249999J0D01*
G01*
X240015001Y-155870000D01*
G75*
G02*
X240265000Y-156119999I0J-249999D01*
G01*
X240265000Y-156820001D01*
G75*
G02*
X240015001Y-157070000I-249999J0D01*
G01*
G37*
G36*
G01*
X240015001Y-151470000D02*
X238714999Y-151470000D01*
G75*
G02*
X238465000Y-151220001I0J249999D01*
G01*
X238465000Y-150519999D01*
G75*
G02*
X238714999Y-150270000I249999J0D01*
G01*
X240015001Y-150270000D01*
G75*
G02*
X240265000Y-150519999I0J-249999D01*
G01*
X240265000Y-151220001D01*
G75*
G02*
X240015001Y-151470000I-249999J0D01*
G01*
G37*
%TD*%
%TO.C,J1*%
G36*
G01*
X236115000Y-147215000D02*
X234865000Y-147215000D01*
G75*
G02*
X234715000Y-147065000I0J150000D01*
G01*
X234715000Y-146765000D01*
G75*
G02*
X234865000Y-146615000I150000J0D01*
G01*
X236115000Y-146615000D01*
G75*
G02*
X236265000Y-146765000I0J-150000D01*
G01*
X236265000Y-147065000D01*
G75*
G02*
X236115000Y-147215000I-150000J0D01*
G01*
G37*
G36*
G01*
X236115000Y-146215000D02*
X234865000Y-146215000D01*
G75*
G02*
X234715000Y-146065000I0J150000D01*
G01*
X234715000Y-145765000D01*
G75*
G02*
X234865000Y-145615000I150000J0D01*
G01*
X236115000Y-145615000D01*
G75*
G02*
X236265000Y-145765000I0J-150000D01*
G01*
X236265000Y-146065000D01*
G75*
G02*
X236115000Y-146215000I-150000J0D01*
G01*
G37*
G36*
G01*
X236115000Y-145215000D02*
X234865000Y-145215000D01*
G75*
G02*
X234715000Y-145065000I0J150000D01*
G01*
X234715000Y-144765000D01*
G75*
G02*
X234865000Y-144615000I150000J0D01*
G01*
X236115000Y-144615000D01*
G75*
G02*
X236265000Y-144765000I0J-150000D01*
G01*
X236265000Y-145065000D01*
G75*
G02*
X236115000Y-145215000I-150000J0D01*
G01*
G37*
G36*
G01*
X236115000Y-144215000D02*
X234865000Y-144215000D01*
G75*
G02*
X234715000Y-144065000I0J150000D01*
G01*
X234715000Y-143765000D01*
G75*
G02*
X234865000Y-143615000I150000J0D01*
G01*
X236115000Y-143615000D01*
G75*
G02*
X236265000Y-143765000I0J-150000D01*
G01*
X236265000Y-144065000D01*
G75*
G02*
X236115000Y-144215000I-150000J0D01*
G01*
G37*
G36*
G01*
X240015001Y-148815000D02*
X238714999Y-148815000D01*
G75*
G02*
X238465000Y-148565001I0J249999D01*
G01*
X238465000Y-147864999D01*
G75*
G02*
X238714999Y-147615000I249999J0D01*
G01*
X240015001Y-147615000D01*
G75*
G02*
X240265000Y-147864999I0J-249999D01*
G01*
X240265000Y-148565001D01*
G75*
G02*
X240015001Y-148815000I-249999J0D01*
G01*
G37*
G36*
G01*
X240015001Y-143215000D02*
X238714999Y-143215000D01*
G75*
G02*
X238465000Y-142965001I0J249999D01*
G01*
X238465000Y-142264999D01*
G75*
G02*
X238714999Y-142015000I249999J0D01*
G01*
X240015001Y-142015000D01*
G75*
G02*
X240265000Y-142264999I0J-249999D01*
G01*
X240265000Y-142965001D01*
G75*
G02*
X240015001Y-143215000I-249999J0D01*
G01*
G37*
%TD*%
%TO.C,C21*%
G36*
G01*
X230030000Y-150542500D02*
X230980000Y-150542500D01*
G75*
G02*
X231230000Y-150792500I0J-250000D01*
G01*
X231230000Y-151467500D01*
G75*
G02*
X230980000Y-151717500I-250000J0D01*
G01*
X230030000Y-151717500D01*
G75*
G02*
X229780000Y-151467500I0J250000D01*
G01*
X229780000Y-150792500D01*
G75*
G02*
X230030000Y-150542500I250000J0D01*
G01*
G37*
G36*
G01*
X230030000Y-148467500D02*
X230980000Y-148467500D01*
G75*
G02*
X231230000Y-148717500I0J-250000D01*
G01*
X231230000Y-149392500D01*
G75*
G02*
X230980000Y-149642500I-250000J0D01*
G01*
X230030000Y-149642500D01*
G75*
G02*
X229780000Y-149392500I0J250000D01*
G01*
X229780000Y-148717500D01*
G75*
G02*
X230030000Y-148467500I250000J0D01*
G01*
G37*
%TD*%
D13*
%TO.C,U32*%
X219949000Y-66168000D03*
X221949000Y-66168000D03*
X223949000Y-66168000D03*
X225949000Y-66168000D03*
X227949000Y-66168000D03*
X229949000Y-66168000D03*
X231949000Y-66168000D03*
X233949000Y-66168000D03*
X233949000Y-82168000D03*
X231949000Y-82168000D03*
X229949000Y-82168000D03*
X227949000Y-82168000D03*
X225949000Y-82168000D03*
X223949000Y-82168000D03*
X221949000Y-82168000D03*
X219949000Y-82168000D03*
%TD*%
%TO.C,U16*%
G36*
G01*
X204020000Y-123675000D02*
X204020000Y-123975000D01*
G75*
G02*
X203870000Y-124125000I-150000J0D01*
G01*
X202120000Y-124125000D01*
G75*
G02*
X201970000Y-123975000I0J150000D01*
G01*
X201970000Y-123675000D01*
G75*
G02*
X202120000Y-123525000I150000J0D01*
G01*
X203870000Y-123525000D01*
G75*
G02*
X204020000Y-123675000I0J-150000D01*
G01*
G37*
G36*
G01*
X204020000Y-122405000D02*
X204020000Y-122705000D01*
G75*
G02*
X203870000Y-122855000I-150000J0D01*
G01*
X202120000Y-122855000D01*
G75*
G02*
X201970000Y-122705000I0J150000D01*
G01*
X201970000Y-122405000D01*
G75*
G02*
X202120000Y-122255000I150000J0D01*
G01*
X203870000Y-122255000D01*
G75*
G02*
X204020000Y-122405000I0J-150000D01*
G01*
G37*
G36*
G01*
X204020000Y-121135000D02*
X204020000Y-121435000D01*
G75*
G02*
X203870000Y-121585000I-150000J0D01*
G01*
X202120000Y-121585000D01*
G75*
G02*
X201970000Y-121435000I0J150000D01*
G01*
X201970000Y-121135000D01*
G75*
G02*
X202120000Y-120985000I150000J0D01*
G01*
X203870000Y-120985000D01*
G75*
G02*
X204020000Y-121135000I0J-150000D01*
G01*
G37*
G36*
G01*
X204020000Y-119865000D02*
X204020000Y-120165000D01*
G75*
G02*
X203870000Y-120315000I-150000J0D01*
G01*
X202120000Y-120315000D01*
G75*
G02*
X201970000Y-120165000I0J150000D01*
G01*
X201970000Y-119865000D01*
G75*
G02*
X202120000Y-119715000I150000J0D01*
G01*
X203870000Y-119715000D01*
G75*
G02*
X204020000Y-119865000I0J-150000D01*
G01*
G37*
G36*
G01*
X204020000Y-118595000D02*
X204020000Y-118895000D01*
G75*
G02*
X203870000Y-119045000I-150000J0D01*
G01*
X202120000Y-119045000D01*
G75*
G02*
X201970000Y-118895000I0J150000D01*
G01*
X201970000Y-118595000D01*
G75*
G02*
X202120000Y-118445000I150000J0D01*
G01*
X203870000Y-118445000D01*
G75*
G02*
X204020000Y-118595000I0J-150000D01*
G01*
G37*
G36*
G01*
X204020000Y-117325000D02*
X204020000Y-117625000D01*
G75*
G02*
X203870000Y-117775000I-150000J0D01*
G01*
X202120000Y-117775000D01*
G75*
G02*
X201970000Y-117625000I0J150000D01*
G01*
X201970000Y-117325000D01*
G75*
G02*
X202120000Y-117175000I150000J0D01*
G01*
X203870000Y-117175000D01*
G75*
G02*
X204020000Y-117325000I0J-150000D01*
G01*
G37*
G36*
G01*
X204020000Y-116055000D02*
X204020000Y-116355000D01*
G75*
G02*
X203870000Y-116505000I-150000J0D01*
G01*
X202120000Y-116505000D01*
G75*
G02*
X201970000Y-116355000I0J150000D01*
G01*
X201970000Y-116055000D01*
G75*
G02*
X202120000Y-115905000I150000J0D01*
G01*
X203870000Y-115905000D01*
G75*
G02*
X204020000Y-116055000I0J-150000D01*
G01*
G37*
G36*
G01*
X204020000Y-114785000D02*
X204020000Y-115085000D01*
G75*
G02*
X203870000Y-115235000I-150000J0D01*
G01*
X202120000Y-115235000D01*
G75*
G02*
X201970000Y-115085000I0J150000D01*
G01*
X201970000Y-114785000D01*
G75*
G02*
X202120000Y-114635000I150000J0D01*
G01*
X203870000Y-114635000D01*
G75*
G02*
X204020000Y-114785000I0J-150000D01*
G01*
G37*
G36*
G01*
X213320000Y-114785000D02*
X213320000Y-115085000D01*
G75*
G02*
X213170000Y-115235000I-150000J0D01*
G01*
X211420000Y-115235000D01*
G75*
G02*
X211270000Y-115085000I0J150000D01*
G01*
X211270000Y-114785000D01*
G75*
G02*
X211420000Y-114635000I150000J0D01*
G01*
X213170000Y-114635000D01*
G75*
G02*
X213320000Y-114785000I0J-150000D01*
G01*
G37*
G36*
G01*
X213320000Y-116055000D02*
X213320000Y-116355000D01*
G75*
G02*
X213170000Y-116505000I-150000J0D01*
G01*
X211420000Y-116505000D01*
G75*
G02*
X211270000Y-116355000I0J150000D01*
G01*
X211270000Y-116055000D01*
G75*
G02*
X211420000Y-115905000I150000J0D01*
G01*
X213170000Y-115905000D01*
G75*
G02*
X213320000Y-116055000I0J-150000D01*
G01*
G37*
G36*
G01*
X213320000Y-117325000D02*
X213320000Y-117625000D01*
G75*
G02*
X213170000Y-117775000I-150000J0D01*
G01*
X211420000Y-117775000D01*
G75*
G02*
X211270000Y-117625000I0J150000D01*
G01*
X211270000Y-117325000D01*
G75*
G02*
X211420000Y-117175000I150000J0D01*
G01*
X213170000Y-117175000D01*
G75*
G02*
X213320000Y-117325000I0J-150000D01*
G01*
G37*
G36*
G01*
X213320000Y-118595000D02*
X213320000Y-118895000D01*
G75*
G02*
X213170000Y-119045000I-150000J0D01*
G01*
X211420000Y-119045000D01*
G75*
G02*
X211270000Y-118895000I0J150000D01*
G01*
X211270000Y-118595000D01*
G75*
G02*
X211420000Y-118445000I150000J0D01*
G01*
X213170000Y-118445000D01*
G75*
G02*
X213320000Y-118595000I0J-150000D01*
G01*
G37*
G36*
G01*
X213320000Y-119865000D02*
X213320000Y-120165000D01*
G75*
G02*
X213170000Y-120315000I-150000J0D01*
G01*
X211420000Y-120315000D01*
G75*
G02*
X211270000Y-120165000I0J150000D01*
G01*
X211270000Y-119865000D01*
G75*
G02*
X211420000Y-119715000I150000J0D01*
G01*
X213170000Y-119715000D01*
G75*
G02*
X213320000Y-119865000I0J-150000D01*
G01*
G37*
G36*
G01*
X213320000Y-121135000D02*
X213320000Y-121435000D01*
G75*
G02*
X213170000Y-121585000I-150000J0D01*
G01*
X211420000Y-121585000D01*
G75*
G02*
X211270000Y-121435000I0J150000D01*
G01*
X211270000Y-121135000D01*
G75*
G02*
X211420000Y-120985000I150000J0D01*
G01*
X213170000Y-120985000D01*
G75*
G02*
X213320000Y-121135000I0J-150000D01*
G01*
G37*
G36*
G01*
X213320000Y-122405000D02*
X213320000Y-122705000D01*
G75*
G02*
X213170000Y-122855000I-150000J0D01*
G01*
X211420000Y-122855000D01*
G75*
G02*
X211270000Y-122705000I0J150000D01*
G01*
X211270000Y-122405000D01*
G75*
G02*
X211420000Y-122255000I150000J0D01*
G01*
X213170000Y-122255000D01*
G75*
G02*
X213320000Y-122405000I0J-150000D01*
G01*
G37*
G36*
G01*
X213320000Y-123675000D02*
X213320000Y-123975000D01*
G75*
G02*
X213170000Y-124125000I-150000J0D01*
G01*
X211420000Y-124125000D01*
G75*
G02*
X211270000Y-123975000I0J150000D01*
G01*
X211270000Y-123675000D01*
G75*
G02*
X211420000Y-123525000I150000J0D01*
G01*
X213170000Y-123525000D01*
G75*
G02*
X213320000Y-123675000I0J-150000D01*
G01*
G37*
%TD*%
D14*
%TO.C,J9*%
X233934000Y-61468000D03*
X229684000Y-61468000D03*
X238184000Y-61468000D03*
%TD*%
D15*
%TO.C,Q9*%
X149545000Y-122665000D03*
X150495000Y-122665000D03*
X151445000Y-122665000D03*
X151445000Y-124985000D03*
X150495000Y-124985000D03*
X149545000Y-124985000D03*
%TD*%
%TO.C,C19*%
G36*
G01*
X163355000Y-142287500D02*
X164305000Y-142287500D01*
G75*
G02*
X164555000Y-142537500I0J-250000D01*
G01*
X164555000Y-143212500D01*
G75*
G02*
X164305000Y-143462500I-250000J0D01*
G01*
X163355000Y-143462500D01*
G75*
G02*
X163105000Y-143212500I0J250000D01*
G01*
X163105000Y-142537500D01*
G75*
G02*
X163355000Y-142287500I250000J0D01*
G01*
G37*
G36*
G01*
X163355000Y-140212500D02*
X164305000Y-140212500D01*
G75*
G02*
X164555000Y-140462500I0J-250000D01*
G01*
X164555000Y-141137500D01*
G75*
G02*
X164305000Y-141387500I-250000J0D01*
G01*
X163355000Y-141387500D01*
G75*
G02*
X163105000Y-141137500I0J250000D01*
G01*
X163105000Y-140462500D01*
G75*
G02*
X163355000Y-140212500I250000J0D01*
G01*
G37*
%TD*%
%TO.C,U31*%
G36*
G01*
X158345000Y-138910000D02*
X158195000Y-138910000D01*
G75*
G02*
X158120000Y-138835000I0J75000D01*
G01*
X158120000Y-137535000D01*
G75*
G02*
X158195000Y-137460000I75000J0D01*
G01*
X158345000Y-137460000D01*
G75*
G02*
X158420000Y-137535000I0J-75000D01*
G01*
X158420000Y-138835000D01*
G75*
G02*
X158345000Y-138910000I-75000J0D01*
G01*
G37*
G36*
G01*
X158845000Y-138910000D02*
X158695000Y-138910000D01*
G75*
G02*
X158620000Y-138835000I0J75000D01*
G01*
X158620000Y-137535000D01*
G75*
G02*
X158695000Y-137460000I75000J0D01*
G01*
X158845000Y-137460000D01*
G75*
G02*
X158920000Y-137535000I0J-75000D01*
G01*
X158920000Y-138835000D01*
G75*
G02*
X158845000Y-138910000I-75000J0D01*
G01*
G37*
G36*
G01*
X159345000Y-138910000D02*
X159195000Y-138910000D01*
G75*
G02*
X159120000Y-138835000I0J75000D01*
G01*
X159120000Y-137535000D01*
G75*
G02*
X159195000Y-137460000I75000J0D01*
G01*
X159345000Y-137460000D01*
G75*
G02*
X159420000Y-137535000I0J-75000D01*
G01*
X159420000Y-138835000D01*
G75*
G02*
X159345000Y-138910000I-75000J0D01*
G01*
G37*
G36*
G01*
X159845000Y-138910000D02*
X159695000Y-138910000D01*
G75*
G02*
X159620000Y-138835000I0J75000D01*
G01*
X159620000Y-137535000D01*
G75*
G02*
X159695000Y-137460000I75000J0D01*
G01*
X159845000Y-137460000D01*
G75*
G02*
X159920000Y-137535000I0J-75000D01*
G01*
X159920000Y-138835000D01*
G75*
G02*
X159845000Y-138910000I-75000J0D01*
G01*
G37*
G36*
G01*
X160345000Y-138910000D02*
X160195000Y-138910000D01*
G75*
G02*
X160120000Y-138835000I0J75000D01*
G01*
X160120000Y-137535000D01*
G75*
G02*
X160195000Y-137460000I75000J0D01*
G01*
X160345000Y-137460000D01*
G75*
G02*
X160420000Y-137535000I0J-75000D01*
G01*
X160420000Y-138835000D01*
G75*
G02*
X160345000Y-138910000I-75000J0D01*
G01*
G37*
G36*
G01*
X160845000Y-138910000D02*
X160695000Y-138910000D01*
G75*
G02*
X160620000Y-138835000I0J75000D01*
G01*
X160620000Y-137535000D01*
G75*
G02*
X160695000Y-137460000I75000J0D01*
G01*
X160845000Y-137460000D01*
G75*
G02*
X160920000Y-137535000I0J-75000D01*
G01*
X160920000Y-138835000D01*
G75*
G02*
X160845000Y-138910000I-75000J0D01*
G01*
G37*
G36*
G01*
X161345000Y-138910000D02*
X161195000Y-138910000D01*
G75*
G02*
X161120000Y-138835000I0J75000D01*
G01*
X161120000Y-137535000D01*
G75*
G02*
X161195000Y-137460000I75000J0D01*
G01*
X161345000Y-137460000D01*
G75*
G02*
X161420000Y-137535000I0J-75000D01*
G01*
X161420000Y-138835000D01*
G75*
G02*
X161345000Y-138910000I-75000J0D01*
G01*
G37*
G36*
G01*
X161845000Y-138910000D02*
X161695000Y-138910000D01*
G75*
G02*
X161620000Y-138835000I0J75000D01*
G01*
X161620000Y-137535000D01*
G75*
G02*
X161695000Y-137460000I75000J0D01*
G01*
X161845000Y-137460000D01*
G75*
G02*
X161920000Y-137535000I0J-75000D01*
G01*
X161920000Y-138835000D01*
G75*
G02*
X161845000Y-138910000I-75000J0D01*
G01*
G37*
G36*
G01*
X161845000Y-143210000D02*
X161695000Y-143210000D01*
G75*
G02*
X161620000Y-143135000I0J75000D01*
G01*
X161620000Y-141835000D01*
G75*
G02*
X161695000Y-141760000I75000J0D01*
G01*
X161845000Y-141760000D01*
G75*
G02*
X161920000Y-141835000I0J-75000D01*
G01*
X161920000Y-143135000D01*
G75*
G02*
X161845000Y-143210000I-75000J0D01*
G01*
G37*
G36*
G01*
X161345000Y-143210000D02*
X161195000Y-143210000D01*
G75*
G02*
X161120000Y-143135000I0J75000D01*
G01*
X161120000Y-141835000D01*
G75*
G02*
X161195000Y-141760000I75000J0D01*
G01*
X161345000Y-141760000D01*
G75*
G02*
X161420000Y-141835000I0J-75000D01*
G01*
X161420000Y-143135000D01*
G75*
G02*
X161345000Y-143210000I-75000J0D01*
G01*
G37*
G36*
G01*
X160845000Y-143210000D02*
X160695000Y-143210000D01*
G75*
G02*
X160620000Y-143135000I0J75000D01*
G01*
X160620000Y-141835000D01*
G75*
G02*
X160695000Y-141760000I75000J0D01*
G01*
X160845000Y-141760000D01*
G75*
G02*
X160920000Y-141835000I0J-75000D01*
G01*
X160920000Y-143135000D01*
G75*
G02*
X160845000Y-143210000I-75000J0D01*
G01*
G37*
G36*
G01*
X160345000Y-143210000D02*
X160195000Y-143210000D01*
G75*
G02*
X160120000Y-143135000I0J75000D01*
G01*
X160120000Y-141835000D01*
G75*
G02*
X160195000Y-141760000I75000J0D01*
G01*
X160345000Y-141760000D01*
G75*
G02*
X160420000Y-141835000I0J-75000D01*
G01*
X160420000Y-143135000D01*
G75*
G02*
X160345000Y-143210000I-75000J0D01*
G01*
G37*
G36*
G01*
X159845000Y-143210000D02*
X159695000Y-143210000D01*
G75*
G02*
X159620000Y-143135000I0J75000D01*
G01*
X159620000Y-141835000D01*
G75*
G02*
X159695000Y-141760000I75000J0D01*
G01*
X159845000Y-141760000D01*
G75*
G02*
X159920000Y-141835000I0J-75000D01*
G01*
X159920000Y-143135000D01*
G75*
G02*
X159845000Y-143210000I-75000J0D01*
G01*
G37*
G36*
G01*
X159345000Y-143210000D02*
X159195000Y-143210000D01*
G75*
G02*
X159120000Y-143135000I0J75000D01*
G01*
X159120000Y-141835000D01*
G75*
G02*
X159195000Y-141760000I75000J0D01*
G01*
X159345000Y-141760000D01*
G75*
G02*
X159420000Y-141835000I0J-75000D01*
G01*
X159420000Y-143135000D01*
G75*
G02*
X159345000Y-143210000I-75000J0D01*
G01*
G37*
G36*
G01*
X158845000Y-143210000D02*
X158695000Y-143210000D01*
G75*
G02*
X158620000Y-143135000I0J75000D01*
G01*
X158620000Y-141835000D01*
G75*
G02*
X158695000Y-141760000I75000J0D01*
G01*
X158845000Y-141760000D01*
G75*
G02*
X158920000Y-141835000I0J-75000D01*
G01*
X158920000Y-143135000D01*
G75*
G02*
X158845000Y-143210000I-75000J0D01*
G01*
G37*
G36*
G01*
X158345000Y-143210000D02*
X158195000Y-143210000D01*
G75*
G02*
X158120000Y-143135000I0J75000D01*
G01*
X158120000Y-141835000D01*
G75*
G02*
X158195000Y-141760000I75000J0D01*
G01*
X158345000Y-141760000D01*
G75*
G02*
X158420000Y-141835000I0J-75000D01*
G01*
X158420000Y-143135000D01*
G75*
G02*
X158345000Y-143210000I-75000J0D01*
G01*
G37*
%TD*%
%TO.C,R32*%
G36*
G01*
X168430001Y-137985000D02*
X165579999Y-137985000D01*
G75*
G02*
X165330000Y-137735001I0J249999D01*
G01*
X165330000Y-136834999D01*
G75*
G02*
X165579999Y-136585000I249999J0D01*
G01*
X168430001Y-136585000D01*
G75*
G02*
X168680000Y-136834999I0J-249999D01*
G01*
X168680000Y-137735001D01*
G75*
G02*
X168430001Y-137985000I-249999J0D01*
G01*
G37*
G36*
G01*
X168430001Y-144085000D02*
X165579999Y-144085000D01*
G75*
G02*
X165330000Y-143835001I0J249999D01*
G01*
X165330000Y-142934999D01*
G75*
G02*
X165579999Y-142685000I249999J0D01*
G01*
X168430001Y-142685000D01*
G75*
G02*
X168680000Y-142934999I0J-249999D01*
G01*
X168680000Y-143835001D01*
G75*
G02*
X168430001Y-144085000I-249999J0D01*
G01*
G37*
%TD*%
%TO.C,R31*%
G36*
G01*
X155095001Y-137985000D02*
X152244999Y-137985000D01*
G75*
G02*
X151995000Y-137735001I0J249999D01*
G01*
X151995000Y-136834999D01*
G75*
G02*
X152244999Y-136585000I249999J0D01*
G01*
X155095001Y-136585000D01*
G75*
G02*
X155345000Y-136834999I0J-249999D01*
G01*
X155345000Y-137735001D01*
G75*
G02*
X155095001Y-137985000I-249999J0D01*
G01*
G37*
G36*
G01*
X155095001Y-144085000D02*
X152244999Y-144085000D01*
G75*
G02*
X151995000Y-143835001I0J249999D01*
G01*
X151995000Y-142934999D01*
G75*
G02*
X152244999Y-142685000I249999J0D01*
G01*
X155095001Y-142685000D01*
G75*
G02*
X155345000Y-142934999I0J-249999D01*
G01*
X155345000Y-143835001D01*
G75*
G02*
X155095001Y-144085000I-249999J0D01*
G01*
G37*
%TD*%
%TO.C,R28*%
G36*
G01*
X150044999Y-134385000D02*
X150945001Y-134385000D01*
G75*
G02*
X151195000Y-134634999I0J-249999D01*
G01*
X151195000Y-135335001D01*
G75*
G02*
X150945001Y-135585000I-249999J0D01*
G01*
X150044999Y-135585000D01*
G75*
G02*
X149795000Y-135335001I0J249999D01*
G01*
X149795000Y-134634999D01*
G75*
G02*
X150044999Y-134385000I249999J0D01*
G01*
G37*
G36*
G01*
X150044999Y-132385000D02*
X150945001Y-132385000D01*
G75*
G02*
X151195000Y-132634999I0J-249999D01*
G01*
X151195000Y-133335001D01*
G75*
G02*
X150945001Y-133585000I-249999J0D01*
G01*
X150044999Y-133585000D01*
G75*
G02*
X149795000Y-133335001I0J249999D01*
G01*
X149795000Y-132634999D01*
G75*
G02*
X150044999Y-132385000I249999J0D01*
G01*
G37*
%TD*%
%TO.C,R27*%
G36*
G01*
X151949999Y-134385000D02*
X152850001Y-134385000D01*
G75*
G02*
X153100000Y-134634999I0J-249999D01*
G01*
X153100000Y-135335001D01*
G75*
G02*
X152850001Y-135585000I-249999J0D01*
G01*
X151949999Y-135585000D01*
G75*
G02*
X151700000Y-135335001I0J249999D01*
G01*
X151700000Y-134634999D01*
G75*
G02*
X151949999Y-134385000I249999J0D01*
G01*
G37*
G36*
G01*
X151949999Y-132385000D02*
X152850001Y-132385000D01*
G75*
G02*
X153100000Y-132634999I0J-249999D01*
G01*
X153100000Y-133335001D01*
G75*
G02*
X152850001Y-133585000I-249999J0D01*
G01*
X151949999Y-133585000D01*
G75*
G02*
X151700000Y-133335001I0J249999D01*
G01*
X151700000Y-132634999D01*
G75*
G02*
X151949999Y-132385000I249999J0D01*
G01*
G37*
%TD*%
%TO.C,R26*%
G36*
G01*
X155390001Y-123425000D02*
X154489999Y-123425000D01*
G75*
G02*
X154240000Y-123175001I0J249999D01*
G01*
X154240000Y-122474999D01*
G75*
G02*
X154489999Y-122225000I249999J0D01*
G01*
X155390001Y-122225000D01*
G75*
G02*
X155640000Y-122474999I0J-249999D01*
G01*
X155640000Y-123175001D01*
G75*
G02*
X155390001Y-123425000I-249999J0D01*
G01*
G37*
G36*
G01*
X155390001Y-125425000D02*
X154489999Y-125425000D01*
G75*
G02*
X154240000Y-125175001I0J249999D01*
G01*
X154240000Y-124474999D01*
G75*
G02*
X154489999Y-124225000I249999J0D01*
G01*
X155390001Y-124225000D01*
G75*
G02*
X155640000Y-124474999I0J-249999D01*
G01*
X155640000Y-125175001D01*
G75*
G02*
X155390001Y-125425000I-249999J0D01*
G01*
G37*
%TD*%
%TO.C,R25*%
G36*
G01*
X150044999Y-129940000D02*
X150945001Y-129940000D01*
G75*
G02*
X151195000Y-130189999I0J-249999D01*
G01*
X151195000Y-130890001D01*
G75*
G02*
X150945001Y-131140000I-249999J0D01*
G01*
X150044999Y-131140000D01*
G75*
G02*
X149795000Y-130890001I0J249999D01*
G01*
X149795000Y-130189999D01*
G75*
G02*
X150044999Y-129940000I249999J0D01*
G01*
G37*
G36*
G01*
X150044999Y-127940000D02*
X150945001Y-127940000D01*
G75*
G02*
X151195000Y-128189999I0J-249999D01*
G01*
X151195000Y-128890001D01*
G75*
G02*
X150945001Y-129140000I-249999J0D01*
G01*
X150044999Y-129140000D01*
G75*
G02*
X149795000Y-128890001I0J249999D01*
G01*
X149795000Y-128189999D01*
G75*
G02*
X150044999Y-127940000I249999J0D01*
G01*
G37*
%TD*%
D12*
%TO.C,Q10*%
X153670000Y-129175000D03*
X154620000Y-131175000D03*
X152720000Y-131175000D03*
%TD*%
D16*
%TO.C,U26*%
X157480000Y-113860000D03*
X157480000Y-116010000D03*
D17*
X154630000Y-116885000D03*
X154630000Y-116235000D03*
X154630000Y-115585000D03*
X154630000Y-114935000D03*
X154630000Y-114285000D03*
X154630000Y-113635000D03*
X154630000Y-112985000D03*
X160330000Y-112985000D03*
X160330000Y-113635000D03*
X160330000Y-114285000D03*
X160325000Y-114935000D03*
X160330000Y-115585000D03*
X160330000Y-116235000D03*
X160330000Y-116885000D03*
%TD*%
D16*
%TO.C,U25*%
X157480000Y-104970000D03*
X157480000Y-107120000D03*
D17*
X154630000Y-107995000D03*
X154630000Y-107345000D03*
X154630000Y-106695000D03*
X154630000Y-106045000D03*
X154630000Y-105395000D03*
X154630000Y-104745000D03*
X154630000Y-104095000D03*
X160330000Y-104095000D03*
X160330000Y-104745000D03*
X160330000Y-105395000D03*
X160325000Y-106045000D03*
X160330000Y-106695000D03*
X160330000Y-107345000D03*
X160330000Y-107995000D03*
%TD*%
%TO.C,U15*%
G36*
G01*
X163640000Y-122765000D02*
X163390000Y-122765000D01*
G75*
G02*
X163265000Y-122640000I0J125000D01*
G01*
X163265000Y-121465000D01*
G75*
G02*
X163390000Y-121340000I125000J0D01*
G01*
X163640000Y-121340000D01*
G75*
G02*
X163765000Y-121465000I0J-125000D01*
G01*
X163765000Y-122640000D01*
G75*
G02*
X163640000Y-122765000I-125000J0D01*
G01*
G37*
G36*
G01*
X165540000Y-122765000D02*
X165290000Y-122765000D01*
G75*
G02*
X165165000Y-122640000I0J125000D01*
G01*
X165165000Y-121465000D01*
G75*
G02*
X165290000Y-121340000I125000J0D01*
G01*
X165540000Y-121340000D01*
G75*
G02*
X165665000Y-121465000I0J-125000D01*
G01*
X165665000Y-122640000D01*
G75*
G02*
X165540000Y-122765000I-125000J0D01*
G01*
G37*
G36*
G01*
X165540000Y-125040000D02*
X165290000Y-125040000D01*
G75*
G02*
X165165000Y-124915000I0J125000D01*
G01*
X165165000Y-123740000D01*
G75*
G02*
X165290000Y-123615000I125000J0D01*
G01*
X165540000Y-123615000D01*
G75*
G02*
X165665000Y-123740000I0J-125000D01*
G01*
X165665000Y-124915000D01*
G75*
G02*
X165540000Y-125040000I-125000J0D01*
G01*
G37*
G36*
G01*
X164590000Y-125040000D02*
X164340000Y-125040000D01*
G75*
G02*
X164215000Y-124915000I0J125000D01*
G01*
X164215000Y-123740000D01*
G75*
G02*
X164340000Y-123615000I125000J0D01*
G01*
X164590000Y-123615000D01*
G75*
G02*
X164715000Y-123740000I0J-125000D01*
G01*
X164715000Y-124915000D01*
G75*
G02*
X164590000Y-125040000I-125000J0D01*
G01*
G37*
G36*
G01*
X163640000Y-125040000D02*
X163390000Y-125040000D01*
G75*
G02*
X163265000Y-124915000I0J125000D01*
G01*
X163265000Y-123740000D01*
G75*
G02*
X163390000Y-123615000I125000J0D01*
G01*
X163640000Y-123615000D01*
G75*
G02*
X163765000Y-123740000I0J-125000D01*
G01*
X163765000Y-124915000D01*
G75*
G02*
X163640000Y-125040000I-125000J0D01*
G01*
G37*
%TD*%
D16*
%TO.C,U14*%
X157480000Y-96080000D03*
X157480000Y-98230000D03*
D17*
X154630000Y-99105000D03*
X154630000Y-98455000D03*
X154630000Y-97805000D03*
X154630000Y-97155000D03*
X154630000Y-96505000D03*
X154630000Y-95855000D03*
X154630000Y-95205000D03*
X160330000Y-95205000D03*
X160330000Y-95855000D03*
X160330000Y-96505000D03*
X160325000Y-97155000D03*
X160330000Y-97805000D03*
X160330000Y-98455000D03*
X160330000Y-99105000D03*
%TD*%
D16*
%TO.C,U13*%
X157480000Y-87190000D03*
X157480000Y-89340000D03*
D17*
X154630000Y-90215000D03*
X154630000Y-89565000D03*
X154630000Y-88915000D03*
X154630000Y-88265000D03*
X154630000Y-87615000D03*
X154630000Y-86965000D03*
X154630000Y-86315000D03*
X160330000Y-86315000D03*
X160330000Y-86965000D03*
X160330000Y-87615000D03*
X160325000Y-88265000D03*
X160330000Y-88915000D03*
X160330000Y-89565000D03*
X160330000Y-90215000D03*
%TD*%
D16*
%TO.C,U12*%
X157480000Y-78300000D03*
X157480000Y-80450000D03*
D17*
X154630000Y-81325000D03*
X154630000Y-80675000D03*
X154630000Y-80025000D03*
X154630000Y-79375000D03*
X154630000Y-78725000D03*
X154630000Y-78075000D03*
X154630000Y-77425000D03*
X160330000Y-77425000D03*
X160330000Y-78075000D03*
X160330000Y-78725000D03*
X160325000Y-79375000D03*
X160330000Y-80025000D03*
X160330000Y-80675000D03*
X160330000Y-81325000D03*
%TD*%
D16*
%TO.C,U11*%
X157480000Y-69410000D03*
X157480000Y-71560000D03*
D17*
X154630000Y-72435000D03*
X154630000Y-71785000D03*
X154630000Y-71135000D03*
X154630000Y-70485000D03*
X154630000Y-69835000D03*
X154630000Y-69185000D03*
X154630000Y-68535000D03*
X160330000Y-68535000D03*
X160330000Y-69185000D03*
X160330000Y-69835000D03*
X160325000Y-70485000D03*
X160330000Y-71135000D03*
X160330000Y-71785000D03*
X160330000Y-72435000D03*
%TD*%
%TO.C,R12*%
G36*
G01*
X168240000Y-122739999D02*
X168240000Y-123640001D01*
G75*
G02*
X167990001Y-123890000I-249999J0D01*
G01*
X167289999Y-123890000D01*
G75*
G02*
X167040000Y-123640001I0J249999D01*
G01*
X167040000Y-122739999D01*
G75*
G02*
X167289999Y-122490000I249999J0D01*
G01*
X167990001Y-122490000D01*
G75*
G02*
X168240000Y-122739999I0J-249999D01*
G01*
G37*
G36*
G01*
X170240000Y-122739999D02*
X170240000Y-123640001D01*
G75*
G02*
X169990001Y-123890000I-249999J0D01*
G01*
X169289999Y-123890000D01*
G75*
G02*
X169040000Y-123640001I0J249999D01*
G01*
X169040000Y-122739999D01*
G75*
G02*
X169289999Y-122490000I249999J0D01*
G01*
X169990001Y-122490000D01*
G75*
G02*
X170240000Y-122739999I0J-249999D01*
G01*
G37*
%TD*%
%TO.C,R11*%
G36*
G01*
X172955000Y-122739999D02*
X172955000Y-123640001D01*
G75*
G02*
X172705001Y-123890000I-249999J0D01*
G01*
X172004999Y-123890000D01*
G75*
G02*
X171755000Y-123640001I0J249999D01*
G01*
X171755000Y-122739999D01*
G75*
G02*
X172004999Y-122490000I249999J0D01*
G01*
X172705001Y-122490000D01*
G75*
G02*
X172955000Y-122739999I0J-249999D01*
G01*
G37*
G36*
G01*
X174955000Y-122739999D02*
X174955000Y-123640001D01*
G75*
G02*
X174705001Y-123890000I-249999J0D01*
G01*
X174004999Y-123890000D01*
G75*
G02*
X173755000Y-123640001I0J249999D01*
G01*
X173755000Y-122739999D01*
G75*
G02*
X174004999Y-122490000I249999J0D01*
G01*
X174705001Y-122490000D01*
G75*
G02*
X174955000Y-122739999I0J-249999D01*
G01*
G37*
%TD*%
%TO.C,R10*%
G36*
G01*
X177527000Y-122739999D02*
X177527000Y-123640001D01*
G75*
G02*
X177277001Y-123890000I-249999J0D01*
G01*
X176576999Y-123890000D01*
G75*
G02*
X176327000Y-123640001I0J249999D01*
G01*
X176327000Y-122739999D01*
G75*
G02*
X176576999Y-122490000I249999J0D01*
G01*
X177277001Y-122490000D01*
G75*
G02*
X177527000Y-122739999I0J-249999D01*
G01*
G37*
G36*
G01*
X179527000Y-122739999D02*
X179527000Y-123640001D01*
G75*
G02*
X179277001Y-123890000I-249999J0D01*
G01*
X178576999Y-123890000D01*
G75*
G02*
X178327000Y-123640001I0J249999D01*
G01*
X178327000Y-122739999D01*
G75*
G02*
X178576999Y-122490000I249999J0D01*
G01*
X179277001Y-122490000D01*
G75*
G02*
X179527000Y-122739999I0J-249999D01*
G01*
G37*
%TD*%
%TO.C,R8*%
G36*
G01*
X165335000Y-87179999D02*
X165335000Y-88080001D01*
G75*
G02*
X165085001Y-88330000I-249999J0D01*
G01*
X164384999Y-88330000D01*
G75*
G02*
X164135000Y-88080001I0J249999D01*
G01*
X164135000Y-87179999D01*
G75*
G02*
X164384999Y-86930000I249999J0D01*
G01*
X165085001Y-86930000D01*
G75*
G02*
X165335000Y-87179999I0J-249999D01*
G01*
G37*
G36*
G01*
X167335000Y-87179999D02*
X167335000Y-88080001D01*
G75*
G02*
X167085001Y-88330000I-249999J0D01*
G01*
X166384999Y-88330000D01*
G75*
G02*
X166135000Y-88080001I0J249999D01*
G01*
X166135000Y-87179999D01*
G75*
G02*
X166384999Y-86930000I249999J0D01*
G01*
X167085001Y-86930000D01*
G75*
G02*
X167335000Y-87179999I0J-249999D01*
G01*
G37*
%TD*%
%TO.C,R7*%
G36*
G01*
X159835001Y-119250000D02*
X158934999Y-119250000D01*
G75*
G02*
X158685000Y-119000001I0J249999D01*
G01*
X158685000Y-118299999D01*
G75*
G02*
X158934999Y-118050000I249999J0D01*
G01*
X159835001Y-118050000D01*
G75*
G02*
X160085000Y-118299999I0J-249999D01*
G01*
X160085000Y-119000001D01*
G75*
G02*
X159835001Y-119250000I-249999J0D01*
G01*
G37*
G36*
G01*
X159835001Y-121250000D02*
X158934999Y-121250000D01*
G75*
G02*
X158685000Y-121000001I0J249999D01*
G01*
X158685000Y-120299999D01*
G75*
G02*
X158934999Y-120050000I249999J0D01*
G01*
X159835001Y-120050000D01*
G75*
G02*
X160085000Y-120299999I0J-249999D01*
G01*
X160085000Y-121000001D01*
G75*
G02*
X159835001Y-121250000I-249999J0D01*
G01*
G37*
%TD*%
%TO.C,D12*%
G36*
G01*
X149917999Y-97605000D02*
X150818001Y-97605000D01*
G75*
G02*
X151068000Y-97854999I0J-249999D01*
G01*
X151068000Y-98505001D01*
G75*
G02*
X150818001Y-98755000I-249999J0D01*
G01*
X149917999Y-98755000D01*
G75*
G02*
X149668000Y-98505001I0J249999D01*
G01*
X149668000Y-97854999D01*
G75*
G02*
X149917999Y-97605000I249999J0D01*
G01*
G37*
G36*
G01*
X149917999Y-95555000D02*
X150818001Y-95555000D01*
G75*
G02*
X151068000Y-95804999I0J-249999D01*
G01*
X151068000Y-96455001D01*
G75*
G02*
X150818001Y-96705000I-249999J0D01*
G01*
X149917999Y-96705000D01*
G75*
G02*
X149668000Y-96455001I0J249999D01*
G01*
X149668000Y-95804999D01*
G75*
G02*
X149917999Y-95555000I249999J0D01*
G01*
G37*
%TD*%
%TO.C,D10*%
G36*
G01*
X149917999Y-88715000D02*
X150818001Y-88715000D01*
G75*
G02*
X151068000Y-88964999I0J-249999D01*
G01*
X151068000Y-89615001D01*
G75*
G02*
X150818001Y-89865000I-249999J0D01*
G01*
X149917999Y-89865000D01*
G75*
G02*
X149668000Y-89615001I0J249999D01*
G01*
X149668000Y-88964999D01*
G75*
G02*
X149917999Y-88715000I249999J0D01*
G01*
G37*
G36*
G01*
X149917999Y-86665000D02*
X150818001Y-86665000D01*
G75*
G02*
X151068000Y-86914999I0J-249999D01*
G01*
X151068000Y-87565001D01*
G75*
G02*
X150818001Y-87815000I-249999J0D01*
G01*
X149917999Y-87815000D01*
G75*
G02*
X149668000Y-87565001I0J249999D01*
G01*
X149668000Y-86914999D01*
G75*
G02*
X149917999Y-86665000I249999J0D01*
G01*
G37*
%TD*%
%TO.C,D8*%
G36*
G01*
X149917999Y-79825000D02*
X150818001Y-79825000D01*
G75*
G02*
X151068000Y-80074999I0J-249999D01*
G01*
X151068000Y-80725001D01*
G75*
G02*
X150818001Y-80975000I-249999J0D01*
G01*
X149917999Y-80975000D01*
G75*
G02*
X149668000Y-80725001I0J249999D01*
G01*
X149668000Y-80074999D01*
G75*
G02*
X149917999Y-79825000I249999J0D01*
G01*
G37*
G36*
G01*
X149917999Y-77775000D02*
X150818001Y-77775000D01*
G75*
G02*
X151068000Y-78024999I0J-249999D01*
G01*
X151068000Y-78675001D01*
G75*
G02*
X150818001Y-78925000I-249999J0D01*
G01*
X149917999Y-78925000D01*
G75*
G02*
X149668000Y-78675001I0J249999D01*
G01*
X149668000Y-78024999D01*
G75*
G02*
X149917999Y-77775000I249999J0D01*
G01*
G37*
%TD*%
%TO.C,D7*%
G36*
G01*
X165919999Y-118560000D02*
X166820001Y-118560000D01*
G75*
G02*
X167070000Y-118809999I0J-249999D01*
G01*
X167070000Y-119460001D01*
G75*
G02*
X166820001Y-119710000I-249999J0D01*
G01*
X165919999Y-119710000D01*
G75*
G02*
X165670000Y-119460001I0J249999D01*
G01*
X165670000Y-118809999D01*
G75*
G02*
X165919999Y-118560000I249999J0D01*
G01*
G37*
G36*
G01*
X165919999Y-116510000D02*
X166820001Y-116510000D01*
G75*
G02*
X167070000Y-116759999I0J-249999D01*
G01*
X167070000Y-117410001D01*
G75*
G02*
X166820001Y-117660000I-249999J0D01*
G01*
X165919999Y-117660000D01*
G75*
G02*
X165670000Y-117410001I0J249999D01*
G01*
X165670000Y-116759999D01*
G75*
G02*
X165919999Y-116510000I249999J0D01*
G01*
G37*
%TD*%
%TO.C,D6*%
G36*
G01*
X149917999Y-70935000D02*
X150818001Y-70935000D01*
G75*
G02*
X151068000Y-71184999I0J-249999D01*
G01*
X151068000Y-71835001D01*
G75*
G02*
X150818001Y-72085000I-249999J0D01*
G01*
X149917999Y-72085000D01*
G75*
G02*
X149668000Y-71835001I0J249999D01*
G01*
X149668000Y-71184999D01*
G75*
G02*
X149917999Y-70935000I249999J0D01*
G01*
G37*
G36*
G01*
X149917999Y-68885000D02*
X150818001Y-68885000D01*
G75*
G02*
X151068000Y-69134999I0J-249999D01*
G01*
X151068000Y-69785001D01*
G75*
G02*
X150818001Y-70035000I-249999J0D01*
G01*
X149917999Y-70035000D01*
G75*
G02*
X149668000Y-69785001I0J249999D01*
G01*
X149668000Y-69134999D01*
G75*
G02*
X149917999Y-68885000I249999J0D01*
G01*
G37*
%TD*%
%TO.C,D5*%
G36*
G01*
X172269999Y-118560000D02*
X173170001Y-118560000D01*
G75*
G02*
X173420000Y-118809999I0J-249999D01*
G01*
X173420000Y-119460001D01*
G75*
G02*
X173170001Y-119710000I-249999J0D01*
G01*
X172269999Y-119710000D01*
G75*
G02*
X172020000Y-119460001I0J249999D01*
G01*
X172020000Y-118809999D01*
G75*
G02*
X172269999Y-118560000I249999J0D01*
G01*
G37*
G36*
G01*
X172269999Y-116510000D02*
X173170001Y-116510000D01*
G75*
G02*
X173420000Y-116759999I0J-249999D01*
G01*
X173420000Y-117410001D01*
G75*
G02*
X173170001Y-117660000I-249999J0D01*
G01*
X172269999Y-117660000D01*
G75*
G02*
X172020000Y-117410001I0J249999D01*
G01*
X172020000Y-116759999D01*
G75*
G02*
X172269999Y-116510000I249999J0D01*
G01*
G37*
%TD*%
%TO.C,D4*%
G36*
G01*
X149917999Y-115385000D02*
X150818001Y-115385000D01*
G75*
G02*
X151068000Y-115634999I0J-249999D01*
G01*
X151068000Y-116285001D01*
G75*
G02*
X150818001Y-116535000I-249999J0D01*
G01*
X149917999Y-116535000D01*
G75*
G02*
X149668000Y-116285001I0J249999D01*
G01*
X149668000Y-115634999D01*
G75*
G02*
X149917999Y-115385000I249999J0D01*
G01*
G37*
G36*
G01*
X149917999Y-113335000D02*
X150818001Y-113335000D01*
G75*
G02*
X151068000Y-113584999I0J-249999D01*
G01*
X151068000Y-114235001D01*
G75*
G02*
X150818001Y-114485000I-249999J0D01*
G01*
X149917999Y-114485000D01*
G75*
G02*
X149668000Y-114235001I0J249999D01*
G01*
X149668000Y-113584999D01*
G75*
G02*
X149917999Y-113335000I249999J0D01*
G01*
G37*
%TD*%
%TO.C,D1*%
G36*
G01*
X149917999Y-106495000D02*
X150818001Y-106495000D01*
G75*
G02*
X151068000Y-106744999I0J-249999D01*
G01*
X151068000Y-107395001D01*
G75*
G02*
X150818001Y-107645000I-249999J0D01*
G01*
X149917999Y-107645000D01*
G75*
G02*
X149668000Y-107395001I0J249999D01*
G01*
X149668000Y-106744999D01*
G75*
G02*
X149917999Y-106495000I249999J0D01*
G01*
G37*
G36*
G01*
X149917999Y-104445000D02*
X150818001Y-104445000D01*
G75*
G02*
X151068000Y-104694999I0J-249999D01*
G01*
X151068000Y-105345001D01*
G75*
G02*
X150818001Y-105595000I-249999J0D01*
G01*
X149917999Y-105595000D01*
G75*
G02*
X149668000Y-105345001I0J249999D01*
G01*
X149668000Y-104694999D01*
G75*
G02*
X149917999Y-104445000I249999J0D01*
G01*
G37*
%TD*%
%TO.C,C17*%
G36*
G01*
X171610000Y-145230000D02*
X172560000Y-145230000D01*
G75*
G02*
X172810000Y-145480000I0J-250000D01*
G01*
X172810000Y-146155000D01*
G75*
G02*
X172560000Y-146405000I-250000J0D01*
G01*
X171610000Y-146405000D01*
G75*
G02*
X171360000Y-146155000I0J250000D01*
G01*
X171360000Y-145480000D01*
G75*
G02*
X171610000Y-145230000I250000J0D01*
G01*
G37*
G36*
G01*
X171610000Y-143155000D02*
X172560000Y-143155000D01*
G75*
G02*
X172810000Y-143405000I0J-250000D01*
G01*
X172810000Y-144080000D01*
G75*
G02*
X172560000Y-144330000I-250000J0D01*
G01*
X171610000Y-144330000D01*
G75*
G02*
X171360000Y-144080000I0J250000D01*
G01*
X171360000Y-143405000D01*
G75*
G02*
X171610000Y-143155000I250000J0D01*
G01*
G37*
%TD*%
%TO.C,C16*%
G36*
G01*
X177325000Y-145230000D02*
X178275000Y-145230000D01*
G75*
G02*
X178525000Y-145480000I0J-250000D01*
G01*
X178525000Y-146155000D01*
G75*
G02*
X178275000Y-146405000I-250000J0D01*
G01*
X177325000Y-146405000D01*
G75*
G02*
X177075000Y-146155000I0J250000D01*
G01*
X177075000Y-145480000D01*
G75*
G02*
X177325000Y-145230000I250000J0D01*
G01*
G37*
G36*
G01*
X177325000Y-143155000D02*
X178275000Y-143155000D01*
G75*
G02*
X178525000Y-143405000I0J-250000D01*
G01*
X178525000Y-144080000D01*
G75*
G02*
X178275000Y-144330000I-250000J0D01*
G01*
X177325000Y-144330000D01*
G75*
G02*
X177075000Y-144080000I0J250000D01*
G01*
X177075000Y-143405000D01*
G75*
G02*
X177325000Y-143155000I250000J0D01*
G01*
G37*
%TD*%
%TO.C,C15*%
G36*
G01*
X156660000Y-93185000D02*
X156660000Y-92235000D01*
G75*
G02*
X156910000Y-91985000I250000J0D01*
G01*
X157585000Y-91985000D01*
G75*
G02*
X157835000Y-92235000I0J-250000D01*
G01*
X157835000Y-93185000D01*
G75*
G02*
X157585000Y-93435000I-250000J0D01*
G01*
X156910000Y-93435000D01*
G75*
G02*
X156660000Y-93185000I0J250000D01*
G01*
G37*
G36*
G01*
X154585000Y-93185000D02*
X154585000Y-92235000D01*
G75*
G02*
X154835000Y-91985000I250000J0D01*
G01*
X155510000Y-91985000D01*
G75*
G02*
X155760000Y-92235000I0J-250000D01*
G01*
X155760000Y-93185000D01*
G75*
G02*
X155510000Y-93435000I-250000J0D01*
G01*
X154835000Y-93435000D01*
G75*
G02*
X154585000Y-93185000I0J250000D01*
G01*
G37*
%TD*%
%TO.C,C14*%
G36*
G01*
X156660000Y-84295000D02*
X156660000Y-83345000D01*
G75*
G02*
X156910000Y-83095000I250000J0D01*
G01*
X157585000Y-83095000D01*
G75*
G02*
X157835000Y-83345000I0J-250000D01*
G01*
X157835000Y-84295000D01*
G75*
G02*
X157585000Y-84545000I-250000J0D01*
G01*
X156910000Y-84545000D01*
G75*
G02*
X156660000Y-84295000I0J250000D01*
G01*
G37*
G36*
G01*
X154585000Y-84295000D02*
X154585000Y-83345000D01*
G75*
G02*
X154835000Y-83095000I250000J0D01*
G01*
X155510000Y-83095000D01*
G75*
G02*
X155760000Y-83345000I0J-250000D01*
G01*
X155760000Y-84295000D01*
G75*
G02*
X155510000Y-84545000I-250000J0D01*
G01*
X154835000Y-84545000D01*
G75*
G02*
X154585000Y-84295000I0J250000D01*
G01*
G37*
%TD*%
%TO.C,C13*%
G36*
G01*
X156660000Y-102075000D02*
X156660000Y-101125000D01*
G75*
G02*
X156910000Y-100875000I250000J0D01*
G01*
X157585000Y-100875000D01*
G75*
G02*
X157835000Y-101125000I0J-250000D01*
G01*
X157835000Y-102075000D01*
G75*
G02*
X157585000Y-102325000I-250000J0D01*
G01*
X156910000Y-102325000D01*
G75*
G02*
X156660000Y-102075000I0J250000D01*
G01*
G37*
G36*
G01*
X154585000Y-102075000D02*
X154585000Y-101125000D01*
G75*
G02*
X154835000Y-100875000I250000J0D01*
G01*
X155510000Y-100875000D01*
G75*
G02*
X155760000Y-101125000I0J-250000D01*
G01*
X155760000Y-102075000D01*
G75*
G02*
X155510000Y-102325000I-250000J0D01*
G01*
X154835000Y-102325000D01*
G75*
G02*
X154585000Y-102075000I0J250000D01*
G01*
G37*
%TD*%
%TO.C,C12*%
G36*
G01*
X156660000Y-119855000D02*
X156660000Y-118905000D01*
G75*
G02*
X156910000Y-118655000I250000J0D01*
G01*
X157585000Y-118655000D01*
G75*
G02*
X157835000Y-118905000I0J-250000D01*
G01*
X157835000Y-119855000D01*
G75*
G02*
X157585000Y-120105000I-250000J0D01*
G01*
X156910000Y-120105000D01*
G75*
G02*
X156660000Y-119855000I0J250000D01*
G01*
G37*
G36*
G01*
X154585000Y-119855000D02*
X154585000Y-118905000D01*
G75*
G02*
X154835000Y-118655000I250000J0D01*
G01*
X155510000Y-118655000D01*
G75*
G02*
X155760000Y-118905000I0J-250000D01*
G01*
X155760000Y-119855000D01*
G75*
G02*
X155510000Y-120105000I-250000J0D01*
G01*
X154835000Y-120105000D01*
G75*
G02*
X154585000Y-119855000I0J250000D01*
G01*
G37*
%TD*%
%TO.C,C11*%
G36*
G01*
X156660000Y-110965000D02*
X156660000Y-110015000D01*
G75*
G02*
X156910000Y-109765000I250000J0D01*
G01*
X157585000Y-109765000D01*
G75*
G02*
X157835000Y-110015000I0J-250000D01*
G01*
X157835000Y-110965000D01*
G75*
G02*
X157585000Y-111215000I-250000J0D01*
G01*
X156910000Y-111215000D01*
G75*
G02*
X156660000Y-110965000I0J250000D01*
G01*
G37*
G36*
G01*
X154585000Y-110965000D02*
X154585000Y-110015000D01*
G75*
G02*
X154835000Y-109765000I250000J0D01*
G01*
X155510000Y-109765000D01*
G75*
G02*
X155760000Y-110015000I0J-250000D01*
G01*
X155760000Y-110965000D01*
G75*
G02*
X155510000Y-111215000I-250000J0D01*
G01*
X154835000Y-111215000D01*
G75*
G02*
X154585000Y-110965000I0J250000D01*
G01*
G37*
%TD*%
%TO.C,C10*%
G36*
G01*
X156660000Y-75405000D02*
X156660000Y-74455000D01*
G75*
G02*
X156910000Y-74205000I250000J0D01*
G01*
X157585000Y-74205000D01*
G75*
G02*
X157835000Y-74455000I0J-250000D01*
G01*
X157835000Y-75405000D01*
G75*
G02*
X157585000Y-75655000I-250000J0D01*
G01*
X156910000Y-75655000D01*
G75*
G02*
X156660000Y-75405000I0J250000D01*
G01*
G37*
G36*
G01*
X154585000Y-75405000D02*
X154585000Y-74455000D01*
G75*
G02*
X154835000Y-74205000I250000J0D01*
G01*
X155510000Y-74205000D01*
G75*
G02*
X155760000Y-74455000I0J-250000D01*
G01*
X155760000Y-75405000D01*
G75*
G02*
X155510000Y-75655000I-250000J0D01*
G01*
X154835000Y-75655000D01*
G75*
G02*
X154585000Y-75405000I0J250000D01*
G01*
G37*
%TD*%
%TO.C,C8*%
G36*
G01*
X152875000Y-96705000D02*
X151925000Y-96705000D01*
G75*
G02*
X151675000Y-96455000I0J250000D01*
G01*
X151675000Y-95780000D01*
G75*
G02*
X151925000Y-95530000I250000J0D01*
G01*
X152875000Y-95530000D01*
G75*
G02*
X153125000Y-95780000I0J-250000D01*
G01*
X153125000Y-96455000D01*
G75*
G02*
X152875000Y-96705000I-250000J0D01*
G01*
G37*
G36*
G01*
X152875000Y-98780000D02*
X151925000Y-98780000D01*
G75*
G02*
X151675000Y-98530000I0J250000D01*
G01*
X151675000Y-97855000D01*
G75*
G02*
X151925000Y-97605000I250000J0D01*
G01*
X152875000Y-97605000D01*
G75*
G02*
X153125000Y-97855000I0J-250000D01*
G01*
X153125000Y-98530000D01*
G75*
G02*
X152875000Y-98780000I-250000J0D01*
G01*
G37*
%TD*%
%TO.C,C7*%
G36*
G01*
X152875000Y-87815000D02*
X151925000Y-87815000D01*
G75*
G02*
X151675000Y-87565000I0J250000D01*
G01*
X151675000Y-86890000D01*
G75*
G02*
X151925000Y-86640000I250000J0D01*
G01*
X152875000Y-86640000D01*
G75*
G02*
X153125000Y-86890000I0J-250000D01*
G01*
X153125000Y-87565000D01*
G75*
G02*
X152875000Y-87815000I-250000J0D01*
G01*
G37*
G36*
G01*
X152875000Y-89890000D02*
X151925000Y-89890000D01*
G75*
G02*
X151675000Y-89640000I0J250000D01*
G01*
X151675000Y-88965000D01*
G75*
G02*
X151925000Y-88715000I250000J0D01*
G01*
X152875000Y-88715000D01*
G75*
G02*
X153125000Y-88965000I0J-250000D01*
G01*
X153125000Y-89640000D01*
G75*
G02*
X152875000Y-89890000I-250000J0D01*
G01*
G37*
%TD*%
%TO.C,C6*%
G36*
G01*
X152875000Y-78925000D02*
X151925000Y-78925000D01*
G75*
G02*
X151675000Y-78675000I0J250000D01*
G01*
X151675000Y-78000000D01*
G75*
G02*
X151925000Y-77750000I250000J0D01*
G01*
X152875000Y-77750000D01*
G75*
G02*
X153125000Y-78000000I0J-250000D01*
G01*
X153125000Y-78675000D01*
G75*
G02*
X152875000Y-78925000I-250000J0D01*
G01*
G37*
G36*
G01*
X152875000Y-81000000D02*
X151925000Y-81000000D01*
G75*
G02*
X151675000Y-80750000I0J250000D01*
G01*
X151675000Y-80075000D01*
G75*
G02*
X151925000Y-79825000I250000J0D01*
G01*
X152875000Y-79825000D01*
G75*
G02*
X153125000Y-80075000I0J-250000D01*
G01*
X153125000Y-80750000D01*
G75*
G02*
X152875000Y-81000000I-250000J0D01*
G01*
G37*
%TD*%
%TO.C,C5*%
G36*
G01*
X152875000Y-70035000D02*
X151925000Y-70035000D01*
G75*
G02*
X151675000Y-69785000I0J250000D01*
G01*
X151675000Y-69110000D01*
G75*
G02*
X151925000Y-68860000I250000J0D01*
G01*
X152875000Y-68860000D01*
G75*
G02*
X153125000Y-69110000I0J-250000D01*
G01*
X153125000Y-69785000D01*
G75*
G02*
X152875000Y-70035000I-250000J0D01*
G01*
G37*
G36*
G01*
X152875000Y-72110000D02*
X151925000Y-72110000D01*
G75*
G02*
X151675000Y-71860000I0J250000D01*
G01*
X151675000Y-71185000D01*
G75*
G02*
X151925000Y-70935000I250000J0D01*
G01*
X152875000Y-70935000D01*
G75*
G02*
X153125000Y-71185000I0J-250000D01*
G01*
X153125000Y-71860000D01*
G75*
G02*
X152875000Y-72110000I-250000J0D01*
G01*
G37*
%TD*%
%TO.C,C4*%
G36*
G01*
X152875000Y-114485000D02*
X151925000Y-114485000D01*
G75*
G02*
X151675000Y-114235000I0J250000D01*
G01*
X151675000Y-113560000D01*
G75*
G02*
X151925000Y-113310000I250000J0D01*
G01*
X152875000Y-113310000D01*
G75*
G02*
X153125000Y-113560000I0J-250000D01*
G01*
X153125000Y-114235000D01*
G75*
G02*
X152875000Y-114485000I-250000J0D01*
G01*
G37*
G36*
G01*
X152875000Y-116560000D02*
X151925000Y-116560000D01*
G75*
G02*
X151675000Y-116310000I0J250000D01*
G01*
X151675000Y-115635000D01*
G75*
G02*
X151925000Y-115385000I250000J0D01*
G01*
X152875000Y-115385000D01*
G75*
G02*
X153125000Y-115635000I0J-250000D01*
G01*
X153125000Y-116310000D01*
G75*
G02*
X152875000Y-116560000I-250000J0D01*
G01*
G37*
%TD*%
%TO.C,C3*%
G36*
G01*
X152875000Y-105595000D02*
X151925000Y-105595000D01*
G75*
G02*
X151675000Y-105345000I0J250000D01*
G01*
X151675000Y-104670000D01*
G75*
G02*
X151925000Y-104420000I250000J0D01*
G01*
X152875000Y-104420000D01*
G75*
G02*
X153125000Y-104670000I0J-250000D01*
G01*
X153125000Y-105345000D01*
G75*
G02*
X152875000Y-105595000I-250000J0D01*
G01*
G37*
G36*
G01*
X152875000Y-107670000D02*
X151925000Y-107670000D01*
G75*
G02*
X151675000Y-107420000I0J250000D01*
G01*
X151675000Y-106745000D01*
G75*
G02*
X151925000Y-106495000I250000J0D01*
G01*
X152875000Y-106495000D01*
G75*
G02*
X153125000Y-106745000I0J-250000D01*
G01*
X153125000Y-107420000D01*
G75*
G02*
X152875000Y-107670000I-250000J0D01*
G01*
G37*
%TD*%
M02*
