%TF.GenerationSoftware,KiCad,Pcbnew,5.1.10*%
%TF.CreationDate,2021-06-27T23:00:14+02:00*%
%TF.ProjectId,main_v1,6d61696e-5f76-4312-9e6b-696361645f70,rev?*%
%TF.SameCoordinates,Original*%
%TF.FileFunction,Soldermask,Bot*%
%TF.FilePolarity,Negative*%
%FSLAX46Y46*%
G04 Gerber Fmt 4.6, Leading zero omitted, Abs format (unit mm)*
G04 Created by KiCad (PCBNEW 5.1.10) date 2021-06-27 23:00:14*
%MOMM*%
%LPD*%
G01*
G04 APERTURE LIST*
%ADD10C,0.010000*%
%ADD11R,3.250000X13.200000*%
%ADD12O,1.700000X1.700000*%
%ADD13R,1.700000X1.700000*%
%ADD14C,1.800000*%
%ADD15O,1.700000X2.000000*%
%ADD16O,1.700000X1.950000*%
%ADD17O,2.000000X1.700000*%
%ADD18R,0.900000X0.800000*%
%ADD19R,0.510000X0.700000*%
%ADD20R,1.500000X2.400000*%
%ADD21R,1.500000X5.080000*%
%ADD22C,3.200000*%
%ADD23R,10.800000X9.400000*%
%ADD24R,1.100000X4.600000*%
%ADD25C,3.800000*%
%ADD26R,3.800000X3.800000*%
%ADD27C,6.000000*%
%ADD28C,0.800000*%
%ADD29C,4.000000*%
%ADD30O,1.800000X1.070000*%
%ADD31R,1.800000X1.070000*%
%ADD32C,1.524000*%
%ADD33C,1.300000*%
%ADD34C,1.600000*%
%ADD35R,1.300000X1.300000*%
%ADD36R,1.600000X1.600000*%
G04 APERTURE END LIST*
D10*
%TO.C,U26*%
G36*
X156159200Y-112928400D02*
G01*
X158800800Y-112928400D01*
X158800800Y-116941600D01*
X156159200Y-116941600D01*
X156159200Y-112928400D01*
G37*
X156159200Y-112928400D02*
X158800800Y-112928400D01*
X158800800Y-116941600D01*
X156159200Y-116941600D01*
X156159200Y-112928400D01*
%TO.C,U25*%
G36*
X156159200Y-104038400D02*
G01*
X158800800Y-104038400D01*
X158800800Y-108051600D01*
X156159200Y-108051600D01*
X156159200Y-104038400D01*
G37*
X156159200Y-104038400D02*
X158800800Y-104038400D01*
X158800800Y-108051600D01*
X156159200Y-108051600D01*
X156159200Y-104038400D01*
%TO.C,U14*%
G36*
X156159200Y-95148400D02*
G01*
X158800800Y-95148400D01*
X158800800Y-99161600D01*
X156159200Y-99161600D01*
X156159200Y-95148400D01*
G37*
X156159200Y-95148400D02*
X158800800Y-95148400D01*
X158800800Y-99161600D01*
X156159200Y-99161600D01*
X156159200Y-95148400D01*
%TO.C,U13*%
G36*
X156159200Y-86258400D02*
G01*
X158800800Y-86258400D01*
X158800800Y-90271600D01*
X156159200Y-90271600D01*
X156159200Y-86258400D01*
G37*
X156159200Y-86258400D02*
X158800800Y-86258400D01*
X158800800Y-90271600D01*
X156159200Y-90271600D01*
X156159200Y-86258400D01*
%TO.C,U12*%
G36*
X156159200Y-77368400D02*
G01*
X158800800Y-77368400D01*
X158800800Y-81381600D01*
X156159200Y-81381600D01*
X156159200Y-77368400D01*
G37*
X156159200Y-77368400D02*
X158800800Y-77368400D01*
X158800800Y-81381600D01*
X156159200Y-81381600D01*
X156159200Y-77368400D01*
%TO.C,U11*%
G36*
X156159200Y-68478400D02*
G01*
X158800800Y-68478400D01*
X158800800Y-72491600D01*
X156159200Y-72491600D01*
X156159200Y-68478400D01*
G37*
X156159200Y-68478400D02*
X158800800Y-68478400D01*
X158800800Y-72491600D01*
X156159200Y-72491600D01*
X156159200Y-68478400D01*
%TD*%
%TO.C,U22*%
G36*
G01*
X209125000Y-81475000D02*
X209125000Y-81725000D01*
G75*
G02*
X209000000Y-81850000I-125000J0D01*
G01*
X207825000Y-81850000D01*
G75*
G02*
X207700000Y-81725000I0J125000D01*
G01*
X207700000Y-81475000D01*
G75*
G02*
X207825000Y-81350000I125000J0D01*
G01*
X209000000Y-81350000D01*
G75*
G02*
X209125000Y-81475000I0J-125000D01*
G01*
G37*
G36*
G01*
X209125000Y-83375000D02*
X209125000Y-83625000D01*
G75*
G02*
X209000000Y-83750000I-125000J0D01*
G01*
X207825000Y-83750000D01*
G75*
G02*
X207700000Y-83625000I0J125000D01*
G01*
X207700000Y-83375000D01*
G75*
G02*
X207825000Y-83250000I125000J0D01*
G01*
X209000000Y-83250000D01*
G75*
G02*
X209125000Y-83375000I0J-125000D01*
G01*
G37*
G36*
G01*
X211400000Y-83375000D02*
X211400000Y-83625000D01*
G75*
G02*
X211275000Y-83750000I-125000J0D01*
G01*
X210100000Y-83750000D01*
G75*
G02*
X209975000Y-83625000I0J125000D01*
G01*
X209975000Y-83375000D01*
G75*
G02*
X210100000Y-83250000I125000J0D01*
G01*
X211275000Y-83250000D01*
G75*
G02*
X211400000Y-83375000I0J-125000D01*
G01*
G37*
G36*
G01*
X211400000Y-82425000D02*
X211400000Y-82675000D01*
G75*
G02*
X211275000Y-82800000I-125000J0D01*
G01*
X210100000Y-82800000D01*
G75*
G02*
X209975000Y-82675000I0J125000D01*
G01*
X209975000Y-82425000D01*
G75*
G02*
X210100000Y-82300000I125000J0D01*
G01*
X211275000Y-82300000D01*
G75*
G02*
X211400000Y-82425000I0J-125000D01*
G01*
G37*
G36*
G01*
X211400000Y-81475000D02*
X211400000Y-81725000D01*
G75*
G02*
X211275000Y-81850000I-125000J0D01*
G01*
X210100000Y-81850000D01*
G75*
G02*
X209975000Y-81725000I0J125000D01*
G01*
X209975000Y-81475000D01*
G75*
G02*
X210100000Y-81350000I125000J0D01*
G01*
X211275000Y-81350000D01*
G75*
G02*
X211400000Y-81475000I0J-125000D01*
G01*
G37*
%TD*%
D11*
%TO.C,HS1*%
X163750000Y-135890000D03*
X179150000Y-135890000D03*
%TD*%
D12*
%TO.C,JP3*%
X233045000Y-156845000D03*
D13*
X230505000Y-156845000D03*
%TD*%
%TO.C,C22*%
G36*
G01*
X203247500Y-83025000D02*
X203247500Y-82075000D01*
G75*
G02*
X203497500Y-81825000I250000J0D01*
G01*
X204172500Y-81825000D01*
G75*
G02*
X204422500Y-82075000I0J-250000D01*
G01*
X204422500Y-83025000D01*
G75*
G02*
X204172500Y-83275000I-250000J0D01*
G01*
X203497500Y-83275000D01*
G75*
G02*
X203247500Y-83025000I0J250000D01*
G01*
G37*
G36*
G01*
X201172500Y-83025000D02*
X201172500Y-82075000D01*
G75*
G02*
X201422500Y-81825000I250000J0D01*
G01*
X202097500Y-81825000D01*
G75*
G02*
X202347500Y-82075000I0J-250000D01*
G01*
X202347500Y-83025000D01*
G75*
G02*
X202097500Y-83275000I-250000J0D01*
G01*
X201422500Y-83275000D01*
G75*
G02*
X201172500Y-83025000I0J250000D01*
G01*
G37*
%TD*%
D14*
%TO.C,U6*%
X240030000Y-97790000D03*
X240030000Y-100330000D03*
X240030000Y-102870000D03*
X240030000Y-105410000D03*
X222250000Y-105410000D03*
X222250000Y-97790000D03*
X222250000Y-100330000D03*
X222250000Y-102870000D03*
%TD*%
%TO.C,R30*%
G36*
G01*
X187090000Y-136975001D02*
X187090000Y-136074999D01*
G75*
G02*
X187339999Y-135825000I249999J0D01*
G01*
X188040001Y-135825000D01*
G75*
G02*
X188290000Y-136074999I0J-249999D01*
G01*
X188290000Y-136975001D01*
G75*
G02*
X188040001Y-137225000I-249999J0D01*
G01*
X187339999Y-137225000D01*
G75*
G02*
X187090000Y-136975001I0J249999D01*
G01*
G37*
G36*
G01*
X185090000Y-136975001D02*
X185090000Y-136074999D01*
G75*
G02*
X185339999Y-135825000I249999J0D01*
G01*
X186040001Y-135825000D01*
G75*
G02*
X186290000Y-136074999I0J-249999D01*
G01*
X186290000Y-136975001D01*
G75*
G02*
X186040001Y-137225000I-249999J0D01*
G01*
X185339999Y-137225000D01*
G75*
G02*
X185090000Y-136975001I0J249999D01*
G01*
G37*
%TD*%
%TO.C,R29*%
G36*
G01*
X186290000Y-137979999D02*
X186290000Y-138880001D01*
G75*
G02*
X186040001Y-139130000I-249999J0D01*
G01*
X185339999Y-139130000D01*
G75*
G02*
X185090000Y-138880001I0J249999D01*
G01*
X185090000Y-137979999D01*
G75*
G02*
X185339999Y-137730000I249999J0D01*
G01*
X186040001Y-137730000D01*
G75*
G02*
X186290000Y-137979999I0J-249999D01*
G01*
G37*
G36*
G01*
X188290000Y-137979999D02*
X188290000Y-138880001D01*
G75*
G02*
X188040001Y-139130000I-249999J0D01*
G01*
X187339999Y-139130000D01*
G75*
G02*
X187090000Y-138880001I0J249999D01*
G01*
X187090000Y-137979999D01*
G75*
G02*
X187339999Y-137730000I249999J0D01*
G01*
X188040001Y-137730000D01*
G75*
G02*
X188290000Y-137979999I0J-249999D01*
G01*
G37*
%TD*%
%TO.C,U4*%
G36*
G01*
X226270000Y-151275000D02*
X226270000Y-151075000D01*
G75*
G02*
X226370000Y-150975000I100000J0D01*
G01*
X227645000Y-150975000D01*
G75*
G02*
X227745000Y-151075000I0J-100000D01*
G01*
X227745000Y-151275000D01*
G75*
G02*
X227645000Y-151375000I-100000J0D01*
G01*
X226370000Y-151375000D01*
G75*
G02*
X226270000Y-151275000I0J100000D01*
G01*
G37*
G36*
G01*
X226270000Y-150625000D02*
X226270000Y-150425000D01*
G75*
G02*
X226370000Y-150325000I100000J0D01*
G01*
X227645000Y-150325000D01*
G75*
G02*
X227745000Y-150425000I0J-100000D01*
G01*
X227745000Y-150625000D01*
G75*
G02*
X227645000Y-150725000I-100000J0D01*
G01*
X226370000Y-150725000D01*
G75*
G02*
X226270000Y-150625000I0J100000D01*
G01*
G37*
G36*
G01*
X226270000Y-149975000D02*
X226270000Y-149775000D01*
G75*
G02*
X226370000Y-149675000I100000J0D01*
G01*
X227645000Y-149675000D01*
G75*
G02*
X227745000Y-149775000I0J-100000D01*
G01*
X227745000Y-149975000D01*
G75*
G02*
X227645000Y-150075000I-100000J0D01*
G01*
X226370000Y-150075000D01*
G75*
G02*
X226270000Y-149975000I0J100000D01*
G01*
G37*
G36*
G01*
X226270000Y-149325000D02*
X226270000Y-149125000D01*
G75*
G02*
X226370000Y-149025000I100000J0D01*
G01*
X227645000Y-149025000D01*
G75*
G02*
X227745000Y-149125000I0J-100000D01*
G01*
X227745000Y-149325000D01*
G75*
G02*
X227645000Y-149425000I-100000J0D01*
G01*
X226370000Y-149425000D01*
G75*
G02*
X226270000Y-149325000I0J100000D01*
G01*
G37*
G36*
G01*
X226270000Y-148675000D02*
X226270000Y-148475000D01*
G75*
G02*
X226370000Y-148375000I100000J0D01*
G01*
X227645000Y-148375000D01*
G75*
G02*
X227745000Y-148475000I0J-100000D01*
G01*
X227745000Y-148675000D01*
G75*
G02*
X227645000Y-148775000I-100000J0D01*
G01*
X226370000Y-148775000D01*
G75*
G02*
X226270000Y-148675000I0J100000D01*
G01*
G37*
G36*
G01*
X226270000Y-148025000D02*
X226270000Y-147825000D01*
G75*
G02*
X226370000Y-147725000I100000J0D01*
G01*
X227645000Y-147725000D01*
G75*
G02*
X227745000Y-147825000I0J-100000D01*
G01*
X227745000Y-148025000D01*
G75*
G02*
X227645000Y-148125000I-100000J0D01*
G01*
X226370000Y-148125000D01*
G75*
G02*
X226270000Y-148025000I0J100000D01*
G01*
G37*
G36*
G01*
X226270000Y-147375000D02*
X226270000Y-147175000D01*
G75*
G02*
X226370000Y-147075000I100000J0D01*
G01*
X227645000Y-147075000D01*
G75*
G02*
X227745000Y-147175000I0J-100000D01*
G01*
X227745000Y-147375000D01*
G75*
G02*
X227645000Y-147475000I-100000J0D01*
G01*
X226370000Y-147475000D01*
G75*
G02*
X226270000Y-147375000I0J100000D01*
G01*
G37*
G36*
G01*
X231995000Y-147375000D02*
X231995000Y-147175000D01*
G75*
G02*
X232095000Y-147075000I100000J0D01*
G01*
X233370000Y-147075000D01*
G75*
G02*
X233470000Y-147175000I0J-100000D01*
G01*
X233470000Y-147375000D01*
G75*
G02*
X233370000Y-147475000I-100000J0D01*
G01*
X232095000Y-147475000D01*
G75*
G02*
X231995000Y-147375000I0J100000D01*
G01*
G37*
G36*
G01*
X231995000Y-148025000D02*
X231995000Y-147825000D01*
G75*
G02*
X232095000Y-147725000I100000J0D01*
G01*
X233370000Y-147725000D01*
G75*
G02*
X233470000Y-147825000I0J-100000D01*
G01*
X233470000Y-148025000D01*
G75*
G02*
X233370000Y-148125000I-100000J0D01*
G01*
X232095000Y-148125000D01*
G75*
G02*
X231995000Y-148025000I0J100000D01*
G01*
G37*
G36*
G01*
X231995000Y-148675000D02*
X231995000Y-148475000D01*
G75*
G02*
X232095000Y-148375000I100000J0D01*
G01*
X233370000Y-148375000D01*
G75*
G02*
X233470000Y-148475000I0J-100000D01*
G01*
X233470000Y-148675000D01*
G75*
G02*
X233370000Y-148775000I-100000J0D01*
G01*
X232095000Y-148775000D01*
G75*
G02*
X231995000Y-148675000I0J100000D01*
G01*
G37*
G36*
G01*
X231995000Y-149325000D02*
X231995000Y-149125000D01*
G75*
G02*
X232095000Y-149025000I100000J0D01*
G01*
X233370000Y-149025000D01*
G75*
G02*
X233470000Y-149125000I0J-100000D01*
G01*
X233470000Y-149325000D01*
G75*
G02*
X233370000Y-149425000I-100000J0D01*
G01*
X232095000Y-149425000D01*
G75*
G02*
X231995000Y-149325000I0J100000D01*
G01*
G37*
G36*
G01*
X231995000Y-149975000D02*
X231995000Y-149775000D01*
G75*
G02*
X232095000Y-149675000I100000J0D01*
G01*
X233370000Y-149675000D01*
G75*
G02*
X233470000Y-149775000I0J-100000D01*
G01*
X233470000Y-149975000D01*
G75*
G02*
X233370000Y-150075000I-100000J0D01*
G01*
X232095000Y-150075000D01*
G75*
G02*
X231995000Y-149975000I0J100000D01*
G01*
G37*
G36*
G01*
X231995000Y-150625000D02*
X231995000Y-150425000D01*
G75*
G02*
X232095000Y-150325000I100000J0D01*
G01*
X233370000Y-150325000D01*
G75*
G02*
X233470000Y-150425000I0J-100000D01*
G01*
X233470000Y-150625000D01*
G75*
G02*
X233370000Y-150725000I-100000J0D01*
G01*
X232095000Y-150725000D01*
G75*
G02*
X231995000Y-150625000I0J100000D01*
G01*
G37*
G36*
G01*
X231995000Y-151275000D02*
X231995000Y-151075000D01*
G75*
G02*
X232095000Y-150975000I100000J0D01*
G01*
X233370000Y-150975000D01*
G75*
G02*
X233470000Y-151075000I0J-100000D01*
G01*
X233470000Y-151275000D01*
G75*
G02*
X233370000Y-151375000I-100000J0D01*
G01*
X232095000Y-151375000D01*
G75*
G02*
X231995000Y-151275000I0J100000D01*
G01*
G37*
%TD*%
%TO.C,C20*%
G36*
G01*
X231992500Y-153510000D02*
X231992500Y-152560000D01*
G75*
G02*
X232242500Y-152310000I250000J0D01*
G01*
X232917500Y-152310000D01*
G75*
G02*
X233167500Y-152560000I0J-250000D01*
G01*
X233167500Y-153510000D01*
G75*
G02*
X232917500Y-153760000I-250000J0D01*
G01*
X232242500Y-153760000D01*
G75*
G02*
X231992500Y-153510000I0J250000D01*
G01*
G37*
G36*
G01*
X229917500Y-153510000D02*
X229917500Y-152560000D01*
G75*
G02*
X230167500Y-152310000I250000J0D01*
G01*
X230842500Y-152310000D01*
G75*
G02*
X231092500Y-152560000I0J-250000D01*
G01*
X231092500Y-153510000D01*
G75*
G02*
X230842500Y-153760000I-250000J0D01*
G01*
X230167500Y-153760000D01*
G75*
G02*
X229917500Y-153510000I0J250000D01*
G01*
G37*
%TD*%
%TO.C,R41*%
G36*
G01*
X219525001Y-128140000D02*
X218624999Y-128140000D01*
G75*
G02*
X218375000Y-127890001I0J249999D01*
G01*
X218375000Y-127189999D01*
G75*
G02*
X218624999Y-126940000I249999J0D01*
G01*
X219525001Y-126940000D01*
G75*
G02*
X219775000Y-127189999I0J-249999D01*
G01*
X219775000Y-127890001D01*
G75*
G02*
X219525001Y-128140000I-249999J0D01*
G01*
G37*
G36*
G01*
X219525001Y-130140000D02*
X218624999Y-130140000D01*
G75*
G02*
X218375000Y-129890001I0J249999D01*
G01*
X218375000Y-129189999D01*
G75*
G02*
X218624999Y-128940000I249999J0D01*
G01*
X219525001Y-128940000D01*
G75*
G02*
X219775000Y-129189999I0J-249999D01*
G01*
X219775000Y-129890001D01*
G75*
G02*
X219525001Y-130140000I-249999J0D01*
G01*
G37*
%TD*%
D15*
%TO.C,JP2*%
X221575000Y-131445000D03*
G36*
G01*
X218225000Y-132195000D02*
X218225000Y-130695000D01*
G75*
G02*
X218475000Y-130445000I250000J0D01*
G01*
X219675000Y-130445000D01*
G75*
G02*
X219925000Y-130695000I0J-250000D01*
G01*
X219925000Y-132195000D01*
G75*
G02*
X219675000Y-132445000I-250000J0D01*
G01*
X218475000Y-132445000D01*
G75*
G02*
X218225000Y-132195000I0J250000D01*
G01*
G37*
%TD*%
%TO.C,J5*%
G36*
G01*
X203620000Y-132170000D02*
X203620000Y-130720000D01*
G75*
G02*
X203870000Y-130470000I250000J0D01*
G01*
X205070000Y-130470000D01*
G75*
G02*
X205320000Y-130720000I0J-250000D01*
G01*
X205320000Y-132170000D01*
G75*
G02*
X205070000Y-132420000I-250000J0D01*
G01*
X203870000Y-132420000D01*
G75*
G02*
X203620000Y-132170000I0J250000D01*
G01*
G37*
D16*
X206970000Y-131445000D03*
X209470000Y-131445000D03*
X211970000Y-131445000D03*
%TD*%
D17*
%TO.C,JP1*%
X176530000Y-151170000D03*
G36*
G01*
X177280000Y-154520000D02*
X175780000Y-154520000D01*
G75*
G02*
X175530000Y-154270000I0J250000D01*
G01*
X175530000Y-153070000D01*
G75*
G02*
X175780000Y-152820000I250000J0D01*
G01*
X177280000Y-152820000D01*
G75*
G02*
X177530000Y-153070000I0J-250000D01*
G01*
X177530000Y-154270000D01*
G75*
G02*
X177280000Y-154520000I-250000J0D01*
G01*
G37*
%TD*%
%TO.C,R40*%
G36*
G01*
X179520001Y-152270000D02*
X178619999Y-152270000D01*
G75*
G02*
X178370000Y-152020001I0J249999D01*
G01*
X178370000Y-151319999D01*
G75*
G02*
X178619999Y-151070000I249999J0D01*
G01*
X179520001Y-151070000D01*
G75*
G02*
X179770000Y-151319999I0J-249999D01*
G01*
X179770000Y-152020001D01*
G75*
G02*
X179520001Y-152270000I-249999J0D01*
G01*
G37*
G36*
G01*
X179520001Y-154270000D02*
X178619999Y-154270000D01*
G75*
G02*
X178370000Y-154020001I0J249999D01*
G01*
X178370000Y-153319999D01*
G75*
G02*
X178619999Y-153070000I249999J0D01*
G01*
X179520001Y-153070000D01*
G75*
G02*
X179770000Y-153319999I0J-249999D01*
G01*
X179770000Y-154020001D01*
G75*
G02*
X179520001Y-154270000I-249999J0D01*
G01*
G37*
%TD*%
%TO.C,R39*%
G36*
G01*
X178619999Y-148990000D02*
X179520001Y-148990000D01*
G75*
G02*
X179770000Y-149239999I0J-249999D01*
G01*
X179770000Y-149940001D01*
G75*
G02*
X179520001Y-150190000I-249999J0D01*
G01*
X178619999Y-150190000D01*
G75*
G02*
X178370000Y-149940001I0J249999D01*
G01*
X178370000Y-149239999D01*
G75*
G02*
X178619999Y-148990000I249999J0D01*
G01*
G37*
G36*
G01*
X178619999Y-146990000D02*
X179520001Y-146990000D01*
G75*
G02*
X179770000Y-147239999I0J-249999D01*
G01*
X179770000Y-147940001D01*
G75*
G02*
X179520001Y-148190000I-249999J0D01*
G01*
X178619999Y-148190000D01*
G75*
G02*
X178370000Y-147940001I0J249999D01*
G01*
X178370000Y-147239999D01*
G75*
G02*
X178619999Y-146990000I249999J0D01*
G01*
G37*
%TD*%
%TO.C,R20*%
G36*
G01*
X172269999Y-148355000D02*
X173170001Y-148355000D01*
G75*
G02*
X173420000Y-148604999I0J-249999D01*
G01*
X173420000Y-149305001D01*
G75*
G02*
X173170001Y-149555000I-249999J0D01*
G01*
X172269999Y-149555000D01*
G75*
G02*
X172020000Y-149305001I0J249999D01*
G01*
X172020000Y-148604999D01*
G75*
G02*
X172269999Y-148355000I249999J0D01*
G01*
G37*
G36*
G01*
X172269999Y-146355000D02*
X173170001Y-146355000D01*
G75*
G02*
X173420000Y-146604999I0J-249999D01*
G01*
X173420000Y-147305001D01*
G75*
G02*
X173170001Y-147555000I-249999J0D01*
G01*
X172269999Y-147555000D01*
G75*
G02*
X172020000Y-147305001I0J249999D01*
G01*
X172020000Y-146604999D01*
G75*
G02*
X172269999Y-146355000I249999J0D01*
G01*
G37*
%TD*%
%TO.C,R4*%
G36*
G01*
X171850000Y-145230001D02*
X171850000Y-144329999D01*
G75*
G02*
X172099999Y-144080000I249999J0D01*
G01*
X172800001Y-144080000D01*
G75*
G02*
X173050000Y-144329999I0J-249999D01*
G01*
X173050000Y-145230001D01*
G75*
G02*
X172800001Y-145480000I-249999J0D01*
G01*
X172099999Y-145480000D01*
G75*
G02*
X171850000Y-145230001I0J249999D01*
G01*
G37*
G36*
G01*
X169850000Y-145230001D02*
X169850000Y-144329999D01*
G75*
G02*
X170099999Y-144080000I249999J0D01*
G01*
X170800001Y-144080000D01*
G75*
G02*
X171050000Y-144329999I0J-249999D01*
G01*
X171050000Y-145230001D01*
G75*
G02*
X170800001Y-145480000I-249999J0D01*
G01*
X170099999Y-145480000D01*
G75*
G02*
X169850000Y-145230001I0J249999D01*
G01*
G37*
%TD*%
D18*
%TO.C,Q11*%
X174895000Y-147320000D03*
X176895000Y-148270000D03*
X176895000Y-146370000D03*
%TD*%
D19*
%TO.C,Q3*%
X166690000Y-147100000D03*
X167640000Y-147100000D03*
X168590000Y-147100000D03*
X168590000Y-144780000D03*
X167640000Y-144780000D03*
X166690000Y-144780000D03*
%TD*%
D14*
%TO.C,U35*%
X218440000Y-105410000D03*
X218440000Y-100330000D03*
X218440000Y-97790000D03*
X218440000Y-102870000D03*
X201930000Y-102870000D03*
X201930000Y-97790000D03*
X201930000Y-105410000D03*
X201930000Y-100330000D03*
%TD*%
D20*
%TO.C,U30*%
X234315000Y-100330000D03*
G36*
G01*
X233265000Y-99230000D02*
X233265000Y-99430000D01*
G75*
G02*
X233165000Y-99530000I-100000J0D01*
G01*
X232565000Y-99530000D01*
G75*
G02*
X232465000Y-99430000I0J100000D01*
G01*
X232465000Y-99230000D01*
G75*
G02*
X232565000Y-99130000I100000J0D01*
G01*
X233165000Y-99130000D01*
G75*
G02*
X233265000Y-99230000I0J-100000D01*
G01*
G37*
G36*
G01*
X233265000Y-100230000D02*
X233265000Y-100430000D01*
G75*
G02*
X233165000Y-100530000I-100000J0D01*
G01*
X232565000Y-100530000D01*
G75*
G02*
X232465000Y-100430000I0J100000D01*
G01*
X232465000Y-100230000D01*
G75*
G02*
X232565000Y-100130000I100000J0D01*
G01*
X233165000Y-100130000D01*
G75*
G02*
X233265000Y-100230000I0J-100000D01*
G01*
G37*
G36*
G01*
X233265000Y-101230000D02*
X233265000Y-101430000D01*
G75*
G02*
X233165000Y-101530000I-100000J0D01*
G01*
X232565000Y-101530000D01*
G75*
G02*
X232465000Y-101430000I0J100000D01*
G01*
X232465000Y-101230000D01*
G75*
G02*
X232565000Y-101130000I100000J0D01*
G01*
X233165000Y-101130000D01*
G75*
G02*
X233265000Y-101230000I0J-100000D01*
G01*
G37*
G36*
G01*
X236165000Y-101230000D02*
X236165000Y-101430000D01*
G75*
G02*
X236065000Y-101530000I-100000J0D01*
G01*
X235465000Y-101530000D01*
G75*
G02*
X235365000Y-101430000I0J100000D01*
G01*
X235365000Y-101230000D01*
G75*
G02*
X235465000Y-101130000I100000J0D01*
G01*
X236065000Y-101130000D01*
G75*
G02*
X236165000Y-101230000I0J-100000D01*
G01*
G37*
G36*
G01*
X236165000Y-100230000D02*
X236165000Y-100430000D01*
G75*
G02*
X236065000Y-100530000I-100000J0D01*
G01*
X235465000Y-100530000D01*
G75*
G02*
X235365000Y-100430000I0J100000D01*
G01*
X235365000Y-100230000D01*
G75*
G02*
X235465000Y-100130000I100000J0D01*
G01*
X236065000Y-100130000D01*
G75*
G02*
X236165000Y-100230000I0J-100000D01*
G01*
G37*
G36*
G01*
X236165000Y-99230000D02*
X236165000Y-99430000D01*
G75*
G02*
X236065000Y-99530000I-100000J0D01*
G01*
X235465000Y-99530000D01*
G75*
G02*
X235365000Y-99430000I0J100000D01*
G01*
X235365000Y-99230000D01*
G75*
G02*
X235465000Y-99130000I100000J0D01*
G01*
X236065000Y-99130000D01*
G75*
G02*
X236165000Y-99230000I0J-100000D01*
G01*
G37*
%TD*%
%TO.C,U21*%
G36*
G01*
X202355000Y-152205000D02*
X202355000Y-151955000D01*
G75*
G02*
X202480000Y-151830000I125000J0D01*
G01*
X203655000Y-151830000D01*
G75*
G02*
X203780000Y-151955000I0J-125000D01*
G01*
X203780000Y-152205000D01*
G75*
G02*
X203655000Y-152330000I-125000J0D01*
G01*
X202480000Y-152330000D01*
G75*
G02*
X202355000Y-152205000I0J125000D01*
G01*
G37*
G36*
G01*
X202355000Y-150305000D02*
X202355000Y-150055000D01*
G75*
G02*
X202480000Y-149930000I125000J0D01*
G01*
X203655000Y-149930000D01*
G75*
G02*
X203780000Y-150055000I0J-125000D01*
G01*
X203780000Y-150305000D01*
G75*
G02*
X203655000Y-150430000I-125000J0D01*
G01*
X202480000Y-150430000D01*
G75*
G02*
X202355000Y-150305000I0J125000D01*
G01*
G37*
G36*
G01*
X200080000Y-150305000D02*
X200080000Y-150055000D01*
G75*
G02*
X200205000Y-149930000I125000J0D01*
G01*
X201380000Y-149930000D01*
G75*
G02*
X201505000Y-150055000I0J-125000D01*
G01*
X201505000Y-150305000D01*
G75*
G02*
X201380000Y-150430000I-125000J0D01*
G01*
X200205000Y-150430000D01*
G75*
G02*
X200080000Y-150305000I0J125000D01*
G01*
G37*
G36*
G01*
X200080000Y-151255000D02*
X200080000Y-151005000D01*
G75*
G02*
X200205000Y-150880000I125000J0D01*
G01*
X201380000Y-150880000D01*
G75*
G02*
X201505000Y-151005000I0J-125000D01*
G01*
X201505000Y-151255000D01*
G75*
G02*
X201380000Y-151380000I-125000J0D01*
G01*
X200205000Y-151380000D01*
G75*
G02*
X200080000Y-151255000I0J125000D01*
G01*
G37*
G36*
G01*
X200080000Y-152205000D02*
X200080000Y-151955000D01*
G75*
G02*
X200205000Y-151830000I125000J0D01*
G01*
X201380000Y-151830000D01*
G75*
G02*
X201505000Y-151955000I0J-125000D01*
G01*
X201505000Y-152205000D01*
G75*
G02*
X201380000Y-152330000I-125000J0D01*
G01*
X200205000Y-152330000D01*
G75*
G02*
X200080000Y-152205000I0J125000D01*
G01*
G37*
%TD*%
%TO.C,U19*%
G36*
G01*
X216827500Y-140775000D02*
X216827500Y-140525000D01*
G75*
G02*
X216952500Y-140400000I125000J0D01*
G01*
X218127500Y-140400000D01*
G75*
G02*
X218252500Y-140525000I0J-125000D01*
G01*
X218252500Y-140775000D01*
G75*
G02*
X218127500Y-140900000I-125000J0D01*
G01*
X216952500Y-140900000D01*
G75*
G02*
X216827500Y-140775000I0J125000D01*
G01*
G37*
G36*
G01*
X216827500Y-138875000D02*
X216827500Y-138625000D01*
G75*
G02*
X216952500Y-138500000I125000J0D01*
G01*
X218127500Y-138500000D01*
G75*
G02*
X218252500Y-138625000I0J-125000D01*
G01*
X218252500Y-138875000D01*
G75*
G02*
X218127500Y-139000000I-125000J0D01*
G01*
X216952500Y-139000000D01*
G75*
G02*
X216827500Y-138875000I0J125000D01*
G01*
G37*
G36*
G01*
X214552500Y-138875000D02*
X214552500Y-138625000D01*
G75*
G02*
X214677500Y-138500000I125000J0D01*
G01*
X215852500Y-138500000D01*
G75*
G02*
X215977500Y-138625000I0J-125000D01*
G01*
X215977500Y-138875000D01*
G75*
G02*
X215852500Y-139000000I-125000J0D01*
G01*
X214677500Y-139000000D01*
G75*
G02*
X214552500Y-138875000I0J125000D01*
G01*
G37*
G36*
G01*
X214552500Y-139825000D02*
X214552500Y-139575000D01*
G75*
G02*
X214677500Y-139450000I125000J0D01*
G01*
X215852500Y-139450000D01*
G75*
G02*
X215977500Y-139575000I0J-125000D01*
G01*
X215977500Y-139825000D01*
G75*
G02*
X215852500Y-139950000I-125000J0D01*
G01*
X214677500Y-139950000D01*
G75*
G02*
X214552500Y-139825000I0J125000D01*
G01*
G37*
G36*
G01*
X214552500Y-140775000D02*
X214552500Y-140525000D01*
G75*
G02*
X214677500Y-140400000I125000J0D01*
G01*
X215852500Y-140400000D01*
G75*
G02*
X215977500Y-140525000I0J-125000D01*
G01*
X215977500Y-140775000D01*
G75*
G02*
X215852500Y-140900000I-125000J0D01*
G01*
X214677500Y-140900000D01*
G75*
G02*
X214552500Y-140775000I0J125000D01*
G01*
G37*
%TD*%
%TO.C,U18*%
G36*
G01*
X202990000Y-140775000D02*
X202990000Y-140525000D01*
G75*
G02*
X203115000Y-140400000I125000J0D01*
G01*
X204290000Y-140400000D01*
G75*
G02*
X204415000Y-140525000I0J-125000D01*
G01*
X204415000Y-140775000D01*
G75*
G02*
X204290000Y-140900000I-125000J0D01*
G01*
X203115000Y-140900000D01*
G75*
G02*
X202990000Y-140775000I0J125000D01*
G01*
G37*
G36*
G01*
X202990000Y-138875000D02*
X202990000Y-138625000D01*
G75*
G02*
X203115000Y-138500000I125000J0D01*
G01*
X204290000Y-138500000D01*
G75*
G02*
X204415000Y-138625000I0J-125000D01*
G01*
X204415000Y-138875000D01*
G75*
G02*
X204290000Y-139000000I-125000J0D01*
G01*
X203115000Y-139000000D01*
G75*
G02*
X202990000Y-138875000I0J125000D01*
G01*
G37*
G36*
G01*
X200715000Y-138875000D02*
X200715000Y-138625000D01*
G75*
G02*
X200840000Y-138500000I125000J0D01*
G01*
X202015000Y-138500000D01*
G75*
G02*
X202140000Y-138625000I0J-125000D01*
G01*
X202140000Y-138875000D01*
G75*
G02*
X202015000Y-139000000I-125000J0D01*
G01*
X200840000Y-139000000D01*
G75*
G02*
X200715000Y-138875000I0J125000D01*
G01*
G37*
G36*
G01*
X200715000Y-139825000D02*
X200715000Y-139575000D01*
G75*
G02*
X200840000Y-139450000I125000J0D01*
G01*
X202015000Y-139450000D01*
G75*
G02*
X202140000Y-139575000I0J-125000D01*
G01*
X202140000Y-139825000D01*
G75*
G02*
X202015000Y-139950000I-125000J0D01*
G01*
X200840000Y-139950000D01*
G75*
G02*
X200715000Y-139825000I0J125000D01*
G01*
G37*
G36*
G01*
X200715000Y-140775000D02*
X200715000Y-140525000D01*
G75*
G02*
X200840000Y-140400000I125000J0D01*
G01*
X202015000Y-140400000D01*
G75*
G02*
X202140000Y-140525000I0J-125000D01*
G01*
X202140000Y-140775000D01*
G75*
G02*
X202015000Y-140900000I-125000J0D01*
G01*
X200840000Y-140900000D01*
G75*
G02*
X200715000Y-140775000I0J125000D01*
G01*
G37*
%TD*%
%TO.C,U17*%
G36*
G01*
X218035000Y-152550000D02*
X218035000Y-152250000D01*
G75*
G02*
X218185000Y-152100000I150000J0D01*
G01*
X219835000Y-152100000D01*
G75*
G02*
X219985000Y-152250000I0J-150000D01*
G01*
X219985000Y-152550000D01*
G75*
G02*
X219835000Y-152700000I-150000J0D01*
G01*
X218185000Y-152700000D01*
G75*
G02*
X218035000Y-152550000I0J150000D01*
G01*
G37*
G36*
G01*
X218035000Y-151280000D02*
X218035000Y-150980000D01*
G75*
G02*
X218185000Y-150830000I150000J0D01*
G01*
X219835000Y-150830000D01*
G75*
G02*
X219985000Y-150980000I0J-150000D01*
G01*
X219985000Y-151280000D01*
G75*
G02*
X219835000Y-151430000I-150000J0D01*
G01*
X218185000Y-151430000D01*
G75*
G02*
X218035000Y-151280000I0J150000D01*
G01*
G37*
G36*
G01*
X218035000Y-150010000D02*
X218035000Y-149710000D01*
G75*
G02*
X218185000Y-149560000I150000J0D01*
G01*
X219835000Y-149560000D01*
G75*
G02*
X219985000Y-149710000I0J-150000D01*
G01*
X219985000Y-150010000D01*
G75*
G02*
X219835000Y-150160000I-150000J0D01*
G01*
X218185000Y-150160000D01*
G75*
G02*
X218035000Y-150010000I0J150000D01*
G01*
G37*
G36*
G01*
X218035000Y-148740000D02*
X218035000Y-148440000D01*
G75*
G02*
X218185000Y-148290000I150000J0D01*
G01*
X219835000Y-148290000D01*
G75*
G02*
X219985000Y-148440000I0J-150000D01*
G01*
X219985000Y-148740000D01*
G75*
G02*
X219835000Y-148890000I-150000J0D01*
G01*
X218185000Y-148890000D01*
G75*
G02*
X218035000Y-148740000I0J150000D01*
G01*
G37*
G36*
G01*
X213085000Y-148740000D02*
X213085000Y-148440000D01*
G75*
G02*
X213235000Y-148290000I150000J0D01*
G01*
X214885000Y-148290000D01*
G75*
G02*
X215035000Y-148440000I0J-150000D01*
G01*
X215035000Y-148740000D01*
G75*
G02*
X214885000Y-148890000I-150000J0D01*
G01*
X213235000Y-148890000D01*
G75*
G02*
X213085000Y-148740000I0J150000D01*
G01*
G37*
G36*
G01*
X213085000Y-150010000D02*
X213085000Y-149710000D01*
G75*
G02*
X213235000Y-149560000I150000J0D01*
G01*
X214885000Y-149560000D01*
G75*
G02*
X215035000Y-149710000I0J-150000D01*
G01*
X215035000Y-150010000D01*
G75*
G02*
X214885000Y-150160000I-150000J0D01*
G01*
X213235000Y-150160000D01*
G75*
G02*
X213085000Y-150010000I0J150000D01*
G01*
G37*
G36*
G01*
X213085000Y-151280000D02*
X213085000Y-150980000D01*
G75*
G02*
X213235000Y-150830000I150000J0D01*
G01*
X214885000Y-150830000D01*
G75*
G02*
X215035000Y-150980000I0J-150000D01*
G01*
X215035000Y-151280000D01*
G75*
G02*
X214885000Y-151430000I-150000J0D01*
G01*
X213235000Y-151430000D01*
G75*
G02*
X213085000Y-151280000I0J150000D01*
G01*
G37*
G36*
G01*
X213085000Y-152550000D02*
X213085000Y-152250000D01*
G75*
G02*
X213235000Y-152100000I150000J0D01*
G01*
X214885000Y-152100000D01*
G75*
G02*
X215035000Y-152250000I0J-150000D01*
G01*
X215035000Y-152550000D01*
G75*
G02*
X214885000Y-152700000I-150000J0D01*
G01*
X213235000Y-152700000D01*
G75*
G02*
X213085000Y-152550000I0J150000D01*
G01*
G37*
%TD*%
%TO.C,R24*%
G36*
G01*
X191370000Y-146234999D02*
X191370000Y-147135001D01*
G75*
G02*
X191120001Y-147385000I-249999J0D01*
G01*
X190419999Y-147385000D01*
G75*
G02*
X190170000Y-147135001I0J249999D01*
G01*
X190170000Y-146234999D01*
G75*
G02*
X190419999Y-145985000I249999J0D01*
G01*
X191120001Y-145985000D01*
G75*
G02*
X191370000Y-146234999I0J-249999D01*
G01*
G37*
G36*
G01*
X193370000Y-146234999D02*
X193370000Y-147135001D01*
G75*
G02*
X193120001Y-147385000I-249999J0D01*
G01*
X192419999Y-147385000D01*
G75*
G02*
X192170000Y-147135001I0J249999D01*
G01*
X192170000Y-146234999D01*
G75*
G02*
X192419999Y-145985000I249999J0D01*
G01*
X193120001Y-145985000D01*
G75*
G02*
X193370000Y-146234999I0J-249999D01*
G01*
G37*
%TD*%
%TO.C,R22*%
G36*
G01*
X193490001Y-127235000D02*
X192589999Y-127235000D01*
G75*
G02*
X192340000Y-126985001I0J249999D01*
G01*
X192340000Y-126284999D01*
G75*
G02*
X192589999Y-126035000I249999J0D01*
G01*
X193490001Y-126035000D01*
G75*
G02*
X193740000Y-126284999I0J-249999D01*
G01*
X193740000Y-126985001D01*
G75*
G02*
X193490001Y-127235000I-249999J0D01*
G01*
G37*
G36*
G01*
X193490001Y-129235000D02*
X192589999Y-129235000D01*
G75*
G02*
X192340000Y-128985001I0J249999D01*
G01*
X192340000Y-128284999D01*
G75*
G02*
X192589999Y-128035000I249999J0D01*
G01*
X193490001Y-128035000D01*
G75*
G02*
X193740000Y-128284999I0J-249999D01*
G01*
X193740000Y-128985001D01*
G75*
G02*
X193490001Y-129235000I-249999J0D01*
G01*
G37*
%TD*%
%TO.C,R21*%
G36*
G01*
X191370000Y-148774999D02*
X191370000Y-149675001D01*
G75*
G02*
X191120001Y-149925000I-249999J0D01*
G01*
X190419999Y-149925000D01*
G75*
G02*
X190170000Y-149675001I0J249999D01*
G01*
X190170000Y-148774999D01*
G75*
G02*
X190419999Y-148525000I249999J0D01*
G01*
X191120001Y-148525000D01*
G75*
G02*
X191370000Y-148774999I0J-249999D01*
G01*
G37*
G36*
G01*
X193370000Y-148774999D02*
X193370000Y-149675001D01*
G75*
G02*
X193120001Y-149925000I-249999J0D01*
G01*
X192419999Y-149925000D01*
G75*
G02*
X192170000Y-149675001I0J249999D01*
G01*
X192170000Y-148774999D01*
G75*
G02*
X192419999Y-148525000I249999J0D01*
G01*
X193120001Y-148525000D01*
G75*
G02*
X193370000Y-148774999I0J-249999D01*
G01*
G37*
%TD*%
%TO.C,R17*%
G36*
G01*
X206410000Y-152215001D02*
X206410000Y-151314999D01*
G75*
G02*
X206659999Y-151065000I249999J0D01*
G01*
X207360001Y-151065000D01*
G75*
G02*
X207610000Y-151314999I0J-249999D01*
G01*
X207610000Y-152215001D01*
G75*
G02*
X207360001Y-152465000I-249999J0D01*
G01*
X206659999Y-152465000D01*
G75*
G02*
X206410000Y-152215001I0J249999D01*
G01*
G37*
G36*
G01*
X204410000Y-152215001D02*
X204410000Y-151314999D01*
G75*
G02*
X204659999Y-151065000I249999J0D01*
G01*
X205360001Y-151065000D01*
G75*
G02*
X205610000Y-151314999I0J-249999D01*
G01*
X205610000Y-152215001D01*
G75*
G02*
X205360001Y-152465000I-249999J0D01*
G01*
X204659999Y-152465000D01*
G75*
G02*
X204410000Y-152215001I0J249999D01*
G01*
G37*
%TD*%
%TO.C,R14*%
G36*
G01*
X221015000Y-140785001D02*
X221015000Y-139884999D01*
G75*
G02*
X221264999Y-139635000I249999J0D01*
G01*
X221965001Y-139635000D01*
G75*
G02*
X222215000Y-139884999I0J-249999D01*
G01*
X222215000Y-140785001D01*
G75*
G02*
X221965001Y-141035000I-249999J0D01*
G01*
X221264999Y-141035000D01*
G75*
G02*
X221015000Y-140785001I0J249999D01*
G01*
G37*
G36*
G01*
X219015000Y-140785001D02*
X219015000Y-139884999D01*
G75*
G02*
X219264999Y-139635000I249999J0D01*
G01*
X219965001Y-139635000D01*
G75*
G02*
X220215000Y-139884999I0J-249999D01*
G01*
X220215000Y-140785001D01*
G75*
G02*
X219965001Y-141035000I-249999J0D01*
G01*
X219264999Y-141035000D01*
G75*
G02*
X219015000Y-140785001I0J249999D01*
G01*
G37*
%TD*%
%TO.C,R13*%
G36*
G01*
X207045000Y-140785001D02*
X207045000Y-139884999D01*
G75*
G02*
X207294999Y-139635000I249999J0D01*
G01*
X207995001Y-139635000D01*
G75*
G02*
X208245000Y-139884999I0J-249999D01*
G01*
X208245000Y-140785001D01*
G75*
G02*
X207995001Y-141035000I-249999J0D01*
G01*
X207294999Y-141035000D01*
G75*
G02*
X207045000Y-140785001I0J249999D01*
G01*
G37*
G36*
G01*
X205045000Y-140785001D02*
X205045000Y-139884999D01*
G75*
G02*
X205294999Y-139635000I249999J0D01*
G01*
X205995001Y-139635000D01*
G75*
G02*
X206245000Y-139884999I0J-249999D01*
G01*
X206245000Y-140785001D01*
G75*
G02*
X205995001Y-141035000I-249999J0D01*
G01*
X205294999Y-141035000D01*
G75*
G02*
X205045000Y-140785001I0J249999D01*
G01*
G37*
%TD*%
%TO.C,R5*%
G36*
G01*
X195129999Y-128035000D02*
X196030001Y-128035000D01*
G75*
G02*
X196280000Y-128284999I0J-249999D01*
G01*
X196280000Y-128985001D01*
G75*
G02*
X196030001Y-129235000I-249999J0D01*
G01*
X195129999Y-129235000D01*
G75*
G02*
X194880000Y-128985001I0J249999D01*
G01*
X194880000Y-128284999D01*
G75*
G02*
X195129999Y-128035000I249999J0D01*
G01*
G37*
G36*
G01*
X195129999Y-126035000D02*
X196030001Y-126035000D01*
G75*
G02*
X196280000Y-126284999I0J-249999D01*
G01*
X196280000Y-126985001D01*
G75*
G02*
X196030001Y-127235000I-249999J0D01*
G01*
X195129999Y-127235000D01*
G75*
G02*
X194880000Y-126985001I0J249999D01*
G01*
X194880000Y-126284999D01*
G75*
G02*
X195129999Y-126035000I249999J0D01*
G01*
G37*
%TD*%
%TO.C,R2*%
G36*
G01*
X222065001Y-150460000D02*
X221164999Y-150460000D01*
G75*
G02*
X220915000Y-150210001I0J249999D01*
G01*
X220915000Y-149509999D01*
G75*
G02*
X221164999Y-149260000I249999J0D01*
G01*
X222065001Y-149260000D01*
G75*
G02*
X222315000Y-149509999I0J-249999D01*
G01*
X222315000Y-150210001D01*
G75*
G02*
X222065001Y-150460000I-249999J0D01*
G01*
G37*
G36*
G01*
X222065001Y-152460000D02*
X221164999Y-152460000D01*
G75*
G02*
X220915000Y-152210001I0J249999D01*
G01*
X220915000Y-151509999D01*
G75*
G02*
X221164999Y-151260000I249999J0D01*
G01*
X222065001Y-151260000D01*
G75*
G02*
X222315000Y-151509999I0J-249999D01*
G01*
X222315000Y-152210001D01*
G75*
G02*
X222065001Y-152460000I-249999J0D01*
G01*
G37*
%TD*%
D18*
%TO.C,Q7*%
X211185000Y-150495000D03*
X209185000Y-149545000D03*
X209185000Y-151445000D03*
%TD*%
%TO.C,Q5*%
X225790000Y-139065000D03*
X223790000Y-138115000D03*
X223790000Y-140015000D03*
%TD*%
%TO.C,Q4*%
X211820000Y-139065000D03*
X209820000Y-138115000D03*
X209820000Y-140015000D03*
%TD*%
D21*
%TO.C,J9*%
X229684000Y-61468000D03*
X238184000Y-61468000D03*
%TD*%
D16*
%TO.C,J8*%
X225940000Y-142875000D03*
X223440000Y-142875000D03*
X220940000Y-142875000D03*
G36*
G01*
X217590000Y-143600000D02*
X217590000Y-142150000D01*
G75*
G02*
X217840000Y-141900000I250000J0D01*
G01*
X219040000Y-141900000D01*
G75*
G02*
X219290000Y-142150000I0J-250000D01*
G01*
X219290000Y-143600000D01*
G75*
G02*
X219040000Y-143850000I-250000J0D01*
G01*
X217840000Y-143850000D01*
G75*
G02*
X217590000Y-143600000I0J250000D01*
G01*
G37*
%TD*%
%TO.C,J7*%
X211970000Y-142875000D03*
X209470000Y-142875000D03*
X206970000Y-142875000D03*
G36*
G01*
X203620000Y-143600000D02*
X203620000Y-142150000D01*
G75*
G02*
X203870000Y-141900000I250000J0D01*
G01*
X205070000Y-141900000D01*
G75*
G02*
X205320000Y-142150000I0J-250000D01*
G01*
X205320000Y-143600000D01*
G75*
G02*
X205070000Y-143850000I-250000J0D01*
G01*
X203870000Y-143850000D01*
G75*
G02*
X203620000Y-143600000I0J250000D01*
G01*
G37*
%TD*%
%TO.C,J3*%
X226020000Y-154305000D03*
X223520000Y-154305000D03*
X221020000Y-154305000D03*
G36*
G01*
X217670000Y-155030000D02*
X217670000Y-153580000D01*
G75*
G02*
X217920000Y-153330000I250000J0D01*
G01*
X219120000Y-153330000D01*
G75*
G02*
X219370000Y-153580000I0J-250000D01*
G01*
X219370000Y-155030000D01*
G75*
G02*
X219120000Y-155280000I-250000J0D01*
G01*
X217920000Y-155280000D01*
G75*
G02*
X217670000Y-155030000I0J250000D01*
G01*
G37*
%TD*%
%TO.C,J2*%
X211970000Y-154305000D03*
X209470000Y-154305000D03*
X206970000Y-154305000D03*
G36*
G01*
X203620000Y-155030000D02*
X203620000Y-153580000D01*
G75*
G02*
X203870000Y-153330000I250000J0D01*
G01*
X205070000Y-153330000D01*
G75*
G02*
X205320000Y-153580000I0J-250000D01*
G01*
X205320000Y-155030000D01*
G75*
G02*
X205070000Y-155280000I-250000J0D01*
G01*
X203870000Y-155280000D01*
G75*
G02*
X203620000Y-155030000I0J250000D01*
G01*
G37*
%TD*%
D22*
%TO.C,H4*%
X238125000Y-86360000D03*
%TD*%
%TO.C,H2*%
X222631000Y-61595000D03*
%TD*%
%TO.C,C18*%
G36*
G01*
X214582500Y-146210000D02*
X214582500Y-147160000D01*
G75*
G02*
X214332500Y-147410000I-250000J0D01*
G01*
X213657500Y-147410000D01*
G75*
G02*
X213407500Y-147160000I0J250000D01*
G01*
X213407500Y-146210000D01*
G75*
G02*
X213657500Y-145960000I250000J0D01*
G01*
X214332500Y-145960000D01*
G75*
G02*
X214582500Y-146210000I0J-250000D01*
G01*
G37*
G36*
G01*
X216657500Y-146210000D02*
X216657500Y-147160000D01*
G75*
G02*
X216407500Y-147410000I-250000J0D01*
G01*
X215732500Y-147410000D01*
G75*
G02*
X215482500Y-147160000I0J250000D01*
G01*
X215482500Y-146210000D01*
G75*
G02*
X215732500Y-145960000I250000J0D01*
G01*
X216407500Y-145960000D01*
G75*
G02*
X216657500Y-146210000I0J-250000D01*
G01*
G37*
%TD*%
%TO.C,C2*%
G36*
G01*
X204517500Y-113505000D02*
X204517500Y-112555000D01*
G75*
G02*
X204767500Y-112305000I250000J0D01*
G01*
X205442500Y-112305000D01*
G75*
G02*
X205692500Y-112555000I0J-250000D01*
G01*
X205692500Y-113505000D01*
G75*
G02*
X205442500Y-113755000I-250000J0D01*
G01*
X204767500Y-113755000D01*
G75*
G02*
X204517500Y-113505000I0J250000D01*
G01*
G37*
G36*
G01*
X202442500Y-113505000D02*
X202442500Y-112555000D01*
G75*
G02*
X202692500Y-112305000I250000J0D01*
G01*
X203367500Y-112305000D01*
G75*
G02*
X203617500Y-112555000I0J-250000D01*
G01*
X203617500Y-113505000D01*
G75*
G02*
X203367500Y-113755000I-250000J0D01*
G01*
X202692500Y-113755000D01*
G75*
G02*
X202442500Y-113505000I0J250000D01*
G01*
G37*
%TD*%
%TO.C,C1*%
G36*
G01*
X234097500Y-103030000D02*
X234097500Y-103980000D01*
G75*
G02*
X233847500Y-104230000I-250000J0D01*
G01*
X233172500Y-104230000D01*
G75*
G02*
X232922500Y-103980000I0J250000D01*
G01*
X232922500Y-103030000D01*
G75*
G02*
X233172500Y-102780000I250000J0D01*
G01*
X233847500Y-102780000D01*
G75*
G02*
X234097500Y-103030000I0J-250000D01*
G01*
G37*
G36*
G01*
X236172500Y-103030000D02*
X236172500Y-103980000D01*
G75*
G02*
X235922500Y-104230000I-250000J0D01*
G01*
X235247500Y-104230000D01*
G75*
G02*
X234997500Y-103980000I0J250000D01*
G01*
X234997500Y-103030000D01*
G75*
G02*
X235247500Y-102780000I250000J0D01*
G01*
X235922500Y-102780000D01*
G75*
G02*
X236172500Y-103030000I0J-250000D01*
G01*
G37*
%TD*%
%TO.C,R36*%
G36*
G01*
X195345000Y-116655001D02*
X195345000Y-115754999D01*
G75*
G02*
X195594999Y-115505000I249999J0D01*
G01*
X196295001Y-115505000D01*
G75*
G02*
X196545000Y-115754999I0J-249999D01*
G01*
X196545000Y-116655001D01*
G75*
G02*
X196295001Y-116905000I-249999J0D01*
G01*
X195594999Y-116905000D01*
G75*
G02*
X195345000Y-116655001I0J249999D01*
G01*
G37*
G36*
G01*
X193345000Y-116655001D02*
X193345000Y-115754999D01*
G75*
G02*
X193594999Y-115505000I249999J0D01*
G01*
X194295001Y-115505000D01*
G75*
G02*
X194545000Y-115754999I0J-249999D01*
G01*
X194545000Y-116655001D01*
G75*
G02*
X194295001Y-116905000I-249999J0D01*
G01*
X193594999Y-116905000D01*
G75*
G02*
X193345000Y-116655001I0J249999D01*
G01*
G37*
%TD*%
%TO.C,R35*%
G36*
G01*
X194545000Y-118294999D02*
X194545000Y-119195001D01*
G75*
G02*
X194295001Y-119445000I-249999J0D01*
G01*
X193594999Y-119445000D01*
G75*
G02*
X193345000Y-119195001I0J249999D01*
G01*
X193345000Y-118294999D01*
G75*
G02*
X193594999Y-118045000I249999J0D01*
G01*
X194295001Y-118045000D01*
G75*
G02*
X194545000Y-118294999I0J-249999D01*
G01*
G37*
G36*
G01*
X196545000Y-118294999D02*
X196545000Y-119195001D01*
G75*
G02*
X196295001Y-119445000I-249999J0D01*
G01*
X195594999Y-119445000D01*
G75*
G02*
X195345000Y-119195001I0J249999D01*
G01*
X195345000Y-118294999D01*
G75*
G02*
X195594999Y-118045000I249999J0D01*
G01*
X196295001Y-118045000D01*
G75*
G02*
X196545000Y-118294999I0J-249999D01*
G01*
G37*
%TD*%
D14*
%TO.C,U33*%
X175895000Y-90805000D03*
X175895000Y-93345000D03*
X175895000Y-95885000D03*
X175895000Y-98425000D03*
X175895000Y-100965000D03*
X175895000Y-103505000D03*
X175895000Y-106045000D03*
X175895000Y-108585000D03*
%TD*%
%TO.C,U24*%
X146050000Y-113665000D03*
X146050000Y-116205000D03*
%TD*%
%TO.C,U23*%
X146050000Y-104775000D03*
X146050000Y-107315000D03*
%TD*%
%TO.C,U10*%
X146050000Y-95885000D03*
X146050000Y-98425000D03*
%TD*%
%TO.C,U9*%
X146050000Y-86995000D03*
X146050000Y-89535000D03*
%TD*%
%TO.C,U8*%
X146050000Y-78105000D03*
X146050000Y-80645000D03*
%TD*%
%TO.C,U7*%
X146050000Y-69215000D03*
X146050000Y-71755000D03*
%TD*%
D22*
%TO.C,H5*%
X147320000Y-62230000D03*
%TD*%
%TO.C,H1*%
X144780000Y-154940000D03*
%TD*%
D23*
%TO.C,U29*%
X171450000Y-130610000D03*
D24*
X168910000Y-139760000D03*
X173990000Y-139760000D03*
%TD*%
D25*
%TO.C,U28*%
X169545000Y-149860000D03*
D26*
X169545000Y-154860000D03*
%TD*%
%TO.C,U27*%
G36*
G01*
X163655000Y-150900000D02*
X163655000Y-153900000D01*
G75*
G02*
X162155000Y-155400000I-1500000J0D01*
G01*
X159155000Y-155400000D01*
G75*
G02*
X157655000Y-153900000I0J1500000D01*
G01*
X157655000Y-150900000D01*
G75*
G02*
X159155000Y-149400000I1500000J0D01*
G01*
X162155000Y-149400000D01*
G75*
G02*
X163655000Y-150900000I0J-1500000D01*
G01*
G37*
D27*
X153455000Y-152400000D03*
%TD*%
D28*
%TO.C,U26*%
X156641800Y-113563400D03*
X157480000Y-113563400D03*
X158318200Y-113563400D03*
X156641800Y-115036600D03*
X157480000Y-115036600D03*
X158318200Y-115036600D03*
X157480000Y-116459000D03*
X156641800Y-116459000D03*
X158318200Y-116459000D03*
%TD*%
%TO.C,U25*%
X156641800Y-104673400D03*
X157480000Y-104673400D03*
X158318200Y-104673400D03*
X156641800Y-106146600D03*
X157480000Y-106146600D03*
X158318200Y-106146600D03*
X157480000Y-107569000D03*
X156641800Y-107569000D03*
X158318200Y-107569000D03*
%TD*%
%TO.C,U14*%
X156641800Y-95783400D03*
X157480000Y-95783400D03*
X158318200Y-95783400D03*
X156641800Y-97256600D03*
X157480000Y-97256600D03*
X158318200Y-97256600D03*
X157480000Y-98679000D03*
X156641800Y-98679000D03*
X158318200Y-98679000D03*
%TD*%
%TO.C,U13*%
X156641800Y-86893400D03*
X157480000Y-86893400D03*
X158318200Y-86893400D03*
X156641800Y-88366600D03*
X157480000Y-88366600D03*
X158318200Y-88366600D03*
X157480000Y-89789000D03*
X156641800Y-89789000D03*
X158318200Y-89789000D03*
%TD*%
%TO.C,U12*%
X156641800Y-78003400D03*
X157480000Y-78003400D03*
X158318200Y-78003400D03*
X156641800Y-79476600D03*
X157480000Y-79476600D03*
X158318200Y-79476600D03*
X157480000Y-80899000D03*
X156641800Y-80899000D03*
X158318200Y-80899000D03*
%TD*%
%TO.C,U11*%
X156641800Y-69113400D03*
X157480000Y-69113400D03*
X158318200Y-69113400D03*
X156641800Y-70586600D03*
X157480000Y-70586600D03*
X158318200Y-70586600D03*
X157480000Y-72009000D03*
X156641800Y-72009000D03*
X158318200Y-72009000D03*
%TD*%
D29*
%TO.C,U3*%
X144780000Y-139780000D03*
D26*
X144780000Y-144780000D03*
%TD*%
D29*
%TO.C,U2*%
X144780000Y-125810000D03*
D26*
X144780000Y-130810000D03*
%TD*%
D12*
%TO.C,SW1*%
X161925000Y-127635000D03*
D13*
X164465000Y-127635000D03*
%TD*%
%TO.C,R23*%
G36*
G01*
X179305000Y-108134999D02*
X179305000Y-109035001D01*
G75*
G02*
X179055001Y-109285000I-249999J0D01*
G01*
X178354999Y-109285000D01*
G75*
G02*
X178105000Y-109035001I0J249999D01*
G01*
X178105000Y-108134999D01*
G75*
G02*
X178354999Y-107885000I249999J0D01*
G01*
X179055001Y-107885000D01*
G75*
G02*
X179305000Y-108134999I0J-249999D01*
G01*
G37*
G36*
G01*
X181305000Y-108134999D02*
X181305000Y-109035001D01*
G75*
G02*
X181055001Y-109285000I-249999J0D01*
G01*
X180354999Y-109285000D01*
G75*
G02*
X180105000Y-109035001I0J249999D01*
G01*
X180105000Y-108134999D01*
G75*
G02*
X180354999Y-107885000I249999J0D01*
G01*
X181055001Y-107885000D01*
G75*
G02*
X181305000Y-108134999I0J-249999D01*
G01*
G37*
%TD*%
%TO.C,R19*%
G36*
G01*
X179305000Y-105594999D02*
X179305000Y-106495001D01*
G75*
G02*
X179055001Y-106745000I-249999J0D01*
G01*
X178354999Y-106745000D01*
G75*
G02*
X178105000Y-106495001I0J249999D01*
G01*
X178105000Y-105594999D01*
G75*
G02*
X178354999Y-105345000I249999J0D01*
G01*
X179055001Y-105345000D01*
G75*
G02*
X179305000Y-105594999I0J-249999D01*
G01*
G37*
G36*
G01*
X181305000Y-105594999D02*
X181305000Y-106495001D01*
G75*
G02*
X181055001Y-106745000I-249999J0D01*
G01*
X180354999Y-106745000D01*
G75*
G02*
X180105000Y-106495001I0J249999D01*
G01*
X180105000Y-105594999D01*
G75*
G02*
X180354999Y-105345000I249999J0D01*
G01*
X181055001Y-105345000D01*
G75*
G02*
X181305000Y-105594999I0J-249999D01*
G01*
G37*
%TD*%
%TO.C,R9*%
G36*
G01*
X218255001Y-118980000D02*
X217354999Y-118980000D01*
G75*
G02*
X217105000Y-118730001I0J249999D01*
G01*
X217105000Y-118029999D01*
G75*
G02*
X217354999Y-117780000I249999J0D01*
G01*
X218255001Y-117780000D01*
G75*
G02*
X218505000Y-118029999I0J-249999D01*
G01*
X218505000Y-118730001D01*
G75*
G02*
X218255001Y-118980000I-249999J0D01*
G01*
G37*
G36*
G01*
X218255001Y-120980000D02*
X217354999Y-120980000D01*
G75*
G02*
X217105000Y-120730001I0J249999D01*
G01*
X217105000Y-120029999D01*
G75*
G02*
X217354999Y-119780000I249999J0D01*
G01*
X218255001Y-119780000D01*
G75*
G02*
X218505000Y-120029999I0J-249999D01*
G01*
X218505000Y-120730001D01*
G75*
G02*
X218255001Y-120980000I-249999J0D01*
G01*
G37*
%TD*%
%TO.C,R6*%
G36*
G01*
X219110000Y-116655001D02*
X219110000Y-115754999D01*
G75*
G02*
X219359999Y-115505000I249999J0D01*
G01*
X220060001Y-115505000D01*
G75*
G02*
X220310000Y-115754999I0J-249999D01*
G01*
X220310000Y-116655001D01*
G75*
G02*
X220060001Y-116905000I-249999J0D01*
G01*
X219359999Y-116905000D01*
G75*
G02*
X219110000Y-116655001I0J249999D01*
G01*
G37*
G36*
G01*
X217110000Y-116655001D02*
X217110000Y-115754999D01*
G75*
G02*
X217359999Y-115505000I249999J0D01*
G01*
X218060001Y-115505000D01*
G75*
G02*
X218310000Y-115754999I0J-249999D01*
G01*
X218310000Y-116655001D01*
G75*
G02*
X218060001Y-116905000I-249999J0D01*
G01*
X217359999Y-116905000D01*
G75*
G02*
X217110000Y-116655001I0J249999D01*
G01*
G37*
%TD*%
D18*
%TO.C,Q8*%
X222615000Y-119380000D03*
X220615000Y-118430000D03*
X220615000Y-120330000D03*
%TD*%
D30*
%TO.C,D9*%
X184150000Y-81280000D03*
X184150000Y-82550000D03*
X184150000Y-83820000D03*
D31*
X184150000Y-85090000D03*
%TD*%
D30*
%TO.C,D2*%
X196850000Y-81280000D03*
X196850000Y-82550000D03*
X196850000Y-83820000D03*
D31*
X196850000Y-85090000D03*
%TD*%
%TO.C,C9*%
G36*
G01*
X178217500Y-82075000D02*
X178217500Y-83025000D01*
G75*
G02*
X177967500Y-83275000I-250000J0D01*
G01*
X177292500Y-83275000D01*
G75*
G02*
X177042500Y-83025000I0J250000D01*
G01*
X177042500Y-82075000D01*
G75*
G02*
X177292500Y-81825000I250000J0D01*
G01*
X177967500Y-81825000D01*
G75*
G02*
X178217500Y-82075000I0J-250000D01*
G01*
G37*
G36*
G01*
X180292500Y-82075000D02*
X180292500Y-83025000D01*
G75*
G02*
X180042500Y-83275000I-250000J0D01*
G01*
X179367500Y-83275000D01*
G75*
G02*
X179117500Y-83025000I0J250000D01*
G01*
X179117500Y-82075000D01*
G75*
G02*
X179367500Y-81825000I250000J0D01*
G01*
X180042500Y-81825000D01*
G75*
G02*
X180292500Y-82075000I0J-250000D01*
G01*
G37*
%TD*%
D32*
%TO.C,BZ1*%
X226060000Y-116880000D03*
X226060000Y-121880000D03*
%TD*%
D33*
%TO.C,U1*%
X189230000Y-156115000D03*
X191770000Y-156115000D03*
D34*
X185420000Y-111125000D03*
X187960000Y-111125000D03*
X190500000Y-111125000D03*
X193040000Y-111125000D03*
X195580000Y-111125000D03*
D33*
X189318400Y-143875000D03*
X189318400Y-141875000D03*
X187318400Y-141875000D03*
X187318400Y-143875000D03*
X185318400Y-141875000D03*
D35*
X185318400Y-143875000D03*
D34*
X198120000Y-116205000D03*
X198120000Y-113665000D03*
X198120000Y-111125000D03*
X198120000Y-108585000D03*
X198120000Y-118745000D03*
X198120000Y-121285000D03*
X198120000Y-123825000D03*
X198120000Y-106045000D03*
X198120000Y-103505000D03*
X198120000Y-100965000D03*
X198120000Y-98425000D03*
X182880000Y-98425000D03*
X182880000Y-100965000D03*
X182880000Y-103505000D03*
X182880000Y-106045000D03*
X182880000Y-108585000D03*
X182880000Y-111125000D03*
X182880000Y-113665000D03*
X182880000Y-116205000D03*
X182880000Y-118745000D03*
X182880000Y-121285000D03*
X198120000Y-126365000D03*
X198120000Y-128905000D03*
X198120000Y-131445000D03*
X198120000Y-133985000D03*
X198120000Y-136525000D03*
X198120000Y-139065000D03*
X198120000Y-141605000D03*
X198120000Y-144145000D03*
X198120000Y-146685000D03*
X198120000Y-149225000D03*
X198120000Y-151765000D03*
X198120000Y-154305000D03*
D36*
X198120000Y-156845000D03*
D34*
X182880000Y-123825000D03*
X182880000Y-126365000D03*
X182880000Y-128905000D03*
X182880000Y-131445000D03*
X182880000Y-133985000D03*
X182880000Y-136525000D03*
X182880000Y-139065000D03*
X182880000Y-141605000D03*
X182880000Y-144145000D03*
X182880000Y-146685000D03*
X182880000Y-149225000D03*
X182880000Y-151765000D03*
X182880000Y-154305000D03*
X182880000Y-156845000D03*
D36*
X195069200Y-150545800D03*
D34*
X195069200Y-148005800D03*
X195069200Y-145465800D03*
X195069200Y-142925800D03*
X195069200Y-140385800D03*
X185420000Y-154305000D03*
%TD*%
M02*
