M48
; DRILL file {KiCad 5.1.10} date Sun Jun 27 23:23:16 2021
; FORMAT={-:-/ absolute / metric / decimal}
; #@! TF.CreationDate,2021-06-27T23:23:16+02:00
; #@! TF.GenerationSoftware,Kicad,Pcbnew,5.1.10
; #@! TF.FileFunction,Plated,1,4,PTH
FMAT,2
METRIC
T1C0.400
T2C0.762
T3C0.800
T4C0.900
T5C0.950
T6C1.000
T7C1.100
T8C2.700
T9C4.500
%
G90
G05
T1
X149.225Y-132.715
X151.95Y-122.665
X152.765Y-122.825
X154.035Y-122.825
X154.305Y-132.08
X154.94Y-122.825
X156.642Y-69.113
X156.642Y-70.587
X156.642Y-72.009
X156.642Y-78.003
X156.642Y-79.477
X156.642Y-80.899
X156.642Y-86.893
X156.642Y-88.367
X156.642Y-89.789
X156.642Y-95.783
X156.642Y-97.257
X156.642Y-98.679
X156.642Y-104.673
X156.642Y-106.147
X156.642Y-107.569
X156.642Y-113.563
X156.642Y-115.037
X156.642Y-116.459
X157.48Y-69.113
X157.48Y-70.587
X157.48Y-72.009
X157.48Y-78.003
X157.48Y-79.477
X157.48Y-80.899
X157.48Y-86.893
X157.48Y-88.367
X157.48Y-89.789
X157.48Y-95.783
X157.48Y-97.257
X157.48Y-98.679
X157.48Y-104.673
X157.48Y-106.147
X157.48Y-107.569
X157.48Y-113.563
X157.48Y-115.037
X157.48Y-116.459
X158.318Y-69.113
X158.318Y-70.587
X158.318Y-72.009
X158.318Y-78.003
X158.318Y-79.477
X158.318Y-80.899
X158.318Y-86.893
X158.318Y-88.367
X158.318Y-89.789
X158.318Y-95.783
X158.318Y-97.257
X158.318Y-98.679
X158.318Y-104.673
X158.318Y-106.147
X158.318Y-107.569
X158.318Y-113.563
X158.318Y-115.037
X158.318Y-116.459
X160.655Y-140.97
X161.406Y-71.133
X161.406Y-80.023
X161.406Y-115.583
X161.461Y-88.974
X161.461Y-97.864
X161.461Y-106.754
X161.77Y-143.99
X161.925Y-125.095
X162.53Y-69.185
X162.53Y-78.075
X162.53Y-95.855
X162.56Y-86.36
X162.56Y-130.81
X162.56Y-133.35
X163.195Y-109.855
X163.83Y-130.175
X163.83Y-132.08
X163.83Y-133.985
X164.465Y-115.57
X164.465Y-120.65
X165.1Y-130.81
X165.1Y-133.35
X166.37Y-132.08
X166.37Y-134.62
X166.69Y-146.365
X166.69Y-147.32
X167.005Y-86.995
X167.005Y-128.905
X167.005Y-130.81
X167.005Y-133.35
X167.64Y-146.05
X168.275Y-127.0
X168.275Y-129.54
X168.275Y-132.08
X168.275Y-134.62
X168.91Y-128.27
X168.91Y-130.81
X168.91Y-133.35
X168.91Y-139.065
X168.91Y-140.335
X168.91Y-141.605
X170.18Y-127.0
X170.18Y-129.54
X170.18Y-132.08
X170.18Y-134.62
X170.69Y-137.285
X170.815Y-128.27
X170.815Y-130.81
X170.815Y-133.35
X170.815Y-146.685
X171.96Y-137.285
X172.085Y-127.0
X172.085Y-129.54
X172.085Y-132.08
X172.72Y-128.27
X172.72Y-130.81
X172.72Y-133.35
X173.99Y-127.0
X173.99Y-129.54
X173.99Y-132.08
X173.99Y-134.62
X173.99Y-137.795
X173.99Y-139.76
X173.99Y-141.605
X174.625Y-128.27
X174.625Y-130.81
X174.625Y-133.35
X175.133Y-121.158
X175.895Y-123.19
X175.895Y-127.0
X175.895Y-129.54
X175.895Y-132.08
X175.895Y-134.62
X176.53Y-128.27
X176.53Y-130.81
X176.53Y-133.35
X176.53Y-148.59
X177.8Y-81.915
X177.8Y-127.0
X177.8Y-129.54
X177.8Y-132.08
X177.8Y-134.62
X178.435Y-111.125
X178.435Y-125.095
X178.435Y-128.27
X178.435Y-130.81
X178.435Y-133.35
X179.705Y-127.0
X179.705Y-129.54
X179.705Y-132.08
X179.705Y-134.62
X180.34Y-130.81
X180.34Y-133.35
X186.055Y-147.32
X186.69Y-131.445
X190.5Y-101.6
X190.5Y-116.84
X191.77Y-139.7
X196.85Y-150.495
X199.39Y-84.845
X200.025Y-138.43
X200.025Y-139.7
X200.66Y-113.665
X201.93Y-109.855
X201.93Y-114.935
X201.93Y-151.13
X203.067Y-152.532
X203.835Y-116.205
X203.835Y-128.27
X205.74Y-113.665
X206.375Y-122.555
X207.645Y-137.795
X208.28Y-105.41
X208.825Y-149.545
X212.295Y-123.825
X212.334Y-149.361
X212.725Y-140.335
X213.36Y-139.065
X213.995Y-88.9
X214.63Y-97.79
X215.265Y-134.62
X215.265Y-152.4
X216.535Y-146.05
X216.535Y-154.305
X219.075Y-127.0
X219.075Y-136.525
X219.71Y-83.185
X219.71Y-90.17
X219.71Y-117.475
X221.949Y-82.168
X223.949Y-66.168
X223.949Y-82.168
X224.155Y-136.525
X224.79Y-73.66
X224.79Y-127.635
X225.425Y-146.685
X225.949Y-66.168
X225.949Y-82.168
X226.695Y-105.41
X226.695Y-126.365
X226.695Y-136.525
X227.949Y-82.168
X228.6Y-136.525
X229.684Y-61.468
X229.949Y-82.168
X230.211Y-148.931
X230.505Y-151.765
X231.775Y-59.69
X231.775Y-60.96
X231.775Y-62.23
X231.775Y-63.5
X231.775Y-64.77
X231.775Y-66.04
X231.775Y-67.31
X231.775Y-68.58
X233.045Y-68.58
X233.68Y-144.78
X233.68Y-146.05
X233.68Y-154.305
X234.22Y-152.768
X234.315Y-83.185
X234.315Y-100.33
X234.315Y-120.015
X234.315Y-133.35
X234.315Y-134.62
X234.315Y-135.89
X234.315Y-143.51
X234.95Y-68.58
X234.95Y-147.955
X234.95Y-156.21
X235.585Y-130.175
X235.585Y-151.13
X236.22Y-59.69
X236.22Y-60.96
X236.22Y-62.23
X236.22Y-63.5
X236.22Y-64.77
X236.22Y-66.04
X236.22Y-67.31
X236.22Y-68.58
X236.22Y-104.14
X236.22Y-117.475
X238.184Y-61.468
X239.395Y-136.525
X240.03Y-121.285
T2
X226.06Y-116.88
X226.06Y-121.88
T3
X185.318Y-141.875
X185.318Y-143.875
X187.318Y-141.875
X187.318Y-143.875
X189.23Y-156.115
X189.318Y-141.875
X189.318Y-143.875
X191.77Y-156.115
T4
X184.15Y-81.28
X184.15Y-82.55
X184.15Y-83.82
X184.15Y-85.09
X196.85Y-81.28
X196.85Y-82.55
X196.85Y-83.82
X196.85Y-85.09
T5
X204.47Y-131.445
X204.47Y-142.875
X204.47Y-154.305
X206.97Y-131.445
X206.97Y-142.875
X206.97Y-154.305
X209.47Y-131.445
X209.47Y-142.875
X209.47Y-154.305
X211.97Y-131.445
X211.97Y-142.875
X211.97Y-154.305
X218.44Y-142.875
X218.52Y-154.305
X220.94Y-142.875
X221.02Y-154.305
X223.44Y-142.875
X223.52Y-154.305
X225.94Y-142.875
X226.02Y-154.305
T6
X146.05Y-69.215
X146.05Y-71.755
X146.05Y-78.105
X146.05Y-80.645
X146.05Y-86.995
X146.05Y-89.535
X146.05Y-95.885
X146.05Y-98.425
X146.05Y-104.775
X146.05Y-107.315
X146.05Y-113.665
X146.05Y-116.205
X161.925Y-127.635
X164.465Y-127.635
X175.895Y-90.805
X175.895Y-93.345
X175.895Y-95.885
X175.895Y-98.425
X175.895Y-100.965
X175.895Y-103.505
X175.895Y-106.045
X175.895Y-108.585
X176.53Y-151.17
X176.53Y-153.67
X201.93Y-97.79
X201.93Y-100.33
X201.93Y-102.87
X201.93Y-105.41
X218.44Y-97.79
X218.44Y-100.33
X218.44Y-102.87
X218.44Y-105.41
X219.075Y-131.445
X221.575Y-131.445
X230.505Y-156.845
X233.045Y-156.845
T7
X182.88Y-98.425
X182.88Y-100.965
X182.88Y-103.505
X182.88Y-106.045
X182.88Y-108.585
X182.88Y-111.125
X182.88Y-113.665
X182.88Y-116.205
X182.88Y-118.745
X182.88Y-121.285
X182.88Y-123.825
X182.88Y-126.365
X182.88Y-128.905
X182.88Y-131.445
X182.88Y-133.985
X182.88Y-136.525
X182.88Y-139.065
X182.88Y-141.605
X182.88Y-144.145
X182.88Y-146.685
X182.88Y-149.225
X182.88Y-151.765
X182.88Y-154.305
X182.88Y-156.845
X185.42Y-111.125
X185.42Y-154.305
X187.96Y-111.125
X190.5Y-111.125
X193.04Y-111.125
X195.069Y-140.386
X195.069Y-142.926
X195.069Y-145.466
X195.069Y-148.006
X195.069Y-150.546
X195.58Y-111.125
X198.12Y-98.425
X198.12Y-100.965
X198.12Y-103.505
X198.12Y-106.045
X198.12Y-108.585
X198.12Y-111.125
X198.12Y-113.665
X198.12Y-116.205
X198.12Y-118.745
X198.12Y-121.285
X198.12Y-123.825
X198.12Y-126.365
X198.12Y-128.905
X198.12Y-131.445
X198.12Y-133.985
X198.12Y-136.525
X198.12Y-139.065
X198.12Y-141.605
X198.12Y-144.145
X198.12Y-146.685
X198.12Y-149.225
X198.12Y-151.765
X198.12Y-154.305
X198.12Y-156.845
X222.25Y-97.79
X222.25Y-100.33
X222.25Y-102.87
X222.25Y-105.41
X240.03Y-97.79
X240.03Y-100.33
X240.03Y-102.87
X240.03Y-105.41
T8
X144.78Y-125.81
X144.78Y-130.81
X144.78Y-139.78
X144.78Y-144.78
X169.545Y-149.86
X169.545Y-154.86
T9
X153.455Y-152.4
X160.655Y-152.4
T0
M30
