%FSLAX45Y45*%
G04 Gerber Fmt 4.5, Leading zero omitted, Abs format (unit mm)*
G04 Created by KiCad (PCBNEW 5.1.10) date 2021-06-27 23:23:15*
%MOMM*%
%LPD*%
G01*
G04 APERTURE LIST*
%TA.AperFunction,Profile*%
%ADD10C,0.050000*%
%TD*%
%ADD11C,0.200000*%
%ADD12C,0.300000*%
G04 APERTURE END LIST*
D10*
X21780500Y-6032500D02*
G75*
G02*
X21971000Y-5842000I190500J0D01*
G01*
X23939500Y-5842000D02*
G75*
G02*
X24130000Y-6032500I0J-190500D01*
G01*
X24130000Y-15684500D02*
G75*
G02*
X23939500Y-15875000I-190500J0D01*
G01*
X14097000Y-6032500D02*
G75*
G02*
X14287500Y-5842000I190500J0D01*
G01*
X16256000Y-5842000D02*
G75*
G02*
X16446500Y-6032500I0J-190500D01*
G01*
X16637000Y-7620000D02*
G75*
G02*
X16446500Y-7429500I0J190500D01*
G01*
X14287500Y-15875000D02*
G75*
G02*
X14097000Y-15684500I0J190500D01*
G01*
X21780500Y-7429500D02*
G75*
G02*
X21590000Y-7620000I-190500J0D01*
G01*
X16256000Y-5842000D02*
X14287500Y-5842000D01*
X16446500Y-7429500D02*
X16446500Y-6032500D01*
X21590000Y-7620000D02*
X16637000Y-7620000D01*
X21971000Y-5842000D02*
X23939500Y-5842000D01*
X21780500Y-6032500D02*
X21780500Y-7429500D01*
X24130000Y-15684500D02*
X24130000Y-6032500D01*
X14287500Y-15875000D02*
X23939500Y-15875000D01*
X14097000Y-15684500D02*
X14097000Y-6032500D01*
D11*
X14318000Y-15334000D02*
X14638000Y-15654000D01*
X14638000Y-15334000D02*
X14318000Y-15654000D01*
X14572000Y-6063000D02*
X14892000Y-6383000D01*
X14892000Y-6063000D02*
X14572000Y-6383000D01*
X22103100Y-5999500D02*
X22423100Y-6319500D01*
X22423100Y-5999500D02*
X22103100Y-6319500D01*
X23652500Y-8476000D02*
X23972500Y-8796000D01*
X23972500Y-8476000D02*
X23652500Y-8796000D01*
D12*
X14380928Y-16343214D02*
X14380928Y-16043214D01*
X14452357Y-16043214D01*
X14495214Y-16057500D01*
X14523786Y-16086071D01*
X14538071Y-16114643D01*
X14552357Y-16171786D01*
X14552357Y-16214643D01*
X14538071Y-16271786D01*
X14523786Y-16300357D01*
X14495214Y-16328929D01*
X14452357Y-16343214D01*
X14380928Y-16343214D01*
X14680928Y-16343214D02*
X14680928Y-16143214D01*
X14680928Y-16200357D02*
X14695214Y-16171786D01*
X14709500Y-16157500D01*
X14738071Y-16143214D01*
X14766643Y-16143214D01*
X14866643Y-16343214D02*
X14866643Y-16143214D01*
X14866643Y-16043214D02*
X14852357Y-16057500D01*
X14866643Y-16071786D01*
X14880928Y-16057500D01*
X14866643Y-16043214D01*
X14866643Y-16071786D01*
X15052357Y-16343214D02*
X15023786Y-16328929D01*
X15009500Y-16300357D01*
X15009500Y-16043214D01*
X15209500Y-16343214D02*
X15180928Y-16328929D01*
X15166643Y-16300357D01*
X15166643Y-16043214D01*
X15552357Y-16343214D02*
X15552357Y-16043214D01*
X15652357Y-16257500D01*
X15752357Y-16043214D01*
X15752357Y-16343214D01*
X16023786Y-16343214D02*
X16023786Y-16186071D01*
X16009500Y-16157500D01*
X15980928Y-16143214D01*
X15923786Y-16143214D01*
X15895214Y-16157500D01*
X16023786Y-16328929D02*
X15995214Y-16343214D01*
X15923786Y-16343214D01*
X15895214Y-16328929D01*
X15880928Y-16300357D01*
X15880928Y-16271786D01*
X15895214Y-16243214D01*
X15923786Y-16228929D01*
X15995214Y-16228929D01*
X16023786Y-16214643D01*
X16166643Y-16143214D02*
X16166643Y-16443214D01*
X16166643Y-16157500D02*
X16195214Y-16143214D01*
X16252357Y-16143214D01*
X16280928Y-16157500D01*
X16295214Y-16171786D01*
X16309500Y-16200357D01*
X16309500Y-16286071D01*
X16295214Y-16314643D01*
X16280928Y-16328929D01*
X16252357Y-16343214D01*
X16195214Y-16343214D01*
X16166643Y-16328929D01*
X16438071Y-16314643D02*
X16452357Y-16328929D01*
X16438071Y-16343214D01*
X16423786Y-16328929D01*
X16438071Y-16314643D01*
X16438071Y-16343214D01*
X16438071Y-16157500D02*
X16452357Y-16171786D01*
X16438071Y-16186071D01*
X16423786Y-16171786D01*
X16438071Y-16157500D01*
X16438071Y-16186071D01*
X13774500Y-16677500D02*
X14094500Y-16997500D01*
X14094500Y-16677500D02*
X13774500Y-16997500D01*
X14352357Y-16673214D02*
X14538071Y-16673214D01*
X14438071Y-16787500D01*
X14480928Y-16787500D01*
X14509500Y-16801786D01*
X14523786Y-16816072D01*
X14538071Y-16844643D01*
X14538071Y-16916072D01*
X14523786Y-16944643D01*
X14509500Y-16958929D01*
X14480928Y-16973214D01*
X14395214Y-16973214D01*
X14366643Y-16958929D01*
X14352357Y-16944643D01*
X14666643Y-16944643D02*
X14680928Y-16958929D01*
X14666643Y-16973214D01*
X14652357Y-16958929D01*
X14666643Y-16944643D01*
X14666643Y-16973214D01*
X14795214Y-16701786D02*
X14809500Y-16687500D01*
X14838071Y-16673214D01*
X14909500Y-16673214D01*
X14938071Y-16687500D01*
X14952357Y-16701786D01*
X14966643Y-16730357D01*
X14966643Y-16758929D01*
X14952357Y-16801786D01*
X14780928Y-16973214D01*
X14966643Y-16973214D01*
X15152357Y-16673214D02*
X15180928Y-16673214D01*
X15209500Y-16687500D01*
X15223786Y-16701786D01*
X15238071Y-16730357D01*
X15252357Y-16787500D01*
X15252357Y-16858929D01*
X15238071Y-16916072D01*
X15223786Y-16944643D01*
X15209500Y-16958929D01*
X15180928Y-16973214D01*
X15152357Y-16973214D01*
X15123786Y-16958929D01*
X15109500Y-16944643D01*
X15095214Y-16916072D01*
X15080928Y-16858929D01*
X15080928Y-16787500D01*
X15095214Y-16730357D01*
X15109500Y-16701786D01*
X15123786Y-16687500D01*
X15152357Y-16673214D01*
X15438071Y-16673214D02*
X15466643Y-16673214D01*
X15495214Y-16687500D01*
X15509500Y-16701786D01*
X15523786Y-16730357D01*
X15538071Y-16787500D01*
X15538071Y-16858929D01*
X15523786Y-16916072D01*
X15509500Y-16944643D01*
X15495214Y-16958929D01*
X15466643Y-16973214D01*
X15438071Y-16973214D01*
X15409500Y-16958929D01*
X15395214Y-16944643D01*
X15380928Y-16916072D01*
X15366643Y-16858929D01*
X15366643Y-16787500D01*
X15380928Y-16730357D01*
X15395214Y-16701786D01*
X15409500Y-16687500D01*
X15438071Y-16673214D01*
X15666643Y-16973214D02*
X15666643Y-16773214D01*
X15666643Y-16801786D02*
X15680928Y-16787500D01*
X15709500Y-16773214D01*
X15752357Y-16773214D01*
X15780928Y-16787500D01*
X15795214Y-16816072D01*
X15795214Y-16973214D01*
X15795214Y-16816072D02*
X15809500Y-16787500D01*
X15838071Y-16773214D01*
X15880928Y-16773214D01*
X15909500Y-16787500D01*
X15923786Y-16816072D01*
X15923786Y-16973214D01*
X16066643Y-16973214D02*
X16066643Y-16773214D01*
X16066643Y-16801786D02*
X16080928Y-16787500D01*
X16109500Y-16773214D01*
X16152357Y-16773214D01*
X16180928Y-16787500D01*
X16195214Y-16816072D01*
X16195214Y-16973214D01*
X16195214Y-16816072D02*
X16209500Y-16787500D01*
X16238071Y-16773214D01*
X16280928Y-16773214D01*
X16309500Y-16787500D01*
X16323786Y-16816072D01*
X16323786Y-16973214D01*
X16909500Y-16658929D02*
X16652357Y-17044643D01*
X17295214Y-16673214D02*
X17323786Y-16673214D01*
X17352357Y-16687500D01*
X17366643Y-16701786D01*
X17380928Y-16730357D01*
X17395214Y-16787500D01*
X17395214Y-16858929D01*
X17380928Y-16916072D01*
X17366643Y-16944643D01*
X17352357Y-16958929D01*
X17323786Y-16973214D01*
X17295214Y-16973214D01*
X17266643Y-16958929D01*
X17252357Y-16944643D01*
X17238071Y-16916072D01*
X17223786Y-16858929D01*
X17223786Y-16787500D01*
X17238071Y-16730357D01*
X17252357Y-16701786D01*
X17266643Y-16687500D01*
X17295214Y-16673214D01*
X17523786Y-16944643D02*
X17538071Y-16958929D01*
X17523786Y-16973214D01*
X17509500Y-16958929D01*
X17523786Y-16944643D01*
X17523786Y-16973214D01*
X17823786Y-16973214D02*
X17652357Y-16973214D01*
X17738071Y-16973214D02*
X17738071Y-16673214D01*
X17709500Y-16716071D01*
X17680928Y-16744643D01*
X17652357Y-16758929D01*
X17938071Y-16701786D02*
X17952357Y-16687500D01*
X17980928Y-16673214D01*
X18052357Y-16673214D01*
X18080928Y-16687500D01*
X18095214Y-16701786D01*
X18109500Y-16730357D01*
X18109500Y-16758929D01*
X18095214Y-16801786D01*
X17923786Y-16973214D01*
X18109500Y-16973214D01*
X18366643Y-16673214D02*
X18309500Y-16673214D01*
X18280928Y-16687500D01*
X18266643Y-16701786D01*
X18238071Y-16744643D01*
X18223786Y-16801786D01*
X18223786Y-16916072D01*
X18238071Y-16944643D01*
X18252357Y-16958929D01*
X18280928Y-16973214D01*
X18338071Y-16973214D01*
X18366643Y-16958929D01*
X18380928Y-16944643D01*
X18395214Y-16916072D01*
X18395214Y-16844643D01*
X18380928Y-16816072D01*
X18366643Y-16801786D01*
X18338071Y-16787500D01*
X18280928Y-16787500D01*
X18252357Y-16801786D01*
X18238071Y-16816072D01*
X18223786Y-16844643D01*
X18580928Y-16673214D02*
X18609500Y-16673214D01*
X18638071Y-16687500D01*
X18652357Y-16701786D01*
X18666643Y-16730357D01*
X18680928Y-16787500D01*
X18680928Y-16858929D01*
X18666643Y-16916072D01*
X18652357Y-16944643D01*
X18638071Y-16958929D01*
X18609500Y-16973214D01*
X18580928Y-16973214D01*
X18552357Y-16958929D01*
X18538071Y-16944643D01*
X18523786Y-16916072D01*
X18509500Y-16858929D01*
X18509500Y-16787500D01*
X18523786Y-16730357D01*
X18538071Y-16701786D01*
X18552357Y-16687500D01*
X18580928Y-16673214D01*
X18795214Y-16673214D02*
X18795214Y-16730357D01*
X18909500Y-16673214D02*
X18909500Y-16730357D01*
X19352357Y-17087500D02*
X19338071Y-17073214D01*
X19309500Y-17030357D01*
X19295214Y-17001786D01*
X19280928Y-16958929D01*
X19266643Y-16887500D01*
X19266643Y-16830357D01*
X19280928Y-16758929D01*
X19295214Y-16716071D01*
X19309500Y-16687500D01*
X19338071Y-16644643D01*
X19352357Y-16630357D01*
X19595214Y-16773214D02*
X19595214Y-16973214D01*
X19523786Y-16658929D02*
X19452357Y-16873214D01*
X19638071Y-16873214D01*
X19980928Y-16973214D02*
X19980928Y-16673214D01*
X20109500Y-16973214D02*
X20109500Y-16816072D01*
X20095214Y-16787500D01*
X20066643Y-16773214D01*
X20023786Y-16773214D01*
X19995214Y-16787500D01*
X19980928Y-16801786D01*
X20295214Y-16973214D02*
X20266643Y-16958929D01*
X20252357Y-16944643D01*
X20238071Y-16916072D01*
X20238071Y-16830357D01*
X20252357Y-16801786D01*
X20266643Y-16787500D01*
X20295214Y-16773214D01*
X20338071Y-16773214D01*
X20366643Y-16787500D01*
X20380928Y-16801786D01*
X20395214Y-16830357D01*
X20395214Y-16916072D01*
X20380928Y-16944643D01*
X20366643Y-16958929D01*
X20338071Y-16973214D01*
X20295214Y-16973214D01*
X20566643Y-16973214D02*
X20538071Y-16958929D01*
X20523786Y-16930357D01*
X20523786Y-16673214D01*
X20795214Y-16958929D02*
X20766643Y-16973214D01*
X20709500Y-16973214D01*
X20680928Y-16958929D01*
X20666643Y-16930357D01*
X20666643Y-16816072D01*
X20680928Y-16787500D01*
X20709500Y-16773214D01*
X20766643Y-16773214D01*
X20795214Y-16787500D01*
X20809500Y-16816072D01*
X20809500Y-16844643D01*
X20666643Y-16873214D01*
X20923786Y-16958929D02*
X20952357Y-16973214D01*
X21009500Y-16973214D01*
X21038071Y-16958929D01*
X21052357Y-16930357D01*
X21052357Y-16916072D01*
X21038071Y-16887500D01*
X21009500Y-16873214D01*
X20966643Y-16873214D01*
X20938071Y-16858929D01*
X20923786Y-16830357D01*
X20923786Y-16816072D01*
X20938071Y-16787500D01*
X20966643Y-16773214D01*
X21009500Y-16773214D01*
X21038071Y-16787500D01*
X21152357Y-17087500D02*
X21166643Y-17073214D01*
X21195214Y-17030357D01*
X21209500Y-17001786D01*
X21223786Y-16958929D01*
X21238071Y-16887500D01*
X21238071Y-16830357D01*
X21223786Y-16758929D01*
X21209500Y-16716071D01*
X21195214Y-16687500D01*
X21166643Y-16644643D01*
X21152357Y-16630357D01*
X21695214Y-17087500D02*
X21680928Y-17073214D01*
X21652357Y-17030357D01*
X21638071Y-17001786D01*
X21623786Y-16958929D01*
X21609500Y-16887500D01*
X21609500Y-16830357D01*
X21623786Y-16758929D01*
X21638071Y-16716071D01*
X21652357Y-16687500D01*
X21680928Y-16644643D01*
X21695214Y-16630357D01*
X21809500Y-16773214D02*
X21809500Y-16973214D01*
X21809500Y-16801786D02*
X21823786Y-16787500D01*
X21852357Y-16773214D01*
X21895214Y-16773214D01*
X21923786Y-16787500D01*
X21938071Y-16816072D01*
X21938071Y-16973214D01*
X22123786Y-16973214D02*
X22095214Y-16958929D01*
X22080928Y-16944643D01*
X22066643Y-16916072D01*
X22066643Y-16830357D01*
X22080928Y-16801786D01*
X22095214Y-16787500D01*
X22123786Y-16773214D01*
X22166643Y-16773214D01*
X22195214Y-16787500D01*
X22209500Y-16801786D01*
X22223786Y-16830357D01*
X22223786Y-16916072D01*
X22209500Y-16944643D01*
X22195214Y-16958929D01*
X22166643Y-16973214D01*
X22123786Y-16973214D01*
X22309500Y-16773214D02*
X22423786Y-16773214D01*
X22352357Y-16673214D02*
X22352357Y-16930357D01*
X22366643Y-16958929D01*
X22395214Y-16973214D01*
X22423786Y-16973214D01*
X22752357Y-16773214D02*
X22752357Y-17073214D01*
X22752357Y-16787500D02*
X22780928Y-16773214D01*
X22838071Y-16773214D01*
X22866643Y-16787500D01*
X22880928Y-16801786D01*
X22895214Y-16830357D01*
X22895214Y-16916072D01*
X22880928Y-16944643D01*
X22866643Y-16958929D01*
X22838071Y-16973214D01*
X22780928Y-16973214D01*
X22752357Y-16958929D01*
X23066643Y-16973214D02*
X23038071Y-16958929D01*
X23023786Y-16930357D01*
X23023786Y-16673214D01*
X23309500Y-16973214D02*
X23309500Y-16816072D01*
X23295214Y-16787500D01*
X23266643Y-16773214D01*
X23209500Y-16773214D01*
X23180928Y-16787500D01*
X23309500Y-16958929D02*
X23280928Y-16973214D01*
X23209500Y-16973214D01*
X23180928Y-16958929D01*
X23166643Y-16930357D01*
X23166643Y-16901786D01*
X23180928Y-16873214D01*
X23209500Y-16858929D01*
X23280928Y-16858929D01*
X23309500Y-16844643D01*
X23409500Y-16773214D02*
X23523786Y-16773214D01*
X23452357Y-16673214D02*
X23452357Y-16930357D01*
X23466643Y-16958929D01*
X23495214Y-16973214D01*
X23523786Y-16973214D01*
X23738071Y-16958929D02*
X23709500Y-16973214D01*
X23652357Y-16973214D01*
X23623786Y-16958929D01*
X23609500Y-16930357D01*
X23609500Y-16816072D01*
X23623786Y-16787500D01*
X23652357Y-16773214D01*
X23709500Y-16773214D01*
X23738071Y-16787500D01*
X23752357Y-16816072D01*
X23752357Y-16844643D01*
X23609500Y-16873214D01*
X24009500Y-16973214D02*
X24009500Y-16673214D01*
X24009500Y-16958929D02*
X23980928Y-16973214D01*
X23923786Y-16973214D01*
X23895214Y-16958929D01*
X23880928Y-16944643D01*
X23866643Y-16916072D01*
X23866643Y-16830357D01*
X23880928Y-16801786D01*
X23895214Y-16787500D01*
X23923786Y-16773214D01*
X23980928Y-16773214D01*
X24009500Y-16787500D01*
X24123786Y-17087500D02*
X24138071Y-17073214D01*
X24166643Y-17030357D01*
X24180928Y-17001786D01*
X24195214Y-16958929D01*
X24209500Y-16887500D01*
X24209500Y-16830357D01*
X24195214Y-16758929D01*
X24180928Y-16716071D01*
X24166643Y-16687500D01*
X24138071Y-16644643D01*
X24123786Y-16630357D01*
M02*
